%TF.GenerationSoftware,KiCad,Pcbnew,8.0.1*%
%TF.CreationDate,2024-03-24T16:32:44+02:00*%
%TF.ProjectId,88_Project,38385f50-726f-46a6-9563-742e6b696361,5*%
%TF.SameCoordinates,Original*%
%TF.FileFunction,Soldermask,Top*%
%TF.FilePolarity,Negative*%
%FSLAX46Y46*%
G04 Gerber Fmt 4.6, Leading zero omitted, Abs format (unit mm)*
G04 Created by KiCad (PCBNEW 8.0.1) date 2024-03-24 16:32:44*
%MOMM*%
%LPD*%
G01*
G04 APERTURE LIST*
G04 Aperture macros list*
%AMRoundRect*
0 Rectangle with rounded corners*
0 $1 Rounding radius*
0 $2 $3 $4 $5 $6 $7 $8 $9 X,Y pos of 4 corners*
0 Add a 4 corners polygon primitive as box body*
4,1,4,$2,$3,$4,$5,$6,$7,$8,$9,$2,$3,0*
0 Add four circle primitives for the rounded corners*
1,1,$1+$1,$2,$3*
1,1,$1+$1,$4,$5*
1,1,$1+$1,$6,$7*
1,1,$1+$1,$8,$9*
0 Add four rect primitives between the rounded corners*
20,1,$1+$1,$2,$3,$4,$5,0*
20,1,$1+$1,$4,$5,$6,$7,0*
20,1,$1+$1,$6,$7,$8,$9,0*
20,1,$1+$1,$8,$9,$2,$3,0*%
%AMFreePoly0*
4,1,19,0.500000,-0.750000,0.000000,-0.750000,0.000000,-0.744911,-0.071157,-0.744911,-0.207708,-0.704816,-0.327430,-0.627875,-0.420627,-0.520320,-0.479746,-0.390866,-0.500000,-0.250000,-0.500000,0.250000,-0.479746,0.390866,-0.420627,0.520320,-0.327430,0.627875,-0.207708,0.704816,-0.071157,0.744911,0.000000,0.744911,0.000000,0.750000,0.500000,0.750000,0.500000,-0.750000,0.500000,-0.750000,
$1*%
%AMFreePoly1*
4,1,19,0.000000,0.744911,0.071157,0.744911,0.207708,0.704816,0.327430,0.627875,0.420627,0.520320,0.479746,0.390866,0.500000,0.250000,0.500000,-0.250000,0.479746,-0.390866,0.420627,-0.520320,0.327430,-0.627875,0.207708,-0.704816,0.071157,-0.744911,0.000000,-0.744911,0.000000,-0.750000,-0.500000,-0.750000,-0.500000,0.750000,0.000000,0.750000,0.000000,0.744911,0.000000,0.744911,
$1*%
G04 Aperture macros list end*
%ADD10R,0.854800X0.862800*%
%ADD11R,1.327899X0.431000*%
%ADD12C,2.057400*%
%ADD13C,2.800000*%
%ADD14RoundRect,0.200000X-0.200000X-0.275000X0.200000X-0.275000X0.200000X0.275000X-0.200000X0.275000X0*%
%ADD15RoundRect,0.250000X-0.312500X-0.625000X0.312500X-0.625000X0.312500X0.625000X-0.312500X0.625000X0*%
%ADD16FreePoly0,0.000000*%
%ADD17FreePoly1,0.000000*%
%ADD18RoundRect,0.225000X-0.225000X-0.250000X0.225000X-0.250000X0.225000X0.250000X-0.225000X0.250000X0*%
%ADD19RoundRect,0.225000X0.225000X0.250000X-0.225000X0.250000X-0.225000X-0.250000X0.225000X-0.250000X0*%
%ADD20RoundRect,0.225000X-0.250000X0.225000X-0.250000X-0.225000X0.250000X-0.225000X0.250000X0.225000X0*%
%ADD21RoundRect,0.200000X0.200000X0.275000X-0.200000X0.275000X-0.200000X-0.275000X0.200000X-0.275000X0*%
%ADD22R,1.050000X0.450000*%
%ADD23R,3.400000X5.000000*%
%ADD24RoundRect,0.250000X-0.350000X-0.625000X0.350000X-0.625000X0.350000X0.625000X-0.350000X0.625000X0*%
%ADD25O,1.200000X1.750000*%
%ADD26R,1.700000X1.700000*%
%ADD27O,1.700000X1.700000*%
G04 APERTURE END LIST*
D10*
%TO.C,LED1*%
X56077300Y-126500000D03*
X57922700Y-126500000D03*
%TD*%
%TO.C,LED2*%
X56077300Y-124000000D03*
X57922700Y-124000000D03*
%TD*%
D11*
%TO.C,U1*%
X47786652Y-123525001D03*
X47786652Y-124174999D03*
X47786652Y-124825001D03*
X47786652Y-125474999D03*
X52213348Y-125474999D03*
X52213348Y-124825001D03*
X52213348Y-124174999D03*
X52213348Y-123525001D03*
%TD*%
D12*
%TO.C,SW1*%
X81301000Y-127000000D03*
X86000000Y-127000000D03*
X90699000Y-127000000D03*
%TD*%
D13*
%TO.C,TP7*%
X73500000Y-118000000D03*
%TD*%
D14*
%TO.C,R4*%
X41500000Y-122000000D03*
X43150000Y-122000000D03*
%TD*%
D15*
%TO.C,R3*%
X48075000Y-113000000D03*
X51000000Y-113000000D03*
%TD*%
D14*
%TO.C,R6*%
X53000000Y-129500000D03*
X54650000Y-129500000D03*
%TD*%
D13*
%TO.C,TP6*%
X66000000Y-113000000D03*
%TD*%
D15*
%TO.C,R9*%
X41575000Y-117000000D03*
X44500000Y-117000000D03*
%TD*%
D16*
%TO.C,JP4*%
X37175000Y-126000000D03*
D17*
X38475000Y-126000000D03*
%TD*%
D13*
%TO.C,TP8*%
X73500000Y-123000000D03*
%TD*%
D18*
%TO.C,C1*%
X68500000Y-109000000D03*
X70050000Y-109000000D03*
%TD*%
D19*
%TO.C,C4*%
X93000000Y-120000000D03*
X91450000Y-120000000D03*
%TD*%
D13*
%TO.C,TP4*%
X58500000Y-118000000D03*
%TD*%
D19*
%TO.C,C2*%
X50000000Y-129000000D03*
X48450000Y-129000000D03*
%TD*%
D13*
%TO.C,TP1*%
X66000000Y-118000000D03*
%TD*%
%TO.C,TP3*%
X58500000Y-113000000D03*
%TD*%
%TO.C,TP5*%
X73500000Y-113000000D03*
%TD*%
D20*
%TO.C,C5*%
X92500000Y-114725000D03*
X92500000Y-116275000D03*
%TD*%
D18*
%TO.C,C3*%
X91950000Y-112500000D03*
X93500000Y-112500000D03*
%TD*%
D13*
%TO.C,TP11*%
X88500000Y-118000000D03*
%TD*%
D16*
%TO.C,JP3*%
X37175000Y-122000000D03*
D17*
X38475000Y-122000000D03*
%TD*%
D13*
%TO.C,TP10*%
X81500000Y-113000000D03*
%TD*%
%TO.C,TP12*%
X74000000Y-128500000D03*
%TD*%
%TO.C,TP9*%
X88500000Y-113000000D03*
%TD*%
D14*
%TO.C,R2*%
X62850000Y-109000000D03*
X64500000Y-109000000D03*
%TD*%
%TO.C,R10*%
X41500000Y-126000000D03*
X43150000Y-126000000D03*
%TD*%
%TO.C,R7*%
X49675000Y-121000000D03*
X51325000Y-121000000D03*
%TD*%
%TO.C,R11*%
X41500000Y-130000000D03*
X43150000Y-130000000D03*
%TD*%
D16*
%TO.C,JP1*%
X37000000Y-113000000D03*
D17*
X38300000Y-113000000D03*
%TD*%
D16*
%TO.C,JP5*%
X37175000Y-130000000D03*
D17*
X38475000Y-130000000D03*
%TD*%
D21*
%TO.C,R1*%
X60825000Y-109000000D03*
X59175000Y-109000000D03*
%TD*%
D22*
%TO.C,U2*%
X78225000Y-117350000D03*
X78225000Y-118000000D03*
X78225000Y-118650000D03*
X78225000Y-119300000D03*
X78225000Y-119950000D03*
X78225000Y-120600000D03*
X78225000Y-121250000D03*
X78225000Y-121900000D03*
X83775000Y-121900000D03*
X83775000Y-121250000D03*
X83775000Y-120600000D03*
X83775000Y-119950000D03*
X83775000Y-119300000D03*
X83775000Y-118650000D03*
X83775000Y-118000000D03*
X83775000Y-117350000D03*
D23*
X81000000Y-119625000D03*
%TD*%
D15*
%TO.C,R8*%
X41575000Y-113000000D03*
X44500000Y-113000000D03*
%TD*%
%TO.C,R5*%
X48075000Y-117000000D03*
X51000000Y-117000000D03*
%TD*%
D24*
%TO.C,J2*%
X63500000Y-123550000D03*
D25*
X65500000Y-123550000D03*
%TD*%
D16*
%TO.C,JP2*%
X37000000Y-117000000D03*
D17*
X38300000Y-117000000D03*
%TD*%
D26*
%TO.C,J1*%
X73875000Y-105540000D03*
D27*
X73875000Y-103000000D03*
X71335000Y-105540000D03*
X71335000Y-103000000D03*
X68795000Y-105540000D03*
X68795000Y-103000000D03*
X66255000Y-105540000D03*
X66255000Y-103000000D03*
X63715000Y-105540000D03*
X63715000Y-103000000D03*
X61175000Y-105540000D03*
X61175000Y-103000000D03*
X58635000Y-105540000D03*
X58635000Y-103000000D03*
X56095000Y-105540000D03*
X56095000Y-103000000D03*
%TD*%
M02*
