%TF.GenerationSoftware,KiCad,Pcbnew,8.0.1*%
%TF.CreationDate,2024-03-24T16:32:44+02:00*%
%TF.ProjectId,88_Project,38385f50-726f-46a6-9563-742e6b696361,5*%
%TF.SameCoordinates,Original*%
%TF.FileFunction,Paste,Top*%
%TF.FilePolarity,Positive*%
%FSLAX46Y46*%
G04 Gerber Fmt 4.6, Leading zero omitted, Abs format (unit mm)*
G04 Created by KiCad (PCBNEW 8.0.1) date 2024-03-24 16:32:44*
%MOMM*%
%LPD*%
G01*
G04 APERTURE LIST*
G04 Aperture macros list*
%AMRoundRect*
0 Rectangle with rounded corners*
0 $1 Rounding radius*
0 $2 $3 $4 $5 $6 $7 $8 $9 X,Y pos of 4 corners*
0 Add a 4 corners polygon primitive as box body*
4,1,4,$2,$3,$4,$5,$6,$7,$8,$9,$2,$3,0*
0 Add four circle primitives for the rounded corners*
1,1,$1+$1,$2,$3*
1,1,$1+$1,$4,$5*
1,1,$1+$1,$6,$7*
1,1,$1+$1,$8,$9*
0 Add four rect primitives between the rounded corners*
20,1,$1+$1,$2,$3,$4,$5,0*
20,1,$1+$1,$4,$5,$6,$7,0*
20,1,$1+$1,$6,$7,$8,$9,0*
20,1,$1+$1,$8,$9,$2,$3,0*%
G04 Aperture macros list end*
%ADD10R,0.854800X0.862800*%
%ADD11R,1.327899X0.431000*%
%ADD12RoundRect,0.200000X-0.200000X-0.275000X0.200000X-0.275000X0.200000X0.275000X-0.200000X0.275000X0*%
%ADD13RoundRect,0.250000X-0.312500X-0.625000X0.312500X-0.625000X0.312500X0.625000X-0.312500X0.625000X0*%
%ADD14RoundRect,0.225000X-0.225000X-0.250000X0.225000X-0.250000X0.225000X0.250000X-0.225000X0.250000X0*%
%ADD15RoundRect,0.225000X0.225000X0.250000X-0.225000X0.250000X-0.225000X-0.250000X0.225000X-0.250000X0*%
%ADD16RoundRect,0.225000X-0.250000X0.225000X-0.250000X-0.225000X0.250000X-0.225000X0.250000X0.225000X0*%
%ADD17RoundRect,0.200000X0.200000X0.275000X-0.200000X0.275000X-0.200000X-0.275000X0.200000X-0.275000X0*%
%ADD18R,0.880000X1.050000*%
%ADD19R,1.050000X0.450000*%
G04 APERTURE END LIST*
D10*
%TO.C,LED1*%
X56077300Y-126500000D03*
X57922700Y-126500000D03*
%TD*%
%TO.C,LED2*%
X56077300Y-124000000D03*
X57922700Y-124000000D03*
%TD*%
D11*
%TO.C,U1*%
X47786652Y-123525001D03*
X47786652Y-124174999D03*
X47786652Y-124825001D03*
X47786652Y-125474999D03*
X52213348Y-125474999D03*
X52213348Y-124825001D03*
X52213348Y-124174999D03*
X52213348Y-123525001D03*
%TD*%
D12*
%TO.C,R4*%
X41500000Y-122000000D03*
X43150000Y-122000000D03*
%TD*%
D13*
%TO.C,R3*%
X48075000Y-113000000D03*
X51000000Y-113000000D03*
%TD*%
D12*
%TO.C,R6*%
X53000000Y-129500000D03*
X54650000Y-129500000D03*
%TD*%
D13*
%TO.C,R9*%
X41575000Y-117000000D03*
X44500000Y-117000000D03*
%TD*%
D14*
%TO.C,C1*%
X68500000Y-109000000D03*
X70050000Y-109000000D03*
%TD*%
D15*
%TO.C,C4*%
X93000000Y-120000000D03*
X91450000Y-120000000D03*
%TD*%
%TO.C,C2*%
X50000000Y-129000000D03*
X48450000Y-129000000D03*
%TD*%
D16*
%TO.C,C5*%
X92500000Y-114725000D03*
X92500000Y-116275000D03*
%TD*%
D14*
%TO.C,C3*%
X91950000Y-112500000D03*
X93500000Y-112500000D03*
%TD*%
D12*
%TO.C,R2*%
X62850000Y-109000000D03*
X64500000Y-109000000D03*
%TD*%
%TO.C,R10*%
X41500000Y-126000000D03*
X43150000Y-126000000D03*
%TD*%
%TO.C,R7*%
X49675000Y-121000000D03*
X51325000Y-121000000D03*
%TD*%
%TO.C,R11*%
X41500000Y-130000000D03*
X43150000Y-130000000D03*
%TD*%
D17*
%TO.C,R1*%
X60825000Y-109000000D03*
X59175000Y-109000000D03*
%TD*%
D18*
%TO.C,U2*%
X79866600Y-117750000D03*
X79866600Y-119000000D03*
X79866600Y-120250000D03*
X79866600Y-121500000D03*
X81000000Y-117750000D03*
X81000000Y-119000000D03*
X81000000Y-120250000D03*
X81000000Y-121500000D03*
X82133400Y-117750000D03*
X82133400Y-119000000D03*
X82133400Y-120250000D03*
X82133400Y-121500000D03*
D19*
X78225000Y-117350000D03*
X78225000Y-118000000D03*
X78225000Y-118650000D03*
X78225000Y-119300000D03*
X78225000Y-119950000D03*
X78225000Y-120600000D03*
X78225000Y-121250000D03*
X78225000Y-121900000D03*
X83775000Y-121900000D03*
X83775000Y-121250000D03*
X83775000Y-120600000D03*
X83775000Y-119950000D03*
X83775000Y-119300000D03*
X83775000Y-118650000D03*
X83775000Y-118000000D03*
X83775000Y-117350000D03*
%TD*%
D13*
%TO.C,R8*%
X41575000Y-113000000D03*
X44500000Y-113000000D03*
%TD*%
%TO.C,R5*%
X48075000Y-117000000D03*
X51000000Y-117000000D03*
%TD*%
M02*
