%TF.GenerationSoftware,KiCad,Pcbnew,8.0.1*%
%TF.CreationDate,2024-03-24T16:32:44+02:00*%
%TF.ProjectId,88_Project,38385f50-726f-46a6-9563-742e6b696361,5*%
%TF.SameCoordinates,Original*%
%TF.FileFunction,Legend,Top*%
%TF.FilePolarity,Positive*%
%FSLAX46Y46*%
G04 Gerber Fmt 4.6, Leading zero omitted, Abs format (unit mm)*
G04 Created by KiCad (PCBNEW 8.0.1) date 2024-03-24 16:32:44*
%MOMM*%
%LPD*%
G01*
G04 APERTURE LIST*
G04 Aperture macros list*
%AMRoundRect*
0 Rectangle with rounded corners*
0 $1 Rounding radius*
0 $2 $3 $4 $5 $6 $7 $8 $9 X,Y pos of 4 corners*
0 Add a 4 corners polygon primitive as box body*
4,1,4,$2,$3,$4,$5,$6,$7,$8,$9,$2,$3,0*
0 Add four circle primitives for the rounded corners*
1,1,$1+$1,$2,$3*
1,1,$1+$1,$4,$5*
1,1,$1+$1,$6,$7*
1,1,$1+$1,$8,$9*
0 Add four rect primitives between the rounded corners*
20,1,$1+$1,$2,$3,$4,$5,0*
20,1,$1+$1,$4,$5,$6,$7,0*
20,1,$1+$1,$6,$7,$8,$9,0*
20,1,$1+$1,$8,$9,$2,$3,0*%
%AMFreePoly0*
4,1,19,0.500000,-0.750000,0.000000,-0.750000,0.000000,-0.744911,-0.071157,-0.744911,-0.207708,-0.704816,-0.327430,-0.627875,-0.420627,-0.520320,-0.479746,-0.390866,-0.500000,-0.250000,-0.500000,0.250000,-0.479746,0.390866,-0.420627,0.520320,-0.327430,0.627875,-0.207708,0.704816,-0.071157,0.744911,0.000000,0.744911,0.000000,0.750000,0.500000,0.750000,0.500000,-0.750000,0.500000,-0.750000,
$1*%
%AMFreePoly1*
4,1,19,0.000000,0.744911,0.071157,0.744911,0.207708,0.704816,0.327430,0.627875,0.420627,0.520320,0.479746,0.390866,0.500000,0.250000,0.500000,-0.250000,0.479746,-0.390866,0.420627,-0.520320,0.327430,-0.627875,0.207708,-0.704816,0.071157,-0.744911,0.000000,-0.744911,0.000000,-0.750000,-0.500000,-0.750000,-0.500000,0.750000,0.000000,0.750000,0.000000,0.744911,0.000000,0.744911,
$1*%
G04 Aperture macros list end*
%ADD10C,0.100000*%
%ADD11C,0.150000*%
%ADD12C,0.152400*%
%ADD13C,0.508000*%
%ADD14C,0.120000*%
%ADD15R,0.854800X0.862800*%
%ADD16R,1.327899X0.431000*%
%ADD17C,2.057400*%
%ADD18C,2.800000*%
%ADD19RoundRect,0.200000X-0.200000X-0.275000X0.200000X-0.275000X0.200000X0.275000X-0.200000X0.275000X0*%
%ADD20RoundRect,0.250000X-0.312500X-0.625000X0.312500X-0.625000X0.312500X0.625000X-0.312500X0.625000X0*%
%ADD21FreePoly0,0.000000*%
%ADD22FreePoly1,0.000000*%
%ADD23RoundRect,0.225000X-0.225000X-0.250000X0.225000X-0.250000X0.225000X0.250000X-0.225000X0.250000X0*%
%ADD24RoundRect,0.225000X0.225000X0.250000X-0.225000X0.250000X-0.225000X-0.250000X0.225000X-0.250000X0*%
%ADD25RoundRect,0.225000X-0.250000X0.225000X-0.250000X-0.225000X0.250000X-0.225000X0.250000X0.225000X0*%
%ADD26RoundRect,0.200000X0.200000X0.275000X-0.200000X0.275000X-0.200000X-0.275000X0.200000X-0.275000X0*%
%ADD27R,1.050000X0.450000*%
%ADD28R,3.400000X5.000000*%
%ADD29RoundRect,0.250000X-0.350000X-0.625000X0.350000X-0.625000X0.350000X0.625000X-0.350000X0.625000X0*%
%ADD30O,1.200000X1.750000*%
%ADD31R,1.700000X1.700000*%
%ADD32O,1.700000X1.700000*%
G04 APERTURE END LIST*
D10*
X61303884Y-100372419D02*
X61303884Y-99372419D01*
X61303884Y-99372419D02*
X61637217Y-100086704D01*
X61637217Y-100086704D02*
X61970550Y-99372419D01*
X61970550Y-99372419D02*
X61970550Y-100372419D01*
X62446741Y-100372419D02*
X62446741Y-99372419D01*
X62446741Y-99372419D02*
X62684836Y-99372419D01*
X62684836Y-99372419D02*
X62827693Y-99420038D01*
X62827693Y-99420038D02*
X62922931Y-99515276D01*
X62922931Y-99515276D02*
X62970550Y-99610514D01*
X62970550Y-99610514D02*
X63018169Y-99800990D01*
X63018169Y-99800990D02*
X63018169Y-99943847D01*
X63018169Y-99943847D02*
X62970550Y-100134323D01*
X62970550Y-100134323D02*
X62922931Y-100229561D01*
X62922931Y-100229561D02*
X62827693Y-100324800D01*
X62827693Y-100324800D02*
X62684836Y-100372419D01*
X62684836Y-100372419D02*
X62446741Y-100372419D01*
X63922931Y-100372419D02*
X63446741Y-100372419D01*
X63446741Y-100372419D02*
X63446741Y-99372419D01*
X64256265Y-100372419D02*
X64256265Y-99372419D01*
X64256265Y-99372419D02*
X64637217Y-99372419D01*
X64637217Y-99372419D02*
X64732455Y-99420038D01*
X64732455Y-99420038D02*
X64780074Y-99467657D01*
X64780074Y-99467657D02*
X64827693Y-99562895D01*
X64827693Y-99562895D02*
X64827693Y-99705752D01*
X64827693Y-99705752D02*
X64780074Y-99800990D01*
X64780074Y-99800990D02*
X64732455Y-99848609D01*
X64732455Y-99848609D02*
X64637217Y-99896228D01*
X64637217Y-99896228D02*
X64256265Y-99896228D01*
X65827693Y-100372419D02*
X65494360Y-99896228D01*
X65256265Y-100372419D02*
X65256265Y-99372419D01*
X65256265Y-99372419D02*
X65637217Y-99372419D01*
X65637217Y-99372419D02*
X65732455Y-99420038D01*
X65732455Y-99420038D02*
X65780074Y-99467657D01*
X65780074Y-99467657D02*
X65827693Y-99562895D01*
X65827693Y-99562895D02*
X65827693Y-99705752D01*
X65827693Y-99705752D02*
X65780074Y-99800990D01*
X65780074Y-99800990D02*
X65732455Y-99848609D01*
X65732455Y-99848609D02*
X65637217Y-99896228D01*
X65637217Y-99896228D02*
X65256265Y-99896228D01*
X66256265Y-100372419D02*
X66256265Y-99372419D01*
X66922931Y-99372419D02*
X67018169Y-99372419D01*
X67018169Y-99372419D02*
X67113407Y-99420038D01*
X67113407Y-99420038D02*
X67161026Y-99467657D01*
X67161026Y-99467657D02*
X67208645Y-99562895D01*
X67208645Y-99562895D02*
X67256264Y-99753371D01*
X67256264Y-99753371D02*
X67256264Y-99991466D01*
X67256264Y-99991466D02*
X67208645Y-100181942D01*
X67208645Y-100181942D02*
X67161026Y-100277180D01*
X67161026Y-100277180D02*
X67113407Y-100324800D01*
X67113407Y-100324800D02*
X67018169Y-100372419D01*
X67018169Y-100372419D02*
X66922931Y-100372419D01*
X66922931Y-100372419D02*
X66827693Y-100324800D01*
X66827693Y-100324800D02*
X66780074Y-100277180D01*
X66780074Y-100277180D02*
X66732455Y-100181942D01*
X66732455Y-100181942D02*
X66684836Y-99991466D01*
X66684836Y-99991466D02*
X66684836Y-99753371D01*
X66684836Y-99753371D02*
X66732455Y-99562895D01*
X66732455Y-99562895D02*
X66780074Y-99467657D01*
X66780074Y-99467657D02*
X66827693Y-99420038D01*
X66827693Y-99420038D02*
X66922931Y-99372419D01*
X68113407Y-99705752D02*
X68113407Y-100372419D01*
X67875312Y-99324800D02*
X67637217Y-100039085D01*
X67637217Y-100039085D02*
X68256264Y-100039085D01*
X68827693Y-99372419D02*
X68922931Y-99372419D01*
X68922931Y-99372419D02*
X69018169Y-99420038D01*
X69018169Y-99420038D02*
X69065788Y-99467657D01*
X69065788Y-99467657D02*
X69113407Y-99562895D01*
X69113407Y-99562895D02*
X69161026Y-99753371D01*
X69161026Y-99753371D02*
X69161026Y-99991466D01*
X69161026Y-99991466D02*
X69113407Y-100181942D01*
X69113407Y-100181942D02*
X69065788Y-100277180D01*
X69065788Y-100277180D02*
X69018169Y-100324800D01*
X69018169Y-100324800D02*
X68922931Y-100372419D01*
X68922931Y-100372419D02*
X68827693Y-100372419D01*
X68827693Y-100372419D02*
X68732455Y-100324800D01*
X68732455Y-100324800D02*
X68684836Y-100277180D01*
X68684836Y-100277180D02*
X68637217Y-100181942D01*
X68637217Y-100181942D02*
X68589598Y-99991466D01*
X68589598Y-99991466D02*
X68589598Y-99753371D01*
X68589598Y-99753371D02*
X68637217Y-99562895D01*
X68637217Y-99562895D02*
X68684836Y-99467657D01*
X68684836Y-99467657D02*
X68732455Y-99420038D01*
X68732455Y-99420038D02*
X68827693Y-99372419D01*
X76872419Y-129505639D02*
X76872419Y-129315163D01*
X76872419Y-129315163D02*
X76920038Y-129219925D01*
X76920038Y-129219925D02*
X77015276Y-129124687D01*
X77015276Y-129124687D02*
X77205752Y-129077068D01*
X77205752Y-129077068D02*
X77539085Y-129077068D01*
X77539085Y-129077068D02*
X77729561Y-129124687D01*
X77729561Y-129124687D02*
X77824800Y-129219925D01*
X77824800Y-129219925D02*
X77872419Y-129315163D01*
X77872419Y-129315163D02*
X77872419Y-129505639D01*
X77872419Y-129505639D02*
X77824800Y-129600877D01*
X77824800Y-129600877D02*
X77729561Y-129696115D01*
X77729561Y-129696115D02*
X77539085Y-129743734D01*
X77539085Y-129743734D02*
X77205752Y-129743734D01*
X77205752Y-129743734D02*
X77015276Y-129696115D01*
X77015276Y-129696115D02*
X76920038Y-129600877D01*
X76920038Y-129600877D02*
X76872419Y-129505639D01*
X77872419Y-128648496D02*
X76872419Y-128648496D01*
X76872419Y-128648496D02*
X77872419Y-128077068D01*
X77872419Y-128077068D02*
X76872419Y-128077068D01*
X93372419Y-129505639D02*
X93372419Y-129315163D01*
X93372419Y-129315163D02*
X93420038Y-129219925D01*
X93420038Y-129219925D02*
X93515276Y-129124687D01*
X93515276Y-129124687D02*
X93705752Y-129077068D01*
X93705752Y-129077068D02*
X94039085Y-129077068D01*
X94039085Y-129077068D02*
X94229561Y-129124687D01*
X94229561Y-129124687D02*
X94324800Y-129219925D01*
X94324800Y-129219925D02*
X94372419Y-129315163D01*
X94372419Y-129315163D02*
X94372419Y-129505639D01*
X94372419Y-129505639D02*
X94324800Y-129600877D01*
X94324800Y-129600877D02*
X94229561Y-129696115D01*
X94229561Y-129696115D02*
X94039085Y-129743734D01*
X94039085Y-129743734D02*
X93705752Y-129743734D01*
X93705752Y-129743734D02*
X93515276Y-129696115D01*
X93515276Y-129696115D02*
X93420038Y-129600877D01*
X93420038Y-129600877D02*
X93372419Y-129505639D01*
X93848609Y-128315163D02*
X93848609Y-128648496D01*
X94372419Y-128648496D02*
X93372419Y-128648496D01*
X93372419Y-128648496D02*
X93372419Y-128172306D01*
X93848609Y-127458020D02*
X93848609Y-127791353D01*
X94372419Y-127791353D02*
X93372419Y-127791353D01*
X93372419Y-127791353D02*
X93372419Y-127315163D01*
D11*
X56880952Y-128954819D02*
X56404762Y-128954819D01*
X56404762Y-128954819D02*
X56404762Y-127954819D01*
X57214286Y-128431009D02*
X57547619Y-128431009D01*
X57690476Y-128954819D02*
X57214286Y-128954819D01*
X57214286Y-128954819D02*
X57214286Y-127954819D01*
X57214286Y-127954819D02*
X57690476Y-127954819D01*
X58119048Y-128954819D02*
X58119048Y-127954819D01*
X58119048Y-127954819D02*
X58357143Y-127954819D01*
X58357143Y-127954819D02*
X58500000Y-128002438D01*
X58500000Y-128002438D02*
X58595238Y-128097676D01*
X58595238Y-128097676D02*
X58642857Y-128192914D01*
X58642857Y-128192914D02*
X58690476Y-128383390D01*
X58690476Y-128383390D02*
X58690476Y-128526247D01*
X58690476Y-128526247D02*
X58642857Y-128716723D01*
X58642857Y-128716723D02*
X58595238Y-128811961D01*
X58595238Y-128811961D02*
X58500000Y-128907200D01*
X58500000Y-128907200D02*
X58357143Y-128954819D01*
X58357143Y-128954819D02*
X58119048Y-128954819D01*
X59642857Y-128954819D02*
X59071429Y-128954819D01*
X59357143Y-128954819D02*
X59357143Y-127954819D01*
X59357143Y-127954819D02*
X59261905Y-128097676D01*
X59261905Y-128097676D02*
X59166667Y-128192914D01*
X59166667Y-128192914D02*
X59071429Y-128240533D01*
X57380952Y-122454819D02*
X56904762Y-122454819D01*
X56904762Y-122454819D02*
X56904762Y-121454819D01*
X57714286Y-121931009D02*
X58047619Y-121931009D01*
X58190476Y-122454819D02*
X57714286Y-122454819D01*
X57714286Y-122454819D02*
X57714286Y-121454819D01*
X57714286Y-121454819D02*
X58190476Y-121454819D01*
X58619048Y-122454819D02*
X58619048Y-121454819D01*
X58619048Y-121454819D02*
X58857143Y-121454819D01*
X58857143Y-121454819D02*
X59000000Y-121502438D01*
X59000000Y-121502438D02*
X59095238Y-121597676D01*
X59095238Y-121597676D02*
X59142857Y-121692914D01*
X59142857Y-121692914D02*
X59190476Y-121883390D01*
X59190476Y-121883390D02*
X59190476Y-122026247D01*
X59190476Y-122026247D02*
X59142857Y-122216723D01*
X59142857Y-122216723D02*
X59095238Y-122311961D01*
X59095238Y-122311961D02*
X59000000Y-122407200D01*
X59000000Y-122407200D02*
X58857143Y-122454819D01*
X58857143Y-122454819D02*
X58619048Y-122454819D01*
X59571429Y-121550057D02*
X59619048Y-121502438D01*
X59619048Y-121502438D02*
X59714286Y-121454819D01*
X59714286Y-121454819D02*
X59952381Y-121454819D01*
X59952381Y-121454819D02*
X60047619Y-121502438D01*
X60047619Y-121502438D02*
X60095238Y-121550057D01*
X60095238Y-121550057D02*
X60142857Y-121645295D01*
X60142857Y-121645295D02*
X60142857Y-121740533D01*
X60142857Y-121740533D02*
X60095238Y-121883390D01*
X60095238Y-121883390D02*
X59523810Y-122454819D01*
X59523810Y-122454819D02*
X60142857Y-122454819D01*
X49238095Y-123954819D02*
X49238095Y-124764342D01*
X49238095Y-124764342D02*
X49285714Y-124859580D01*
X49285714Y-124859580D02*
X49333333Y-124907200D01*
X49333333Y-124907200D02*
X49428571Y-124954819D01*
X49428571Y-124954819D02*
X49619047Y-124954819D01*
X49619047Y-124954819D02*
X49714285Y-124907200D01*
X49714285Y-124907200D02*
X49761904Y-124859580D01*
X49761904Y-124859580D02*
X49809523Y-124764342D01*
X49809523Y-124764342D02*
X49809523Y-123954819D01*
X50809523Y-124954819D02*
X50238095Y-124954819D01*
X50523809Y-124954819D02*
X50523809Y-123954819D01*
X50523809Y-123954819D02*
X50428571Y-124097676D01*
X50428571Y-124097676D02*
X50333333Y-124192914D01*
X50333333Y-124192914D02*
X50238095Y-124240533D01*
X90666667Y-122907200D02*
X90809524Y-122954819D01*
X90809524Y-122954819D02*
X91047619Y-122954819D01*
X91047619Y-122954819D02*
X91142857Y-122907200D01*
X91142857Y-122907200D02*
X91190476Y-122859580D01*
X91190476Y-122859580D02*
X91238095Y-122764342D01*
X91238095Y-122764342D02*
X91238095Y-122669104D01*
X91238095Y-122669104D02*
X91190476Y-122573866D01*
X91190476Y-122573866D02*
X91142857Y-122526247D01*
X91142857Y-122526247D02*
X91047619Y-122478628D01*
X91047619Y-122478628D02*
X90857143Y-122431009D01*
X90857143Y-122431009D02*
X90761905Y-122383390D01*
X90761905Y-122383390D02*
X90714286Y-122335771D01*
X90714286Y-122335771D02*
X90666667Y-122240533D01*
X90666667Y-122240533D02*
X90666667Y-122145295D01*
X90666667Y-122145295D02*
X90714286Y-122050057D01*
X90714286Y-122050057D02*
X90761905Y-122002438D01*
X90761905Y-122002438D02*
X90857143Y-121954819D01*
X90857143Y-121954819D02*
X91095238Y-121954819D01*
X91095238Y-121954819D02*
X91238095Y-122002438D01*
X91571429Y-121954819D02*
X91809524Y-122954819D01*
X91809524Y-122954819D02*
X92000000Y-122240533D01*
X92000000Y-122240533D02*
X92190476Y-122954819D01*
X92190476Y-122954819D02*
X92428572Y-121954819D01*
X93333333Y-122954819D02*
X92761905Y-122954819D01*
X93047619Y-122954819D02*
X93047619Y-121954819D01*
X93047619Y-121954819D02*
X92952381Y-122097676D01*
X92952381Y-122097676D02*
X92857143Y-122192914D01*
X92857143Y-122192914D02*
X92761905Y-122240533D01*
X68738095Y-117454819D02*
X69309523Y-117454819D01*
X69023809Y-118454819D02*
X69023809Y-117454819D01*
X69642857Y-118454819D02*
X69642857Y-117454819D01*
X69642857Y-117454819D02*
X70023809Y-117454819D01*
X70023809Y-117454819D02*
X70119047Y-117502438D01*
X70119047Y-117502438D02*
X70166666Y-117550057D01*
X70166666Y-117550057D02*
X70214285Y-117645295D01*
X70214285Y-117645295D02*
X70214285Y-117788152D01*
X70214285Y-117788152D02*
X70166666Y-117883390D01*
X70166666Y-117883390D02*
X70119047Y-117931009D01*
X70119047Y-117931009D02*
X70023809Y-117978628D01*
X70023809Y-117978628D02*
X69642857Y-117978628D01*
X70547619Y-117454819D02*
X71214285Y-117454819D01*
X71214285Y-117454819D02*
X70785714Y-118454819D01*
X42158333Y-121024819D02*
X41825000Y-120548628D01*
X41586905Y-121024819D02*
X41586905Y-120024819D01*
X41586905Y-120024819D02*
X41967857Y-120024819D01*
X41967857Y-120024819D02*
X42063095Y-120072438D01*
X42063095Y-120072438D02*
X42110714Y-120120057D01*
X42110714Y-120120057D02*
X42158333Y-120215295D01*
X42158333Y-120215295D02*
X42158333Y-120358152D01*
X42158333Y-120358152D02*
X42110714Y-120453390D01*
X42110714Y-120453390D02*
X42063095Y-120501009D01*
X42063095Y-120501009D02*
X41967857Y-120548628D01*
X41967857Y-120548628D02*
X41586905Y-120548628D01*
X43015476Y-120358152D02*
X43015476Y-121024819D01*
X42777381Y-119977200D02*
X42539286Y-120691485D01*
X42539286Y-120691485D02*
X43158333Y-120691485D01*
X49370833Y-111634819D02*
X49037500Y-111158628D01*
X48799405Y-111634819D02*
X48799405Y-110634819D01*
X48799405Y-110634819D02*
X49180357Y-110634819D01*
X49180357Y-110634819D02*
X49275595Y-110682438D01*
X49275595Y-110682438D02*
X49323214Y-110730057D01*
X49323214Y-110730057D02*
X49370833Y-110825295D01*
X49370833Y-110825295D02*
X49370833Y-110968152D01*
X49370833Y-110968152D02*
X49323214Y-111063390D01*
X49323214Y-111063390D02*
X49275595Y-111111009D01*
X49275595Y-111111009D02*
X49180357Y-111158628D01*
X49180357Y-111158628D02*
X48799405Y-111158628D01*
X49704167Y-110634819D02*
X50323214Y-110634819D01*
X50323214Y-110634819D02*
X49989881Y-111015771D01*
X49989881Y-111015771D02*
X50132738Y-111015771D01*
X50132738Y-111015771D02*
X50227976Y-111063390D01*
X50227976Y-111063390D02*
X50275595Y-111111009D01*
X50275595Y-111111009D02*
X50323214Y-111206247D01*
X50323214Y-111206247D02*
X50323214Y-111444342D01*
X50323214Y-111444342D02*
X50275595Y-111539580D01*
X50275595Y-111539580D02*
X50227976Y-111587200D01*
X50227976Y-111587200D02*
X50132738Y-111634819D01*
X50132738Y-111634819D02*
X49847024Y-111634819D01*
X49847024Y-111634819D02*
X49751786Y-111587200D01*
X49751786Y-111587200D02*
X49704167Y-111539580D01*
X53658333Y-128524819D02*
X53325000Y-128048628D01*
X53086905Y-128524819D02*
X53086905Y-127524819D01*
X53086905Y-127524819D02*
X53467857Y-127524819D01*
X53467857Y-127524819D02*
X53563095Y-127572438D01*
X53563095Y-127572438D02*
X53610714Y-127620057D01*
X53610714Y-127620057D02*
X53658333Y-127715295D01*
X53658333Y-127715295D02*
X53658333Y-127858152D01*
X53658333Y-127858152D02*
X53610714Y-127953390D01*
X53610714Y-127953390D02*
X53563095Y-128001009D01*
X53563095Y-128001009D02*
X53467857Y-128048628D01*
X53467857Y-128048628D02*
X53086905Y-128048628D01*
X54515476Y-127524819D02*
X54325000Y-127524819D01*
X54325000Y-127524819D02*
X54229762Y-127572438D01*
X54229762Y-127572438D02*
X54182143Y-127620057D01*
X54182143Y-127620057D02*
X54086905Y-127762914D01*
X54086905Y-127762914D02*
X54039286Y-127953390D01*
X54039286Y-127953390D02*
X54039286Y-128334342D01*
X54039286Y-128334342D02*
X54086905Y-128429580D01*
X54086905Y-128429580D02*
X54134524Y-128477200D01*
X54134524Y-128477200D02*
X54229762Y-128524819D01*
X54229762Y-128524819D02*
X54420238Y-128524819D01*
X54420238Y-128524819D02*
X54515476Y-128477200D01*
X54515476Y-128477200D02*
X54563095Y-128429580D01*
X54563095Y-128429580D02*
X54610714Y-128334342D01*
X54610714Y-128334342D02*
X54610714Y-128096247D01*
X54610714Y-128096247D02*
X54563095Y-128001009D01*
X54563095Y-128001009D02*
X54515476Y-127953390D01*
X54515476Y-127953390D02*
X54420238Y-127905771D01*
X54420238Y-127905771D02*
X54229762Y-127905771D01*
X54229762Y-127905771D02*
X54134524Y-127953390D01*
X54134524Y-127953390D02*
X54086905Y-128001009D01*
X54086905Y-128001009D02*
X54039286Y-128096247D01*
X61238095Y-112454819D02*
X61809523Y-112454819D01*
X61523809Y-113454819D02*
X61523809Y-112454819D01*
X62142857Y-113454819D02*
X62142857Y-112454819D01*
X62142857Y-112454819D02*
X62523809Y-112454819D01*
X62523809Y-112454819D02*
X62619047Y-112502438D01*
X62619047Y-112502438D02*
X62666666Y-112550057D01*
X62666666Y-112550057D02*
X62714285Y-112645295D01*
X62714285Y-112645295D02*
X62714285Y-112788152D01*
X62714285Y-112788152D02*
X62666666Y-112883390D01*
X62666666Y-112883390D02*
X62619047Y-112931009D01*
X62619047Y-112931009D02*
X62523809Y-112978628D01*
X62523809Y-112978628D02*
X62142857Y-112978628D01*
X63571428Y-112454819D02*
X63380952Y-112454819D01*
X63380952Y-112454819D02*
X63285714Y-112502438D01*
X63285714Y-112502438D02*
X63238095Y-112550057D01*
X63238095Y-112550057D02*
X63142857Y-112692914D01*
X63142857Y-112692914D02*
X63095238Y-112883390D01*
X63095238Y-112883390D02*
X63095238Y-113264342D01*
X63095238Y-113264342D02*
X63142857Y-113359580D01*
X63142857Y-113359580D02*
X63190476Y-113407200D01*
X63190476Y-113407200D02*
X63285714Y-113454819D01*
X63285714Y-113454819D02*
X63476190Y-113454819D01*
X63476190Y-113454819D02*
X63571428Y-113407200D01*
X63571428Y-113407200D02*
X63619047Y-113359580D01*
X63619047Y-113359580D02*
X63666666Y-113264342D01*
X63666666Y-113264342D02*
X63666666Y-113026247D01*
X63666666Y-113026247D02*
X63619047Y-112931009D01*
X63619047Y-112931009D02*
X63571428Y-112883390D01*
X63571428Y-112883390D02*
X63476190Y-112835771D01*
X63476190Y-112835771D02*
X63285714Y-112835771D01*
X63285714Y-112835771D02*
X63190476Y-112883390D01*
X63190476Y-112883390D02*
X63142857Y-112931009D01*
X63142857Y-112931009D02*
X63095238Y-113026247D01*
X42870833Y-115634819D02*
X42537500Y-115158628D01*
X42299405Y-115634819D02*
X42299405Y-114634819D01*
X42299405Y-114634819D02*
X42680357Y-114634819D01*
X42680357Y-114634819D02*
X42775595Y-114682438D01*
X42775595Y-114682438D02*
X42823214Y-114730057D01*
X42823214Y-114730057D02*
X42870833Y-114825295D01*
X42870833Y-114825295D02*
X42870833Y-114968152D01*
X42870833Y-114968152D02*
X42823214Y-115063390D01*
X42823214Y-115063390D02*
X42775595Y-115111009D01*
X42775595Y-115111009D02*
X42680357Y-115158628D01*
X42680357Y-115158628D02*
X42299405Y-115158628D01*
X43347024Y-115634819D02*
X43537500Y-115634819D01*
X43537500Y-115634819D02*
X43632738Y-115587200D01*
X43632738Y-115587200D02*
X43680357Y-115539580D01*
X43680357Y-115539580D02*
X43775595Y-115396723D01*
X43775595Y-115396723D02*
X43823214Y-115206247D01*
X43823214Y-115206247D02*
X43823214Y-114825295D01*
X43823214Y-114825295D02*
X43775595Y-114730057D01*
X43775595Y-114730057D02*
X43727976Y-114682438D01*
X43727976Y-114682438D02*
X43632738Y-114634819D01*
X43632738Y-114634819D02*
X43442262Y-114634819D01*
X43442262Y-114634819D02*
X43347024Y-114682438D01*
X43347024Y-114682438D02*
X43299405Y-114730057D01*
X43299405Y-114730057D02*
X43251786Y-114825295D01*
X43251786Y-114825295D02*
X43251786Y-115063390D01*
X43251786Y-115063390D02*
X43299405Y-115158628D01*
X43299405Y-115158628D02*
X43347024Y-115206247D01*
X43347024Y-115206247D02*
X43442262Y-115253866D01*
X43442262Y-115253866D02*
X43632738Y-115253866D01*
X43632738Y-115253866D02*
X43727976Y-115206247D01*
X43727976Y-115206247D02*
X43775595Y-115158628D01*
X43775595Y-115158628D02*
X43823214Y-115063390D01*
X36991666Y-123654819D02*
X36991666Y-124369104D01*
X36991666Y-124369104D02*
X36944047Y-124511961D01*
X36944047Y-124511961D02*
X36848809Y-124607200D01*
X36848809Y-124607200D02*
X36705952Y-124654819D01*
X36705952Y-124654819D02*
X36610714Y-124654819D01*
X37467857Y-124654819D02*
X37467857Y-123654819D01*
X37467857Y-123654819D02*
X37848809Y-123654819D01*
X37848809Y-123654819D02*
X37944047Y-123702438D01*
X37944047Y-123702438D02*
X37991666Y-123750057D01*
X37991666Y-123750057D02*
X38039285Y-123845295D01*
X38039285Y-123845295D02*
X38039285Y-123988152D01*
X38039285Y-123988152D02*
X37991666Y-124083390D01*
X37991666Y-124083390D02*
X37944047Y-124131009D01*
X37944047Y-124131009D02*
X37848809Y-124178628D01*
X37848809Y-124178628D02*
X37467857Y-124178628D01*
X38896428Y-123988152D02*
X38896428Y-124654819D01*
X38658333Y-123607200D02*
X38420238Y-124321485D01*
X38420238Y-124321485D02*
X39039285Y-124321485D01*
X68738095Y-122454819D02*
X69309523Y-122454819D01*
X69023809Y-123454819D02*
X69023809Y-122454819D01*
X69642857Y-123454819D02*
X69642857Y-122454819D01*
X69642857Y-122454819D02*
X70023809Y-122454819D01*
X70023809Y-122454819D02*
X70119047Y-122502438D01*
X70119047Y-122502438D02*
X70166666Y-122550057D01*
X70166666Y-122550057D02*
X70214285Y-122645295D01*
X70214285Y-122645295D02*
X70214285Y-122788152D01*
X70214285Y-122788152D02*
X70166666Y-122883390D01*
X70166666Y-122883390D02*
X70119047Y-122931009D01*
X70119047Y-122931009D02*
X70023809Y-122978628D01*
X70023809Y-122978628D02*
X69642857Y-122978628D01*
X70785714Y-122883390D02*
X70690476Y-122835771D01*
X70690476Y-122835771D02*
X70642857Y-122788152D01*
X70642857Y-122788152D02*
X70595238Y-122692914D01*
X70595238Y-122692914D02*
X70595238Y-122645295D01*
X70595238Y-122645295D02*
X70642857Y-122550057D01*
X70642857Y-122550057D02*
X70690476Y-122502438D01*
X70690476Y-122502438D02*
X70785714Y-122454819D01*
X70785714Y-122454819D02*
X70976190Y-122454819D01*
X70976190Y-122454819D02*
X71071428Y-122502438D01*
X71071428Y-122502438D02*
X71119047Y-122550057D01*
X71119047Y-122550057D02*
X71166666Y-122645295D01*
X71166666Y-122645295D02*
X71166666Y-122692914D01*
X71166666Y-122692914D02*
X71119047Y-122788152D01*
X71119047Y-122788152D02*
X71071428Y-122835771D01*
X71071428Y-122835771D02*
X70976190Y-122883390D01*
X70976190Y-122883390D02*
X70785714Y-122883390D01*
X70785714Y-122883390D02*
X70690476Y-122931009D01*
X70690476Y-122931009D02*
X70642857Y-122978628D01*
X70642857Y-122978628D02*
X70595238Y-123073866D01*
X70595238Y-123073866D02*
X70595238Y-123264342D01*
X70595238Y-123264342D02*
X70642857Y-123359580D01*
X70642857Y-123359580D02*
X70690476Y-123407200D01*
X70690476Y-123407200D02*
X70785714Y-123454819D01*
X70785714Y-123454819D02*
X70976190Y-123454819D01*
X70976190Y-123454819D02*
X71071428Y-123407200D01*
X71071428Y-123407200D02*
X71119047Y-123359580D01*
X71119047Y-123359580D02*
X71166666Y-123264342D01*
X71166666Y-123264342D02*
X71166666Y-123073866D01*
X71166666Y-123073866D02*
X71119047Y-122978628D01*
X71119047Y-122978628D02*
X71071428Y-122931009D01*
X71071428Y-122931009D02*
X70976190Y-122883390D01*
X71833333Y-109359580D02*
X71785714Y-109407200D01*
X71785714Y-109407200D02*
X71642857Y-109454819D01*
X71642857Y-109454819D02*
X71547619Y-109454819D01*
X71547619Y-109454819D02*
X71404762Y-109407200D01*
X71404762Y-109407200D02*
X71309524Y-109311961D01*
X71309524Y-109311961D02*
X71261905Y-109216723D01*
X71261905Y-109216723D02*
X71214286Y-109026247D01*
X71214286Y-109026247D02*
X71214286Y-108883390D01*
X71214286Y-108883390D02*
X71261905Y-108692914D01*
X71261905Y-108692914D02*
X71309524Y-108597676D01*
X71309524Y-108597676D02*
X71404762Y-108502438D01*
X71404762Y-108502438D02*
X71547619Y-108454819D01*
X71547619Y-108454819D02*
X71642857Y-108454819D01*
X71642857Y-108454819D02*
X71785714Y-108502438D01*
X71785714Y-108502438D02*
X71833333Y-108550057D01*
X72785714Y-109454819D02*
X72214286Y-109454819D01*
X72500000Y-109454819D02*
X72500000Y-108454819D01*
X72500000Y-108454819D02*
X72404762Y-108597676D01*
X72404762Y-108597676D02*
X72309524Y-108692914D01*
X72309524Y-108692914D02*
X72214286Y-108740533D01*
X91833333Y-118859580D02*
X91785714Y-118907200D01*
X91785714Y-118907200D02*
X91642857Y-118954819D01*
X91642857Y-118954819D02*
X91547619Y-118954819D01*
X91547619Y-118954819D02*
X91404762Y-118907200D01*
X91404762Y-118907200D02*
X91309524Y-118811961D01*
X91309524Y-118811961D02*
X91261905Y-118716723D01*
X91261905Y-118716723D02*
X91214286Y-118526247D01*
X91214286Y-118526247D02*
X91214286Y-118383390D01*
X91214286Y-118383390D02*
X91261905Y-118192914D01*
X91261905Y-118192914D02*
X91309524Y-118097676D01*
X91309524Y-118097676D02*
X91404762Y-118002438D01*
X91404762Y-118002438D02*
X91547619Y-117954819D01*
X91547619Y-117954819D02*
X91642857Y-117954819D01*
X91642857Y-117954819D02*
X91785714Y-118002438D01*
X91785714Y-118002438D02*
X91833333Y-118050057D01*
X92690476Y-118288152D02*
X92690476Y-118954819D01*
X92452381Y-117907200D02*
X92214286Y-118621485D01*
X92214286Y-118621485D02*
X92833333Y-118621485D01*
X53738095Y-117454819D02*
X54309523Y-117454819D01*
X54023809Y-118454819D02*
X54023809Y-117454819D01*
X54642857Y-118454819D02*
X54642857Y-117454819D01*
X54642857Y-117454819D02*
X55023809Y-117454819D01*
X55023809Y-117454819D02*
X55119047Y-117502438D01*
X55119047Y-117502438D02*
X55166666Y-117550057D01*
X55166666Y-117550057D02*
X55214285Y-117645295D01*
X55214285Y-117645295D02*
X55214285Y-117788152D01*
X55214285Y-117788152D02*
X55166666Y-117883390D01*
X55166666Y-117883390D02*
X55119047Y-117931009D01*
X55119047Y-117931009D02*
X55023809Y-117978628D01*
X55023809Y-117978628D02*
X54642857Y-117978628D01*
X56071428Y-117788152D02*
X56071428Y-118454819D01*
X55833333Y-117407200D02*
X55595238Y-118121485D01*
X55595238Y-118121485D02*
X56214285Y-118121485D01*
X49058333Y-130789580D02*
X49010714Y-130837200D01*
X49010714Y-130837200D02*
X48867857Y-130884819D01*
X48867857Y-130884819D02*
X48772619Y-130884819D01*
X48772619Y-130884819D02*
X48629762Y-130837200D01*
X48629762Y-130837200D02*
X48534524Y-130741961D01*
X48534524Y-130741961D02*
X48486905Y-130646723D01*
X48486905Y-130646723D02*
X48439286Y-130456247D01*
X48439286Y-130456247D02*
X48439286Y-130313390D01*
X48439286Y-130313390D02*
X48486905Y-130122914D01*
X48486905Y-130122914D02*
X48534524Y-130027676D01*
X48534524Y-130027676D02*
X48629762Y-129932438D01*
X48629762Y-129932438D02*
X48772619Y-129884819D01*
X48772619Y-129884819D02*
X48867857Y-129884819D01*
X48867857Y-129884819D02*
X49010714Y-129932438D01*
X49010714Y-129932438D02*
X49058333Y-129980057D01*
X49439286Y-129980057D02*
X49486905Y-129932438D01*
X49486905Y-129932438D02*
X49582143Y-129884819D01*
X49582143Y-129884819D02*
X49820238Y-129884819D01*
X49820238Y-129884819D02*
X49915476Y-129932438D01*
X49915476Y-129932438D02*
X49963095Y-129980057D01*
X49963095Y-129980057D02*
X50010714Y-130075295D01*
X50010714Y-130075295D02*
X50010714Y-130170533D01*
X50010714Y-130170533D02*
X49963095Y-130313390D01*
X49963095Y-130313390D02*
X49391667Y-130884819D01*
X49391667Y-130884819D02*
X50010714Y-130884819D01*
X61238095Y-117454819D02*
X61809523Y-117454819D01*
X61523809Y-118454819D02*
X61523809Y-117454819D01*
X62142857Y-118454819D02*
X62142857Y-117454819D01*
X62142857Y-117454819D02*
X62523809Y-117454819D01*
X62523809Y-117454819D02*
X62619047Y-117502438D01*
X62619047Y-117502438D02*
X62666666Y-117550057D01*
X62666666Y-117550057D02*
X62714285Y-117645295D01*
X62714285Y-117645295D02*
X62714285Y-117788152D01*
X62714285Y-117788152D02*
X62666666Y-117883390D01*
X62666666Y-117883390D02*
X62619047Y-117931009D01*
X62619047Y-117931009D02*
X62523809Y-117978628D01*
X62523809Y-117978628D02*
X62142857Y-117978628D01*
X63666666Y-118454819D02*
X63095238Y-118454819D01*
X63380952Y-118454819D02*
X63380952Y-117454819D01*
X63380952Y-117454819D02*
X63285714Y-117597676D01*
X63285714Y-117597676D02*
X63190476Y-117692914D01*
X63190476Y-117692914D02*
X63095238Y-117740533D01*
X53738095Y-112454819D02*
X54309523Y-112454819D01*
X54023809Y-113454819D02*
X54023809Y-112454819D01*
X54642857Y-113454819D02*
X54642857Y-112454819D01*
X54642857Y-112454819D02*
X55023809Y-112454819D01*
X55023809Y-112454819D02*
X55119047Y-112502438D01*
X55119047Y-112502438D02*
X55166666Y-112550057D01*
X55166666Y-112550057D02*
X55214285Y-112645295D01*
X55214285Y-112645295D02*
X55214285Y-112788152D01*
X55214285Y-112788152D02*
X55166666Y-112883390D01*
X55166666Y-112883390D02*
X55119047Y-112931009D01*
X55119047Y-112931009D02*
X55023809Y-112978628D01*
X55023809Y-112978628D02*
X54642857Y-112978628D01*
X55547619Y-112454819D02*
X56166666Y-112454819D01*
X56166666Y-112454819D02*
X55833333Y-112835771D01*
X55833333Y-112835771D02*
X55976190Y-112835771D01*
X55976190Y-112835771D02*
X56071428Y-112883390D01*
X56071428Y-112883390D02*
X56119047Y-112931009D01*
X56119047Y-112931009D02*
X56166666Y-113026247D01*
X56166666Y-113026247D02*
X56166666Y-113264342D01*
X56166666Y-113264342D02*
X56119047Y-113359580D01*
X56119047Y-113359580D02*
X56071428Y-113407200D01*
X56071428Y-113407200D02*
X55976190Y-113454819D01*
X55976190Y-113454819D02*
X55690476Y-113454819D01*
X55690476Y-113454819D02*
X55595238Y-113407200D01*
X55595238Y-113407200D02*
X55547619Y-113359580D01*
X68738095Y-112454819D02*
X69309523Y-112454819D01*
X69023809Y-113454819D02*
X69023809Y-112454819D01*
X69642857Y-113454819D02*
X69642857Y-112454819D01*
X69642857Y-112454819D02*
X70023809Y-112454819D01*
X70023809Y-112454819D02*
X70119047Y-112502438D01*
X70119047Y-112502438D02*
X70166666Y-112550057D01*
X70166666Y-112550057D02*
X70214285Y-112645295D01*
X70214285Y-112645295D02*
X70214285Y-112788152D01*
X70214285Y-112788152D02*
X70166666Y-112883390D01*
X70166666Y-112883390D02*
X70119047Y-112931009D01*
X70119047Y-112931009D02*
X70023809Y-112978628D01*
X70023809Y-112978628D02*
X69642857Y-112978628D01*
X71119047Y-112454819D02*
X70642857Y-112454819D01*
X70642857Y-112454819D02*
X70595238Y-112931009D01*
X70595238Y-112931009D02*
X70642857Y-112883390D01*
X70642857Y-112883390D02*
X70738095Y-112835771D01*
X70738095Y-112835771D02*
X70976190Y-112835771D01*
X70976190Y-112835771D02*
X71071428Y-112883390D01*
X71071428Y-112883390D02*
X71119047Y-112931009D01*
X71119047Y-112931009D02*
X71166666Y-113026247D01*
X71166666Y-113026247D02*
X71166666Y-113264342D01*
X71166666Y-113264342D02*
X71119047Y-113359580D01*
X71119047Y-113359580D02*
X71071428Y-113407200D01*
X71071428Y-113407200D02*
X70976190Y-113454819D01*
X70976190Y-113454819D02*
X70738095Y-113454819D01*
X70738095Y-113454819D02*
X70642857Y-113407200D01*
X70642857Y-113407200D02*
X70595238Y-113359580D01*
X94289580Y-115666666D02*
X94337200Y-115714285D01*
X94337200Y-115714285D02*
X94384819Y-115857142D01*
X94384819Y-115857142D02*
X94384819Y-115952380D01*
X94384819Y-115952380D02*
X94337200Y-116095237D01*
X94337200Y-116095237D02*
X94241961Y-116190475D01*
X94241961Y-116190475D02*
X94146723Y-116238094D01*
X94146723Y-116238094D02*
X93956247Y-116285713D01*
X93956247Y-116285713D02*
X93813390Y-116285713D01*
X93813390Y-116285713D02*
X93622914Y-116238094D01*
X93622914Y-116238094D02*
X93527676Y-116190475D01*
X93527676Y-116190475D02*
X93432438Y-116095237D01*
X93432438Y-116095237D02*
X93384819Y-115952380D01*
X93384819Y-115952380D02*
X93384819Y-115857142D01*
X93384819Y-115857142D02*
X93432438Y-115714285D01*
X93432438Y-115714285D02*
X93480057Y-115666666D01*
X93384819Y-114761904D02*
X93384819Y-115238094D01*
X93384819Y-115238094D02*
X93861009Y-115285713D01*
X93861009Y-115285713D02*
X93813390Y-115238094D01*
X93813390Y-115238094D02*
X93765771Y-115142856D01*
X93765771Y-115142856D02*
X93765771Y-114904761D01*
X93765771Y-114904761D02*
X93813390Y-114809523D01*
X93813390Y-114809523D02*
X93861009Y-114761904D01*
X93861009Y-114761904D02*
X93956247Y-114714285D01*
X93956247Y-114714285D02*
X94194342Y-114714285D01*
X94194342Y-114714285D02*
X94289580Y-114761904D01*
X94289580Y-114761904D02*
X94337200Y-114809523D01*
X94337200Y-114809523D02*
X94384819Y-114904761D01*
X94384819Y-114904761D02*
X94384819Y-115142856D01*
X94384819Y-115142856D02*
X94337200Y-115238094D01*
X94337200Y-115238094D02*
X94289580Y-115285713D01*
X92558333Y-111429580D02*
X92510714Y-111477200D01*
X92510714Y-111477200D02*
X92367857Y-111524819D01*
X92367857Y-111524819D02*
X92272619Y-111524819D01*
X92272619Y-111524819D02*
X92129762Y-111477200D01*
X92129762Y-111477200D02*
X92034524Y-111381961D01*
X92034524Y-111381961D02*
X91986905Y-111286723D01*
X91986905Y-111286723D02*
X91939286Y-111096247D01*
X91939286Y-111096247D02*
X91939286Y-110953390D01*
X91939286Y-110953390D02*
X91986905Y-110762914D01*
X91986905Y-110762914D02*
X92034524Y-110667676D01*
X92034524Y-110667676D02*
X92129762Y-110572438D01*
X92129762Y-110572438D02*
X92272619Y-110524819D01*
X92272619Y-110524819D02*
X92367857Y-110524819D01*
X92367857Y-110524819D02*
X92510714Y-110572438D01*
X92510714Y-110572438D02*
X92558333Y-110620057D01*
X92891667Y-110524819D02*
X93510714Y-110524819D01*
X93510714Y-110524819D02*
X93177381Y-110905771D01*
X93177381Y-110905771D02*
X93320238Y-110905771D01*
X93320238Y-110905771D02*
X93415476Y-110953390D01*
X93415476Y-110953390D02*
X93463095Y-111001009D01*
X93463095Y-111001009D02*
X93510714Y-111096247D01*
X93510714Y-111096247D02*
X93510714Y-111334342D01*
X93510714Y-111334342D02*
X93463095Y-111429580D01*
X93463095Y-111429580D02*
X93415476Y-111477200D01*
X93415476Y-111477200D02*
X93320238Y-111524819D01*
X93320238Y-111524819D02*
X93034524Y-111524819D01*
X93034524Y-111524819D02*
X92939286Y-111477200D01*
X92939286Y-111477200D02*
X92891667Y-111429580D01*
X86761905Y-120454819D02*
X87333333Y-120454819D01*
X87047619Y-121454819D02*
X87047619Y-120454819D01*
X87666667Y-121454819D02*
X87666667Y-120454819D01*
X87666667Y-120454819D02*
X88047619Y-120454819D01*
X88047619Y-120454819D02*
X88142857Y-120502438D01*
X88142857Y-120502438D02*
X88190476Y-120550057D01*
X88190476Y-120550057D02*
X88238095Y-120645295D01*
X88238095Y-120645295D02*
X88238095Y-120788152D01*
X88238095Y-120788152D02*
X88190476Y-120883390D01*
X88190476Y-120883390D02*
X88142857Y-120931009D01*
X88142857Y-120931009D02*
X88047619Y-120978628D01*
X88047619Y-120978628D02*
X87666667Y-120978628D01*
X89190476Y-121454819D02*
X88619048Y-121454819D01*
X88904762Y-121454819D02*
X88904762Y-120454819D01*
X88904762Y-120454819D02*
X88809524Y-120597676D01*
X88809524Y-120597676D02*
X88714286Y-120692914D01*
X88714286Y-120692914D02*
X88619048Y-120740533D01*
X90142857Y-121454819D02*
X89571429Y-121454819D01*
X89857143Y-121454819D02*
X89857143Y-120454819D01*
X89857143Y-120454819D02*
X89761905Y-120597676D01*
X89761905Y-120597676D02*
X89666667Y-120692914D01*
X89666667Y-120692914D02*
X89571429Y-120740533D01*
X36991666Y-119654819D02*
X36991666Y-120369104D01*
X36991666Y-120369104D02*
X36944047Y-120511961D01*
X36944047Y-120511961D02*
X36848809Y-120607200D01*
X36848809Y-120607200D02*
X36705952Y-120654819D01*
X36705952Y-120654819D02*
X36610714Y-120654819D01*
X37467857Y-120654819D02*
X37467857Y-119654819D01*
X37467857Y-119654819D02*
X37848809Y-119654819D01*
X37848809Y-119654819D02*
X37944047Y-119702438D01*
X37944047Y-119702438D02*
X37991666Y-119750057D01*
X37991666Y-119750057D02*
X38039285Y-119845295D01*
X38039285Y-119845295D02*
X38039285Y-119988152D01*
X38039285Y-119988152D02*
X37991666Y-120083390D01*
X37991666Y-120083390D02*
X37944047Y-120131009D01*
X37944047Y-120131009D02*
X37848809Y-120178628D01*
X37848809Y-120178628D02*
X37467857Y-120178628D01*
X38372619Y-119654819D02*
X38991666Y-119654819D01*
X38991666Y-119654819D02*
X38658333Y-120035771D01*
X38658333Y-120035771D02*
X38801190Y-120035771D01*
X38801190Y-120035771D02*
X38896428Y-120083390D01*
X38896428Y-120083390D02*
X38944047Y-120131009D01*
X38944047Y-120131009D02*
X38991666Y-120226247D01*
X38991666Y-120226247D02*
X38991666Y-120464342D01*
X38991666Y-120464342D02*
X38944047Y-120559580D01*
X38944047Y-120559580D02*
X38896428Y-120607200D01*
X38896428Y-120607200D02*
X38801190Y-120654819D01*
X38801190Y-120654819D02*
X38515476Y-120654819D01*
X38515476Y-120654819D02*
X38420238Y-120607200D01*
X38420238Y-120607200D02*
X38372619Y-120559580D01*
X75761905Y-112454819D02*
X76333333Y-112454819D01*
X76047619Y-113454819D02*
X76047619Y-112454819D01*
X76666667Y-113454819D02*
X76666667Y-112454819D01*
X76666667Y-112454819D02*
X77047619Y-112454819D01*
X77047619Y-112454819D02*
X77142857Y-112502438D01*
X77142857Y-112502438D02*
X77190476Y-112550057D01*
X77190476Y-112550057D02*
X77238095Y-112645295D01*
X77238095Y-112645295D02*
X77238095Y-112788152D01*
X77238095Y-112788152D02*
X77190476Y-112883390D01*
X77190476Y-112883390D02*
X77142857Y-112931009D01*
X77142857Y-112931009D02*
X77047619Y-112978628D01*
X77047619Y-112978628D02*
X76666667Y-112978628D01*
X78190476Y-113454819D02*
X77619048Y-113454819D01*
X77904762Y-113454819D02*
X77904762Y-112454819D01*
X77904762Y-112454819D02*
X77809524Y-112597676D01*
X77809524Y-112597676D02*
X77714286Y-112692914D01*
X77714286Y-112692914D02*
X77619048Y-112740533D01*
X78809524Y-112454819D02*
X78904762Y-112454819D01*
X78904762Y-112454819D02*
X79000000Y-112502438D01*
X79000000Y-112502438D02*
X79047619Y-112550057D01*
X79047619Y-112550057D02*
X79095238Y-112645295D01*
X79095238Y-112645295D02*
X79142857Y-112835771D01*
X79142857Y-112835771D02*
X79142857Y-113073866D01*
X79142857Y-113073866D02*
X79095238Y-113264342D01*
X79095238Y-113264342D02*
X79047619Y-113359580D01*
X79047619Y-113359580D02*
X79000000Y-113407200D01*
X79000000Y-113407200D02*
X78904762Y-113454819D01*
X78904762Y-113454819D02*
X78809524Y-113454819D01*
X78809524Y-113454819D02*
X78714286Y-113407200D01*
X78714286Y-113407200D02*
X78666667Y-113359580D01*
X78666667Y-113359580D02*
X78619048Y-113264342D01*
X78619048Y-113264342D02*
X78571429Y-113073866D01*
X78571429Y-113073866D02*
X78571429Y-112835771D01*
X78571429Y-112835771D02*
X78619048Y-112645295D01*
X78619048Y-112645295D02*
X78666667Y-112550057D01*
X78666667Y-112550057D02*
X78714286Y-112502438D01*
X78714286Y-112502438D02*
X78809524Y-112454819D01*
X68261905Y-127954819D02*
X68833333Y-127954819D01*
X68547619Y-128954819D02*
X68547619Y-127954819D01*
X69166667Y-128954819D02*
X69166667Y-127954819D01*
X69166667Y-127954819D02*
X69547619Y-127954819D01*
X69547619Y-127954819D02*
X69642857Y-128002438D01*
X69642857Y-128002438D02*
X69690476Y-128050057D01*
X69690476Y-128050057D02*
X69738095Y-128145295D01*
X69738095Y-128145295D02*
X69738095Y-128288152D01*
X69738095Y-128288152D02*
X69690476Y-128383390D01*
X69690476Y-128383390D02*
X69642857Y-128431009D01*
X69642857Y-128431009D02*
X69547619Y-128478628D01*
X69547619Y-128478628D02*
X69166667Y-128478628D01*
X70690476Y-128954819D02*
X70119048Y-128954819D01*
X70404762Y-128954819D02*
X70404762Y-127954819D01*
X70404762Y-127954819D02*
X70309524Y-128097676D01*
X70309524Y-128097676D02*
X70214286Y-128192914D01*
X70214286Y-128192914D02*
X70119048Y-128240533D01*
X71071429Y-128050057D02*
X71119048Y-128002438D01*
X71119048Y-128002438D02*
X71214286Y-127954819D01*
X71214286Y-127954819D02*
X71452381Y-127954819D01*
X71452381Y-127954819D02*
X71547619Y-128002438D01*
X71547619Y-128002438D02*
X71595238Y-128050057D01*
X71595238Y-128050057D02*
X71642857Y-128145295D01*
X71642857Y-128145295D02*
X71642857Y-128240533D01*
X71642857Y-128240533D02*
X71595238Y-128383390D01*
X71595238Y-128383390D02*
X71023810Y-128954819D01*
X71023810Y-128954819D02*
X71642857Y-128954819D01*
X83738095Y-112454819D02*
X84309523Y-112454819D01*
X84023809Y-113454819D02*
X84023809Y-112454819D01*
X84642857Y-113454819D02*
X84642857Y-112454819D01*
X84642857Y-112454819D02*
X85023809Y-112454819D01*
X85023809Y-112454819D02*
X85119047Y-112502438D01*
X85119047Y-112502438D02*
X85166666Y-112550057D01*
X85166666Y-112550057D02*
X85214285Y-112645295D01*
X85214285Y-112645295D02*
X85214285Y-112788152D01*
X85214285Y-112788152D02*
X85166666Y-112883390D01*
X85166666Y-112883390D02*
X85119047Y-112931009D01*
X85119047Y-112931009D02*
X85023809Y-112978628D01*
X85023809Y-112978628D02*
X84642857Y-112978628D01*
X85690476Y-113454819D02*
X85880952Y-113454819D01*
X85880952Y-113454819D02*
X85976190Y-113407200D01*
X85976190Y-113407200D02*
X86023809Y-113359580D01*
X86023809Y-113359580D02*
X86119047Y-113216723D01*
X86119047Y-113216723D02*
X86166666Y-113026247D01*
X86166666Y-113026247D02*
X86166666Y-112645295D01*
X86166666Y-112645295D02*
X86119047Y-112550057D01*
X86119047Y-112550057D02*
X86071428Y-112502438D01*
X86071428Y-112502438D02*
X85976190Y-112454819D01*
X85976190Y-112454819D02*
X85785714Y-112454819D01*
X85785714Y-112454819D02*
X85690476Y-112502438D01*
X85690476Y-112502438D02*
X85642857Y-112550057D01*
X85642857Y-112550057D02*
X85595238Y-112645295D01*
X85595238Y-112645295D02*
X85595238Y-112883390D01*
X85595238Y-112883390D02*
X85642857Y-112978628D01*
X85642857Y-112978628D02*
X85690476Y-113026247D01*
X85690476Y-113026247D02*
X85785714Y-113073866D01*
X85785714Y-113073866D02*
X85976190Y-113073866D01*
X85976190Y-113073866D02*
X86071428Y-113026247D01*
X86071428Y-113026247D02*
X86119047Y-112978628D01*
X86119047Y-112978628D02*
X86166666Y-112883390D01*
X66183333Y-109454819D02*
X65850000Y-108978628D01*
X65611905Y-109454819D02*
X65611905Y-108454819D01*
X65611905Y-108454819D02*
X65992857Y-108454819D01*
X65992857Y-108454819D02*
X66088095Y-108502438D01*
X66088095Y-108502438D02*
X66135714Y-108550057D01*
X66135714Y-108550057D02*
X66183333Y-108645295D01*
X66183333Y-108645295D02*
X66183333Y-108788152D01*
X66183333Y-108788152D02*
X66135714Y-108883390D01*
X66135714Y-108883390D02*
X66088095Y-108931009D01*
X66088095Y-108931009D02*
X65992857Y-108978628D01*
X65992857Y-108978628D02*
X65611905Y-108978628D01*
X66564286Y-108550057D02*
X66611905Y-108502438D01*
X66611905Y-108502438D02*
X66707143Y-108454819D01*
X66707143Y-108454819D02*
X66945238Y-108454819D01*
X66945238Y-108454819D02*
X67040476Y-108502438D01*
X67040476Y-108502438D02*
X67088095Y-108550057D01*
X67088095Y-108550057D02*
X67135714Y-108645295D01*
X67135714Y-108645295D02*
X67135714Y-108740533D01*
X67135714Y-108740533D02*
X67088095Y-108883390D01*
X67088095Y-108883390D02*
X66516667Y-109454819D01*
X66516667Y-109454819D02*
X67135714Y-109454819D01*
X41682142Y-125024819D02*
X41348809Y-124548628D01*
X41110714Y-125024819D02*
X41110714Y-124024819D01*
X41110714Y-124024819D02*
X41491666Y-124024819D01*
X41491666Y-124024819D02*
X41586904Y-124072438D01*
X41586904Y-124072438D02*
X41634523Y-124120057D01*
X41634523Y-124120057D02*
X41682142Y-124215295D01*
X41682142Y-124215295D02*
X41682142Y-124358152D01*
X41682142Y-124358152D02*
X41634523Y-124453390D01*
X41634523Y-124453390D02*
X41586904Y-124501009D01*
X41586904Y-124501009D02*
X41491666Y-124548628D01*
X41491666Y-124548628D02*
X41110714Y-124548628D01*
X42634523Y-125024819D02*
X42063095Y-125024819D01*
X42348809Y-125024819D02*
X42348809Y-124024819D01*
X42348809Y-124024819D02*
X42253571Y-124167676D01*
X42253571Y-124167676D02*
X42158333Y-124262914D01*
X42158333Y-124262914D02*
X42063095Y-124310533D01*
X43253571Y-124024819D02*
X43348809Y-124024819D01*
X43348809Y-124024819D02*
X43444047Y-124072438D01*
X43444047Y-124072438D02*
X43491666Y-124120057D01*
X43491666Y-124120057D02*
X43539285Y-124215295D01*
X43539285Y-124215295D02*
X43586904Y-124405771D01*
X43586904Y-124405771D02*
X43586904Y-124643866D01*
X43586904Y-124643866D02*
X43539285Y-124834342D01*
X43539285Y-124834342D02*
X43491666Y-124929580D01*
X43491666Y-124929580D02*
X43444047Y-124977200D01*
X43444047Y-124977200D02*
X43348809Y-125024819D01*
X43348809Y-125024819D02*
X43253571Y-125024819D01*
X43253571Y-125024819D02*
X43158333Y-124977200D01*
X43158333Y-124977200D02*
X43110714Y-124929580D01*
X43110714Y-124929580D02*
X43063095Y-124834342D01*
X43063095Y-124834342D02*
X43015476Y-124643866D01*
X43015476Y-124643866D02*
X43015476Y-124405771D01*
X43015476Y-124405771D02*
X43063095Y-124215295D01*
X43063095Y-124215295D02*
X43110714Y-124120057D01*
X43110714Y-124120057D02*
X43158333Y-124072438D01*
X43158333Y-124072438D02*
X43253571Y-124024819D01*
X50333333Y-120024819D02*
X50000000Y-119548628D01*
X49761905Y-120024819D02*
X49761905Y-119024819D01*
X49761905Y-119024819D02*
X50142857Y-119024819D01*
X50142857Y-119024819D02*
X50238095Y-119072438D01*
X50238095Y-119072438D02*
X50285714Y-119120057D01*
X50285714Y-119120057D02*
X50333333Y-119215295D01*
X50333333Y-119215295D02*
X50333333Y-119358152D01*
X50333333Y-119358152D02*
X50285714Y-119453390D01*
X50285714Y-119453390D02*
X50238095Y-119501009D01*
X50238095Y-119501009D02*
X50142857Y-119548628D01*
X50142857Y-119548628D02*
X49761905Y-119548628D01*
X50666667Y-119024819D02*
X51333333Y-119024819D01*
X51333333Y-119024819D02*
X50904762Y-120024819D01*
X41682142Y-129024819D02*
X41348809Y-128548628D01*
X41110714Y-129024819D02*
X41110714Y-128024819D01*
X41110714Y-128024819D02*
X41491666Y-128024819D01*
X41491666Y-128024819D02*
X41586904Y-128072438D01*
X41586904Y-128072438D02*
X41634523Y-128120057D01*
X41634523Y-128120057D02*
X41682142Y-128215295D01*
X41682142Y-128215295D02*
X41682142Y-128358152D01*
X41682142Y-128358152D02*
X41634523Y-128453390D01*
X41634523Y-128453390D02*
X41586904Y-128501009D01*
X41586904Y-128501009D02*
X41491666Y-128548628D01*
X41491666Y-128548628D02*
X41110714Y-128548628D01*
X42634523Y-129024819D02*
X42063095Y-129024819D01*
X42348809Y-129024819D02*
X42348809Y-128024819D01*
X42348809Y-128024819D02*
X42253571Y-128167676D01*
X42253571Y-128167676D02*
X42158333Y-128262914D01*
X42158333Y-128262914D02*
X42063095Y-128310533D01*
X43586904Y-129024819D02*
X43015476Y-129024819D01*
X43301190Y-129024819D02*
X43301190Y-128024819D01*
X43301190Y-128024819D02*
X43205952Y-128167676D01*
X43205952Y-128167676D02*
X43110714Y-128262914D01*
X43110714Y-128262914D02*
X43015476Y-128310533D01*
X36816666Y-110654819D02*
X36816666Y-111369104D01*
X36816666Y-111369104D02*
X36769047Y-111511961D01*
X36769047Y-111511961D02*
X36673809Y-111607200D01*
X36673809Y-111607200D02*
X36530952Y-111654819D01*
X36530952Y-111654819D02*
X36435714Y-111654819D01*
X37292857Y-111654819D02*
X37292857Y-110654819D01*
X37292857Y-110654819D02*
X37673809Y-110654819D01*
X37673809Y-110654819D02*
X37769047Y-110702438D01*
X37769047Y-110702438D02*
X37816666Y-110750057D01*
X37816666Y-110750057D02*
X37864285Y-110845295D01*
X37864285Y-110845295D02*
X37864285Y-110988152D01*
X37864285Y-110988152D02*
X37816666Y-111083390D01*
X37816666Y-111083390D02*
X37769047Y-111131009D01*
X37769047Y-111131009D02*
X37673809Y-111178628D01*
X37673809Y-111178628D02*
X37292857Y-111178628D01*
X38816666Y-111654819D02*
X38245238Y-111654819D01*
X38530952Y-111654819D02*
X38530952Y-110654819D01*
X38530952Y-110654819D02*
X38435714Y-110797676D01*
X38435714Y-110797676D02*
X38340476Y-110892914D01*
X38340476Y-110892914D02*
X38245238Y-110940533D01*
X36991666Y-127654819D02*
X36991666Y-128369104D01*
X36991666Y-128369104D02*
X36944047Y-128511961D01*
X36944047Y-128511961D02*
X36848809Y-128607200D01*
X36848809Y-128607200D02*
X36705952Y-128654819D01*
X36705952Y-128654819D02*
X36610714Y-128654819D01*
X37467857Y-128654819D02*
X37467857Y-127654819D01*
X37467857Y-127654819D02*
X37848809Y-127654819D01*
X37848809Y-127654819D02*
X37944047Y-127702438D01*
X37944047Y-127702438D02*
X37991666Y-127750057D01*
X37991666Y-127750057D02*
X38039285Y-127845295D01*
X38039285Y-127845295D02*
X38039285Y-127988152D01*
X38039285Y-127988152D02*
X37991666Y-128083390D01*
X37991666Y-128083390D02*
X37944047Y-128131009D01*
X37944047Y-128131009D02*
X37848809Y-128178628D01*
X37848809Y-128178628D02*
X37467857Y-128178628D01*
X38944047Y-127654819D02*
X38467857Y-127654819D01*
X38467857Y-127654819D02*
X38420238Y-128131009D01*
X38420238Y-128131009D02*
X38467857Y-128083390D01*
X38467857Y-128083390D02*
X38563095Y-128035771D01*
X38563095Y-128035771D02*
X38801190Y-128035771D01*
X38801190Y-128035771D02*
X38896428Y-128083390D01*
X38896428Y-128083390D02*
X38944047Y-128131009D01*
X38944047Y-128131009D02*
X38991666Y-128226247D01*
X38991666Y-128226247D02*
X38991666Y-128464342D01*
X38991666Y-128464342D02*
X38944047Y-128559580D01*
X38944047Y-128559580D02*
X38896428Y-128607200D01*
X38896428Y-128607200D02*
X38801190Y-128654819D01*
X38801190Y-128654819D02*
X38563095Y-128654819D01*
X38563095Y-128654819D02*
X38467857Y-128607200D01*
X38467857Y-128607200D02*
X38420238Y-128559580D01*
X57333333Y-109454819D02*
X57000000Y-108978628D01*
X56761905Y-109454819D02*
X56761905Y-108454819D01*
X56761905Y-108454819D02*
X57142857Y-108454819D01*
X57142857Y-108454819D02*
X57238095Y-108502438D01*
X57238095Y-108502438D02*
X57285714Y-108550057D01*
X57285714Y-108550057D02*
X57333333Y-108645295D01*
X57333333Y-108645295D02*
X57333333Y-108788152D01*
X57333333Y-108788152D02*
X57285714Y-108883390D01*
X57285714Y-108883390D02*
X57238095Y-108931009D01*
X57238095Y-108931009D02*
X57142857Y-108978628D01*
X57142857Y-108978628D02*
X56761905Y-108978628D01*
X58285714Y-109454819D02*
X57714286Y-109454819D01*
X58000000Y-109454819D02*
X58000000Y-108454819D01*
X58000000Y-108454819D02*
X57904762Y-108597676D01*
X57904762Y-108597676D02*
X57809524Y-108692914D01*
X57809524Y-108692914D02*
X57714286Y-108740533D01*
X80238095Y-115529819D02*
X80238095Y-116339342D01*
X80238095Y-116339342D02*
X80285714Y-116434580D01*
X80285714Y-116434580D02*
X80333333Y-116482200D01*
X80333333Y-116482200D02*
X80428571Y-116529819D01*
X80428571Y-116529819D02*
X80619047Y-116529819D01*
X80619047Y-116529819D02*
X80714285Y-116482200D01*
X80714285Y-116482200D02*
X80761904Y-116434580D01*
X80761904Y-116434580D02*
X80809523Y-116339342D01*
X80809523Y-116339342D02*
X80809523Y-115529819D01*
X81238095Y-115625057D02*
X81285714Y-115577438D01*
X81285714Y-115577438D02*
X81380952Y-115529819D01*
X81380952Y-115529819D02*
X81619047Y-115529819D01*
X81619047Y-115529819D02*
X81714285Y-115577438D01*
X81714285Y-115577438D02*
X81761904Y-115625057D01*
X81761904Y-115625057D02*
X81809523Y-115720295D01*
X81809523Y-115720295D02*
X81809523Y-115815533D01*
X81809523Y-115815533D02*
X81761904Y-115958390D01*
X81761904Y-115958390D02*
X81190476Y-116529819D01*
X81190476Y-116529819D02*
X81809523Y-116529819D01*
X42870833Y-111634819D02*
X42537500Y-111158628D01*
X42299405Y-111634819D02*
X42299405Y-110634819D01*
X42299405Y-110634819D02*
X42680357Y-110634819D01*
X42680357Y-110634819D02*
X42775595Y-110682438D01*
X42775595Y-110682438D02*
X42823214Y-110730057D01*
X42823214Y-110730057D02*
X42870833Y-110825295D01*
X42870833Y-110825295D02*
X42870833Y-110968152D01*
X42870833Y-110968152D02*
X42823214Y-111063390D01*
X42823214Y-111063390D02*
X42775595Y-111111009D01*
X42775595Y-111111009D02*
X42680357Y-111158628D01*
X42680357Y-111158628D02*
X42299405Y-111158628D01*
X43442262Y-111063390D02*
X43347024Y-111015771D01*
X43347024Y-111015771D02*
X43299405Y-110968152D01*
X43299405Y-110968152D02*
X43251786Y-110872914D01*
X43251786Y-110872914D02*
X43251786Y-110825295D01*
X43251786Y-110825295D02*
X43299405Y-110730057D01*
X43299405Y-110730057D02*
X43347024Y-110682438D01*
X43347024Y-110682438D02*
X43442262Y-110634819D01*
X43442262Y-110634819D02*
X43632738Y-110634819D01*
X43632738Y-110634819D02*
X43727976Y-110682438D01*
X43727976Y-110682438D02*
X43775595Y-110730057D01*
X43775595Y-110730057D02*
X43823214Y-110825295D01*
X43823214Y-110825295D02*
X43823214Y-110872914D01*
X43823214Y-110872914D02*
X43775595Y-110968152D01*
X43775595Y-110968152D02*
X43727976Y-111015771D01*
X43727976Y-111015771D02*
X43632738Y-111063390D01*
X43632738Y-111063390D02*
X43442262Y-111063390D01*
X43442262Y-111063390D02*
X43347024Y-111111009D01*
X43347024Y-111111009D02*
X43299405Y-111158628D01*
X43299405Y-111158628D02*
X43251786Y-111253866D01*
X43251786Y-111253866D02*
X43251786Y-111444342D01*
X43251786Y-111444342D02*
X43299405Y-111539580D01*
X43299405Y-111539580D02*
X43347024Y-111587200D01*
X43347024Y-111587200D02*
X43442262Y-111634819D01*
X43442262Y-111634819D02*
X43632738Y-111634819D01*
X43632738Y-111634819D02*
X43727976Y-111587200D01*
X43727976Y-111587200D02*
X43775595Y-111539580D01*
X43775595Y-111539580D02*
X43823214Y-111444342D01*
X43823214Y-111444342D02*
X43823214Y-111253866D01*
X43823214Y-111253866D02*
X43775595Y-111158628D01*
X43775595Y-111158628D02*
X43727976Y-111111009D01*
X43727976Y-111111009D02*
X43632738Y-111063390D01*
X49370833Y-115634819D02*
X49037500Y-115158628D01*
X48799405Y-115634819D02*
X48799405Y-114634819D01*
X48799405Y-114634819D02*
X49180357Y-114634819D01*
X49180357Y-114634819D02*
X49275595Y-114682438D01*
X49275595Y-114682438D02*
X49323214Y-114730057D01*
X49323214Y-114730057D02*
X49370833Y-114825295D01*
X49370833Y-114825295D02*
X49370833Y-114968152D01*
X49370833Y-114968152D02*
X49323214Y-115063390D01*
X49323214Y-115063390D02*
X49275595Y-115111009D01*
X49275595Y-115111009D02*
X49180357Y-115158628D01*
X49180357Y-115158628D02*
X48799405Y-115158628D01*
X50275595Y-114634819D02*
X49799405Y-114634819D01*
X49799405Y-114634819D02*
X49751786Y-115111009D01*
X49751786Y-115111009D02*
X49799405Y-115063390D01*
X49799405Y-115063390D02*
X49894643Y-115015771D01*
X49894643Y-115015771D02*
X50132738Y-115015771D01*
X50132738Y-115015771D02*
X50227976Y-115063390D01*
X50227976Y-115063390D02*
X50275595Y-115111009D01*
X50275595Y-115111009D02*
X50323214Y-115206247D01*
X50323214Y-115206247D02*
X50323214Y-115444342D01*
X50323214Y-115444342D02*
X50275595Y-115539580D01*
X50275595Y-115539580D02*
X50227976Y-115587200D01*
X50227976Y-115587200D02*
X50132738Y-115634819D01*
X50132738Y-115634819D02*
X49894643Y-115634819D01*
X49894643Y-115634819D02*
X49799405Y-115587200D01*
X49799405Y-115587200D02*
X49751786Y-115539580D01*
X64166666Y-120454819D02*
X64166666Y-121169104D01*
X64166666Y-121169104D02*
X64119047Y-121311961D01*
X64119047Y-121311961D02*
X64023809Y-121407200D01*
X64023809Y-121407200D02*
X63880952Y-121454819D01*
X63880952Y-121454819D02*
X63785714Y-121454819D01*
X64595238Y-120550057D02*
X64642857Y-120502438D01*
X64642857Y-120502438D02*
X64738095Y-120454819D01*
X64738095Y-120454819D02*
X64976190Y-120454819D01*
X64976190Y-120454819D02*
X65071428Y-120502438D01*
X65071428Y-120502438D02*
X65119047Y-120550057D01*
X65119047Y-120550057D02*
X65166666Y-120645295D01*
X65166666Y-120645295D02*
X65166666Y-120740533D01*
X65166666Y-120740533D02*
X65119047Y-120883390D01*
X65119047Y-120883390D02*
X64547619Y-121454819D01*
X64547619Y-121454819D02*
X65166666Y-121454819D01*
X36816666Y-114654819D02*
X36816666Y-115369104D01*
X36816666Y-115369104D02*
X36769047Y-115511961D01*
X36769047Y-115511961D02*
X36673809Y-115607200D01*
X36673809Y-115607200D02*
X36530952Y-115654819D01*
X36530952Y-115654819D02*
X36435714Y-115654819D01*
X37292857Y-115654819D02*
X37292857Y-114654819D01*
X37292857Y-114654819D02*
X37673809Y-114654819D01*
X37673809Y-114654819D02*
X37769047Y-114702438D01*
X37769047Y-114702438D02*
X37816666Y-114750057D01*
X37816666Y-114750057D02*
X37864285Y-114845295D01*
X37864285Y-114845295D02*
X37864285Y-114988152D01*
X37864285Y-114988152D02*
X37816666Y-115083390D01*
X37816666Y-115083390D02*
X37769047Y-115131009D01*
X37769047Y-115131009D02*
X37673809Y-115178628D01*
X37673809Y-115178628D02*
X37292857Y-115178628D01*
X38245238Y-114750057D02*
X38292857Y-114702438D01*
X38292857Y-114702438D02*
X38388095Y-114654819D01*
X38388095Y-114654819D02*
X38626190Y-114654819D01*
X38626190Y-114654819D02*
X38721428Y-114702438D01*
X38721428Y-114702438D02*
X38769047Y-114750057D01*
X38769047Y-114750057D02*
X38816666Y-114845295D01*
X38816666Y-114845295D02*
X38816666Y-114940533D01*
X38816666Y-114940533D02*
X38769047Y-115083390D01*
X38769047Y-115083390D02*
X38197619Y-115654819D01*
X38197619Y-115654819D02*
X38816666Y-115654819D01*
X76454819Y-104603333D02*
X77169104Y-104603333D01*
X77169104Y-104603333D02*
X77311961Y-104650952D01*
X77311961Y-104650952D02*
X77407200Y-104746190D01*
X77407200Y-104746190D02*
X77454819Y-104889047D01*
X77454819Y-104889047D02*
X77454819Y-104984285D01*
X77454819Y-103603333D02*
X77454819Y-104174761D01*
X77454819Y-103889047D02*
X76454819Y-103889047D01*
X76454819Y-103889047D02*
X76597676Y-103984285D01*
X76597676Y-103984285D02*
X76692914Y-104079523D01*
X76692914Y-104079523D02*
X76740533Y-104174761D01*
D12*
%TO.C,LED1*%
X56821421Y-127033400D02*
X57178579Y-127033400D01*
X57178579Y-125966600D02*
X56821421Y-125966600D01*
X54887900Y-126500000D02*
G75*
G02*
X54735500Y-126500000I-76200J0D01*
G01*
X54735500Y-126500000D02*
G75*
G02*
X54887900Y-126500000I76200J0D01*
G01*
%TO.C,LED2*%
X56821421Y-124533400D02*
X57178579Y-124533400D01*
X57178579Y-123466600D02*
X56821421Y-123466600D01*
X54887900Y-124000000D02*
G75*
G02*
X54735500Y-124000000I-76200J0D01*
G01*
X54735500Y-124000000D02*
G75*
G02*
X54887900Y-124000000I76200J0D01*
G01*
%TO.C,U1*%
X48323600Y-126176400D02*
X51676400Y-126176400D01*
X51676400Y-122823600D02*
X48323600Y-122823600D01*
%TO.C,SW1*%
X79370600Y-123469400D02*
X79370600Y-130530600D01*
X79370600Y-130530600D02*
X92629400Y-130530600D01*
X92629400Y-123469400D02*
X79370600Y-123469400D01*
X92629400Y-130530600D02*
X92629400Y-123469400D01*
D13*
X77973600Y-127000000D02*
G75*
G02*
X77211600Y-127000000I-381000J0D01*
G01*
X77211600Y-127000000D02*
G75*
G02*
X77973600Y-127000000I381000J0D01*
G01*
D11*
%TO.C,TP7*%
X75250000Y-118000000D02*
G75*
G02*
X71750000Y-118000000I-1750000J0D01*
G01*
X71750000Y-118000000D02*
G75*
G02*
X75250000Y-118000000I1750000J0D01*
G01*
D14*
%TO.C,R4*%
X42087742Y-121477500D02*
X42562258Y-121477500D01*
X42087742Y-122522500D02*
X42562258Y-122522500D01*
%TO.C,R3*%
X48810436Y-112090000D02*
X50264564Y-112090000D01*
X48810436Y-113910000D02*
X50264564Y-113910000D01*
%TO.C,R6*%
X53587742Y-128977500D02*
X54062258Y-128977500D01*
X53587742Y-130022500D02*
X54062258Y-130022500D01*
D11*
%TO.C,TP6*%
X67750000Y-113000000D02*
G75*
G02*
X64250000Y-113000000I-1750000J0D01*
G01*
X64250000Y-113000000D02*
G75*
G02*
X67750000Y-113000000I1750000J0D01*
G01*
D14*
%TO.C,R9*%
X42310436Y-116090000D02*
X43764564Y-116090000D01*
X42310436Y-117910000D02*
X43764564Y-117910000D01*
%TO.C,JP4*%
X36425000Y-126300000D02*
X36425000Y-125700000D01*
X37125000Y-125000000D02*
X38525000Y-125000000D01*
X38525000Y-127000000D02*
X37125000Y-127000000D01*
X39225000Y-125700000D02*
X39225000Y-126300000D01*
X36425000Y-125700000D02*
G75*
G02*
X37125000Y-125000000I699999J1D01*
G01*
X37125000Y-127000000D02*
G75*
G02*
X36425000Y-126300000I-1J699999D01*
G01*
X38525000Y-125000000D02*
G75*
G02*
X39225000Y-125700000I0J-700000D01*
G01*
X39225000Y-126300000D02*
G75*
G02*
X38525000Y-127000000I-700000J0D01*
G01*
D11*
%TO.C,TP8*%
X75250000Y-123000000D02*
G75*
G02*
X71750000Y-123000000I-1750000J0D01*
G01*
X71750000Y-123000000D02*
G75*
G02*
X75250000Y-123000000I1750000J0D01*
G01*
D14*
%TO.C,C1*%
X69134420Y-108490000D02*
X69415580Y-108490000D01*
X69134420Y-109510000D02*
X69415580Y-109510000D01*
%TO.C,C4*%
X92365580Y-119490000D02*
X92084420Y-119490000D01*
X92365580Y-120510000D02*
X92084420Y-120510000D01*
D11*
%TO.C,TP4*%
X60250000Y-118000000D02*
G75*
G02*
X56750000Y-118000000I-1750000J0D01*
G01*
X56750000Y-118000000D02*
G75*
G02*
X60250000Y-118000000I1750000J0D01*
G01*
D14*
%TO.C,C2*%
X49365580Y-128490000D02*
X49084420Y-128490000D01*
X49365580Y-129510000D02*
X49084420Y-129510000D01*
D11*
%TO.C,TP1*%
X67750000Y-118000000D02*
G75*
G02*
X64250000Y-118000000I-1750000J0D01*
G01*
X64250000Y-118000000D02*
G75*
G02*
X67750000Y-118000000I1750000J0D01*
G01*
%TO.C,TP3*%
X60250000Y-113000000D02*
G75*
G02*
X56750000Y-113000000I-1750000J0D01*
G01*
X56750000Y-113000000D02*
G75*
G02*
X60250000Y-113000000I1750000J0D01*
G01*
%TO.C,TP5*%
X75250000Y-113000000D02*
G75*
G02*
X71750000Y-113000000I-1750000J0D01*
G01*
X71750000Y-113000000D02*
G75*
G02*
X75250000Y-113000000I1750000J0D01*
G01*
D14*
%TO.C,C5*%
X91990000Y-115359420D02*
X91990000Y-115640580D01*
X93010000Y-115359420D02*
X93010000Y-115640580D01*
%TO.C,C3*%
X92584420Y-111990000D02*
X92865580Y-111990000D01*
X92584420Y-113010000D02*
X92865580Y-113010000D01*
D11*
%TO.C,TP11*%
X90250000Y-118000000D02*
G75*
G02*
X86750000Y-118000000I-1750000J0D01*
G01*
X86750000Y-118000000D02*
G75*
G02*
X90250000Y-118000000I1750000J0D01*
G01*
D14*
%TO.C,JP3*%
X36425000Y-122300000D02*
X36425000Y-121700000D01*
X37125000Y-121000000D02*
X38525000Y-121000000D01*
X38525000Y-123000000D02*
X37125000Y-123000000D01*
X39225000Y-121700000D02*
X39225000Y-122300000D01*
X36425000Y-121700000D02*
G75*
G02*
X37125000Y-121000000I699999J1D01*
G01*
X37125000Y-123000000D02*
G75*
G02*
X36425000Y-122300000I-1J699999D01*
G01*
X38525000Y-121000000D02*
G75*
G02*
X39225000Y-121700000I0J-700000D01*
G01*
X39225000Y-122300000D02*
G75*
G02*
X38525000Y-123000000I-700000J0D01*
G01*
D11*
%TO.C,TP10*%
X83250000Y-113000000D02*
G75*
G02*
X79750000Y-113000000I-1750000J0D01*
G01*
X79750000Y-113000000D02*
G75*
G02*
X83250000Y-113000000I1750000J0D01*
G01*
%TO.C,TP12*%
X75750000Y-128500000D02*
G75*
G02*
X72250000Y-128500000I-1750000J0D01*
G01*
X72250000Y-128500000D02*
G75*
G02*
X75750000Y-128500000I1750000J0D01*
G01*
%TO.C,TP9*%
X90250000Y-113000000D02*
G75*
G02*
X86750000Y-113000000I-1750000J0D01*
G01*
X86750000Y-113000000D02*
G75*
G02*
X90250000Y-113000000I1750000J0D01*
G01*
D14*
%TO.C,R2*%
X63437742Y-108477500D02*
X63912258Y-108477500D01*
X63437742Y-109522500D02*
X63912258Y-109522500D01*
%TO.C,R10*%
X42087742Y-125477500D02*
X42562258Y-125477500D01*
X42087742Y-126522500D02*
X42562258Y-126522500D01*
%TO.C,R7*%
X50262742Y-120477500D02*
X50737258Y-120477500D01*
X50262742Y-121522500D02*
X50737258Y-121522500D01*
%TO.C,R11*%
X42087742Y-129477500D02*
X42562258Y-129477500D01*
X42087742Y-130522500D02*
X42562258Y-130522500D01*
%TO.C,JP1*%
X36250000Y-113300000D02*
X36250000Y-112700000D01*
X36950000Y-112000000D02*
X38350000Y-112000000D01*
X38350000Y-114000000D02*
X36950000Y-114000000D01*
X39050000Y-112700000D02*
X39050000Y-113300000D01*
X36250000Y-112700000D02*
G75*
G02*
X36950000Y-112000000I699999J1D01*
G01*
X36950000Y-114000000D02*
G75*
G02*
X36250000Y-113300000I-1J699999D01*
G01*
X38350000Y-112000000D02*
G75*
G02*
X39050000Y-112700000I0J-700000D01*
G01*
X39050000Y-113300000D02*
G75*
G02*
X38350000Y-114000000I-700000J0D01*
G01*
%TO.C,JP5*%
X36425000Y-130300000D02*
X36425000Y-129700000D01*
X37125000Y-129000000D02*
X38525000Y-129000000D01*
X38525000Y-131000000D02*
X37125000Y-131000000D01*
X39225000Y-129700000D02*
X39225000Y-130300000D01*
X36425000Y-129700000D02*
G75*
G02*
X37125000Y-129000000I699999J1D01*
G01*
X37125000Y-131000000D02*
G75*
G02*
X36425000Y-130300000I-1J699999D01*
G01*
X38525000Y-129000000D02*
G75*
G02*
X39225000Y-129700000I0J-700000D01*
G01*
X39225000Y-130300000D02*
G75*
G02*
X38525000Y-131000000I-700000J0D01*
G01*
%TO.C,R1*%
X60237258Y-108477500D02*
X59762742Y-108477500D01*
X60237258Y-109522500D02*
X59762742Y-109522500D01*
D11*
%TO.C,U2*%
X78750000Y-116900000D02*
X83250000Y-116900000D01*
X78750000Y-122350000D02*
X83250000Y-122350000D01*
D14*
X78200000Y-116875000D02*
X77960000Y-116545000D01*
X78440000Y-116545000D01*
X78200000Y-116875000D01*
G36*
X78200000Y-116875000D02*
G01*
X77960000Y-116545000D01*
X78440000Y-116545000D01*
X78200000Y-116875000D01*
G37*
%TO.C,R8*%
X42310436Y-112090000D02*
X43764564Y-112090000D01*
X42310436Y-113910000D02*
X43764564Y-113910000D01*
%TO.C,R5*%
X48810436Y-116090000D02*
X50264564Y-116090000D01*
X48810436Y-117910000D02*
X50264564Y-117910000D01*
%TO.C,J2*%
X61440000Y-122090000D02*
X61440000Y-129910000D01*
X61440000Y-123690000D02*
X62360000Y-123690000D01*
X61440000Y-129910000D02*
X67560000Y-129910000D01*
X62200000Y-126050000D02*
X62200000Y-127650000D01*
X62200000Y-127650000D02*
X63200000Y-127650000D01*
X62360000Y-122090000D02*
X61440000Y-122090000D01*
X62360000Y-123690000D02*
X62360000Y-122090000D01*
X62640000Y-123690000D02*
X62360000Y-123690000D01*
X62640000Y-123690000D02*
X62640000Y-122475000D01*
X62700000Y-127650000D02*
X62700000Y-129910000D01*
X63200000Y-126050000D02*
X62200000Y-126050000D01*
X63200000Y-127650000D02*
X63200000Y-126050000D01*
X63200000Y-127650000D02*
X63200000Y-129910000D01*
X64000000Y-125550000D02*
X65000000Y-125550000D01*
X64000000Y-129910000D02*
X64000000Y-125550000D01*
X65000000Y-125550000D02*
X65000000Y-129910000D01*
X65800000Y-126050000D02*
X66800000Y-126050000D01*
X65800000Y-127650000D02*
X65800000Y-126050000D01*
X66640000Y-122090000D02*
X66640000Y-123690000D01*
X66640000Y-123690000D02*
X66360000Y-123690000D01*
X66800000Y-126050000D02*
X66800000Y-127650000D01*
X66800000Y-127650000D02*
X65800000Y-127650000D01*
X67560000Y-122090000D02*
X66640000Y-122090000D01*
X67560000Y-123690000D02*
X66640000Y-123690000D01*
X67560000Y-129910000D02*
X67560000Y-122090000D01*
%TO.C,JP2*%
X36250000Y-117300000D02*
X36250000Y-116700000D01*
X36950000Y-116000000D02*
X38350000Y-116000000D01*
X38350000Y-118000000D02*
X36950000Y-118000000D01*
X39050000Y-116700000D02*
X39050000Y-117300000D01*
X36250000Y-116700000D02*
G75*
G02*
X36950000Y-116000000I699999J1D01*
G01*
X36950000Y-118000000D02*
G75*
G02*
X36250000Y-117300000I-1J699999D01*
G01*
X38350000Y-116000000D02*
G75*
G02*
X39050000Y-116700000I0J-700000D01*
G01*
X39050000Y-117300000D02*
G75*
G02*
X38350000Y-118000000I-700000J0D01*
G01*
%TD*%
%LPC*%
D15*
%TO.C,LED1*%
X56077300Y-126500000D03*
X57922700Y-126500000D03*
%TD*%
%TO.C,LED2*%
X56077300Y-124000000D03*
X57922700Y-124000000D03*
%TD*%
D16*
%TO.C,U1*%
X47786652Y-123525001D03*
X47786652Y-124174999D03*
X47786652Y-124825001D03*
X47786652Y-125474999D03*
X52213348Y-125474999D03*
X52213348Y-124825001D03*
X52213348Y-124174999D03*
X52213348Y-123525001D03*
%TD*%
D17*
%TO.C,SW1*%
X81301000Y-127000000D03*
X86000000Y-127000000D03*
X90699000Y-127000000D03*
%TD*%
D18*
%TO.C,TP7*%
X73500000Y-118000000D03*
%TD*%
D19*
%TO.C,R4*%
X41500000Y-122000000D03*
X43150000Y-122000000D03*
%TD*%
D20*
%TO.C,R3*%
X48075000Y-113000000D03*
X51000000Y-113000000D03*
%TD*%
D19*
%TO.C,R6*%
X53000000Y-129500000D03*
X54650000Y-129500000D03*
%TD*%
D18*
%TO.C,TP6*%
X66000000Y-113000000D03*
%TD*%
D20*
%TO.C,R9*%
X41575000Y-117000000D03*
X44500000Y-117000000D03*
%TD*%
D21*
%TO.C,JP4*%
X37175000Y-126000000D03*
D22*
X38475000Y-126000000D03*
%TD*%
D18*
%TO.C,TP8*%
X73500000Y-123000000D03*
%TD*%
D23*
%TO.C,C1*%
X68500000Y-109000000D03*
X70050000Y-109000000D03*
%TD*%
D24*
%TO.C,C4*%
X93000000Y-120000000D03*
X91450000Y-120000000D03*
%TD*%
D18*
%TO.C,TP4*%
X58500000Y-118000000D03*
%TD*%
D24*
%TO.C,C2*%
X50000000Y-129000000D03*
X48450000Y-129000000D03*
%TD*%
D18*
%TO.C,TP1*%
X66000000Y-118000000D03*
%TD*%
%TO.C,TP3*%
X58500000Y-113000000D03*
%TD*%
%TO.C,TP5*%
X73500000Y-113000000D03*
%TD*%
D25*
%TO.C,C5*%
X92500000Y-114725000D03*
X92500000Y-116275000D03*
%TD*%
D23*
%TO.C,C3*%
X91950000Y-112500000D03*
X93500000Y-112500000D03*
%TD*%
D18*
%TO.C,TP11*%
X88500000Y-118000000D03*
%TD*%
D21*
%TO.C,JP3*%
X37175000Y-122000000D03*
D22*
X38475000Y-122000000D03*
%TD*%
D18*
%TO.C,TP10*%
X81500000Y-113000000D03*
%TD*%
%TO.C,TP12*%
X74000000Y-128500000D03*
%TD*%
%TO.C,TP9*%
X88500000Y-113000000D03*
%TD*%
D19*
%TO.C,R2*%
X62850000Y-109000000D03*
X64500000Y-109000000D03*
%TD*%
%TO.C,R10*%
X41500000Y-126000000D03*
X43150000Y-126000000D03*
%TD*%
%TO.C,R7*%
X49675000Y-121000000D03*
X51325000Y-121000000D03*
%TD*%
%TO.C,R11*%
X41500000Y-130000000D03*
X43150000Y-130000000D03*
%TD*%
D21*
%TO.C,JP1*%
X37000000Y-113000000D03*
D22*
X38300000Y-113000000D03*
%TD*%
D21*
%TO.C,JP5*%
X37175000Y-130000000D03*
D22*
X38475000Y-130000000D03*
%TD*%
D26*
%TO.C,R1*%
X60825000Y-109000000D03*
X59175000Y-109000000D03*
%TD*%
D27*
%TO.C,U2*%
X78225000Y-117350000D03*
X78225000Y-118000000D03*
X78225000Y-118650000D03*
X78225000Y-119300000D03*
X78225000Y-119950000D03*
X78225000Y-120600000D03*
X78225000Y-121250000D03*
X78225000Y-121900000D03*
X83775000Y-121900000D03*
X83775000Y-121250000D03*
X83775000Y-120600000D03*
X83775000Y-119950000D03*
X83775000Y-119300000D03*
X83775000Y-118650000D03*
X83775000Y-118000000D03*
X83775000Y-117350000D03*
D28*
X81000000Y-119625000D03*
%TD*%
D20*
%TO.C,R8*%
X41575000Y-113000000D03*
X44500000Y-113000000D03*
%TD*%
%TO.C,R5*%
X48075000Y-117000000D03*
X51000000Y-117000000D03*
%TD*%
D29*
%TO.C,J2*%
X63500000Y-123550000D03*
D30*
X65500000Y-123550000D03*
%TD*%
D21*
%TO.C,JP2*%
X37000000Y-117000000D03*
D22*
X38300000Y-117000000D03*
%TD*%
D31*
%TO.C,J1*%
X73875000Y-105540000D03*
D32*
X73875000Y-103000000D03*
X71335000Y-105540000D03*
X71335000Y-103000000D03*
X68795000Y-105540000D03*
X68795000Y-103000000D03*
X66255000Y-105540000D03*
X66255000Y-103000000D03*
X63715000Y-105540000D03*
X63715000Y-103000000D03*
X61175000Y-105540000D03*
X61175000Y-103000000D03*
X58635000Y-105540000D03*
X58635000Y-103000000D03*
X56095000Y-105540000D03*
X56095000Y-103000000D03*
%TD*%
%LPD*%
M02*
