M48
; DRILL file {KiCad 8.0.1} date 2024-03-24T16:32:44+0200
; FORMAT={-:-/ absolute / inch / decimal}
; #@! TF.CreationDate,2024-03-24T16:32:44+02:00
; #@! TF.GenerationSoftware,Kicad,Pcbnew,8.0.1
; #@! TF.FileFunction,Plated,1,2,PTH
FMAT,2
INCH
; #@! TA.AperFunction,Plated,PTH,ViaDrill
T1C0.0118
; #@! TA.AperFunction,Plated,PTH,ComponentDrill
T2C0.0295
; #@! TA.AperFunction,Plated,PTH,ComponentDrill
T3C0.0394
; #@! TA.AperFunction,Plated,PTH,ComponentDrill
T4C0.0610
; #@! TA.AperFunction,Plated,PTH,ComponentDrill
T5C0.0630
%
G90
G05
T1
X3.0138Y-4.7224
X3.2262Y-4.582
X3.3392Y-4.7224
X3.3394Y-4.7992
T2
X2.5Y-4.8642
X2.5787Y-4.8642
T3
X2.2085Y-4.0551
X2.2085Y-4.1551
X2.3085Y-4.0551
X2.3085Y-4.1551
X2.4085Y-4.0551
X2.4085Y-4.1551
X2.5085Y-4.0551
X2.5085Y-4.1551
X2.6085Y-4.0551
X2.6085Y-4.1551
X2.7085Y-4.0551
X2.7085Y-4.1551
X2.8085Y-4.0551
X2.8085Y-4.1551
X2.9085Y-4.0551
X2.9085Y-4.1551
T4
X3.2008Y-5.0
X3.3858Y-5.0
X3.5708Y-5.0
T5
X2.3031Y-4.4488
X2.3031Y-4.6457
X2.5984Y-4.4488
X2.5984Y-4.6457
X2.8937Y-4.4488
X2.8937Y-4.6457
X2.8937Y-4.8425
X2.9134Y-5.0591
X3.2087Y-4.4488
X3.4843Y-4.4488
X3.4843Y-4.6457
M30
