%TF.GenerationSoftware,KiCad,Pcbnew,8.0.1*%
%TF.CreationDate,2024-03-24T19:01:41+02:00*%
%TF.ProjectId,PLLKAS005_EEE3088F,504c4c4b-4153-4303-9035-5f4545453330,V1.0*%
%TF.SameCoordinates,Original*%
%TF.FileFunction,Copper,L2,Bot*%
%TF.FilePolarity,Positive*%
%FSLAX46Y46*%
G04 Gerber Fmt 4.6, Leading zero omitted, Abs format (unit mm)*
G04 Created by KiCad (PCBNEW 8.0.1) date 2024-03-24 19:01:41*
%MOMM*%
%LPD*%
G01*
G04 APERTURE LIST*
%TA.AperFunction,ComponentPad*%
%ADD10R,1.800000X1.800000*%
%TD*%
%TA.AperFunction,ComponentPad*%
%ADD11C,1.800000*%
%TD*%
%TA.AperFunction,SMDPad,CuDef*%
%ADD12C,3.000000*%
%TD*%
%TA.AperFunction,ComponentPad*%
%ADD13R,1.700000X1.700000*%
%TD*%
%TA.AperFunction,ComponentPad*%
%ADD14O,1.700000X1.700000*%
%TD*%
%TA.AperFunction,ViaPad*%
%ADD15C,0.600000*%
%TD*%
%TA.AperFunction,Conductor*%
%ADD16C,0.500000*%
%TD*%
G04 APERTURE END LIST*
D10*
%TO.P,D2,1,K*%
%TO.N,Net-(D1-K)*%
X120600000Y-107725000D03*
D11*
%TO.P,D2,2,A*%
%TO.N,Net-(D2-A)*%
X120600000Y-110265000D03*
%TD*%
D10*
%TO.P,Q1,1,C*%
%TO.N,BATT*%
X117325000Y-114725000D03*
D11*
%TO.P,Q1,2,E*%
%TO.N,PA3*%
X117325000Y-117265000D03*
%TD*%
D10*
%TO.P,D3,1,K*%
%TO.N,Net-(D3-K)*%
X144225000Y-105975000D03*
D11*
%TO.P,D3,2,A*%
%TO.N,Net-(D3-A)*%
X141685000Y-105975000D03*
%TD*%
D10*
%TO.P,D4,1,K*%
%TO.N,Net-(D3-K)*%
X158460000Y-105975000D03*
D11*
%TO.P,D4,2,A*%
%TO.N,Net-(D4-A)*%
X155920000Y-105975000D03*
%TD*%
D10*
%TO.P,Q3,1,C*%
%TO.N,BATT*%
X183000000Y-115750000D03*
D11*
%TO.P,Q3,2,E*%
%TO.N,PA4*%
X183000000Y-113210000D03*
%TD*%
D10*
%TO.P,Q4,1,C*%
%TO.N,BATT*%
X151200000Y-102787500D03*
D11*
%TO.P,Q4,2,E*%
%TO.N,PA5*%
X148660000Y-102787500D03*
%TD*%
D10*
%TO.P,D6,1,K*%
%TO.N,Net-(D5-K)*%
X179700000Y-109275000D03*
D11*
%TO.P,D6,2,A*%
%TO.N,Net-(D6-A)*%
X179700000Y-106735000D03*
%TD*%
D10*
%TO.P,D1,1,K*%
%TO.N,Net-(D1-K)*%
X120600000Y-121575000D03*
D11*
%TO.P,D1,2,A*%
%TO.N,Net-(D1-A)*%
X120600000Y-124115000D03*
%TD*%
D10*
%TO.P,D5,1,K*%
%TO.N,Net-(D5-K)*%
X179700000Y-122275000D03*
D11*
%TO.P,D5,2,A*%
%TO.N,Net-(D5-A)*%
X179700000Y-119735000D03*
%TD*%
D12*
%TO.P,TP8,1,1*%
%TO.N,Net-(D3-K)*%
X145450000Y-105500000D03*
%TD*%
%TO.P,TP3,1,1*%
%TO.N,Net-(D1-K)*%
X120625000Y-120350000D03*
%TD*%
%TO.P,TP1,1,1*%
%TO.N,Net-(D2-A)*%
X120625000Y-111475000D03*
%TD*%
%TO.P,TP11,1,1*%
%TO.N,Net-(D4-A)*%
X154450000Y-105500000D03*
%TD*%
%TO.P,TP14,1,1*%
%TO.N,Net-(D5-K)*%
X179675000Y-123500000D03*
%TD*%
%TO.P,TP16,1,1*%
%TO.N,GND*%
X169000000Y-117000000D03*
%TD*%
%TO.P,TP7,1,1*%
%TO.N,Net-(D3-A)*%
X140185000Y-105500000D03*
%TD*%
%TO.P,TP5,1,1*%
%TO.N,GND*%
X131625000Y-114000000D03*
%TD*%
D13*
%TO.P,J1,1,Pin_1*%
%TO.N,RESV3*%
X166580000Y-148040000D03*
D14*
%TO.P,J1,2,Pin_2*%
%TO.N,3V3*%
X166580000Y-145500000D03*
%TO.P,J1,3,Pin_3*%
%TO.N,GND*%
X164040000Y-148040000D03*
%TO.P,J1,4,Pin_4*%
%TO.N,BATT*%
X164040000Y-145500000D03*
%TO.P,J1,5,Pin_5*%
%TO.N,PA3*%
X161500000Y-148040000D03*
%TO.P,J1,6,Pin_6*%
%TO.N,RESV2*%
X161500000Y-145500000D03*
%TO.P,J1,7,Pin_7*%
%TO.N,PA4*%
X158960000Y-148040000D03*
%TO.P,J1,8,Pin_8*%
%TO.N,PE15*%
X158960000Y-145500000D03*
%TO.P,J1,9,Pin_9*%
%TO.N,GND*%
X156420000Y-148040000D03*
%TO.P,J1,10,Pin_10*%
%TO.N,PE14*%
X156420000Y-145500000D03*
%TO.P,J1,11,Pin_11*%
%TO.N,PA5*%
X153880000Y-148040000D03*
%TO.P,J1,12,Pin_12*%
%TO.N,PE13*%
X153880000Y-145500000D03*
%TO.P,J1,13,Pin_13*%
%TO.N,PA6*%
X151340000Y-148040000D03*
%TO.P,J1,14,Pin_14*%
%TO.N,PE12*%
X151340000Y-145500000D03*
%TO.P,J1,15,Pin_15*%
%TO.N,GND*%
X148800000Y-148040000D03*
%TO.P,J1,16,Pin_16*%
%TO.N,PE11*%
X148800000Y-145500000D03*
%TO.P,J1,17,Pin_17*%
%TO.N,PA7*%
X146260000Y-148040000D03*
%TO.P,J1,18,Pin_18*%
%TO.N,PE10*%
X146260000Y-145500000D03*
%TO.P,J1,19,Pin_19*%
%TO.N,PC4*%
X143720000Y-148040000D03*
%TO.P,J1,20,Pin_20*%
%TO.N,PE9*%
X143720000Y-145500000D03*
%TO.P,J1,21,Pin_21*%
%TO.N,GND*%
X141180000Y-148040000D03*
%TO.P,J1,22,Pin_22*%
%TO.N,PE8*%
X141180000Y-145500000D03*
%TO.P,J1,23,Pin_23*%
%TO.N,PC5*%
X138640000Y-148040000D03*
%TO.P,J1,24,Pin_24*%
%TO.N,RESV1*%
X138640000Y-145500000D03*
%TO.P,J1,25,Pin_25*%
%TO.N,AB0*%
X136100000Y-148040000D03*
%TO.P,J1,26,Pin_26*%
%TO.N,BATT*%
X136100000Y-145500000D03*
%TO.P,J1,27,Pin_27*%
%TO.N,GND*%
X133560000Y-148040000D03*
%TO.P,J1,28,Pin_28*%
%TO.N,3V3*%
X133560000Y-145500000D03*
%TD*%
D12*
%TO.P,TP2,1,1*%
%TO.N,Net-(D1-A)*%
X120625000Y-125350000D03*
%TD*%
%TO.P,TP13,1,1*%
%TO.N,Net-(D5-A)*%
X179675000Y-119000000D03*
%TD*%
%TO.P,TP18,1,1*%
%TO.N,Net-(D5-K)*%
X179675000Y-110000000D03*
%TD*%
%TO.P,TP15,1,1*%
%TO.N,Net-(JP9-A)*%
X169000000Y-112500000D03*
%TD*%
%TO.P,TP9,1,1*%
%TO.N,Net-(JP6-A)*%
X147450000Y-118462500D03*
%TD*%
%TO.P,TP4,1,1*%
%TO.N,Net-(D1-K)*%
X120625000Y-106350000D03*
%TD*%
%TO.P,TP10,1,1*%
%TO.N,GND*%
X152200000Y-118287500D03*
%TD*%
%TO.P,TP17,1,1*%
%TO.N,Net-(D6-A)*%
X179675000Y-105235000D03*
%TD*%
%TO.P,TP12,1,1*%
%TO.N,Net-(D3-K)*%
X159450000Y-105500000D03*
%TD*%
%TO.P,TP6,1,1*%
%TO.N,Net-(JP3-A)*%
X131625000Y-118500000D03*
%TD*%
D15*
%TO.N,GND*%
X134554300Y-114654200D03*
X171075000Y-116814600D03*
%TO.N,Net-(D1-K)*%
X126609200Y-116050000D03*
%TO.N,Net-(D3-K)*%
X149950000Y-113717100D03*
%TO.N,PE13*%
X150000400Y-123620900D03*
%TO.N,PA4*%
X177536200Y-119452200D03*
X174322500Y-113737000D03*
%TO.N,PA3*%
X167018000Y-143688100D03*
%TO.N,BATT*%
X173763600Y-120723900D03*
%TO.N,Net-(JP3-A)*%
X131412600Y-116248100D03*
%TO.N,Net-(JP6-A)*%
X149125000Y-119970400D03*
%TO.N,Net-(JP9-A)*%
X166931800Y-113573600D03*
%TD*%
D16*
%TO.N,GND*%
X134554300Y-117278600D02*
X134554300Y-114654200D01*
X169000000Y-117000000D02*
X170889600Y-117000000D01*
X133560000Y-148040000D02*
X132258200Y-146738200D01*
X141583100Y-124307400D02*
X134554300Y-117278600D01*
X132258200Y-146738200D02*
X132258200Y-133632300D01*
X146180100Y-124307400D02*
X152200000Y-118287500D01*
X132279200Y-114654200D02*
X131625000Y-114000000D01*
X141583100Y-124307400D02*
X146180100Y-124307400D01*
X132258200Y-133632300D02*
X141583100Y-124307400D01*
X167712500Y-118287500D02*
X169000000Y-117000000D01*
X170889600Y-117000000D02*
X171075000Y-116814600D01*
X152200000Y-118287500D02*
X167712500Y-118287500D01*
X134554300Y-114654200D02*
X132279200Y-114654200D01*
%TO.N,Net-(D1-A)*%
X120625000Y-125350000D02*
X120600000Y-125325000D01*
X120600000Y-125325000D02*
X120600000Y-124115000D01*
%TO.N,Net-(D1-K)*%
X122583100Y-118391900D02*
X120625000Y-120350000D01*
X120625000Y-106350000D02*
X120600000Y-106375000D01*
X122583100Y-109708100D02*
X122583100Y-116050000D01*
X120600000Y-107725000D02*
X122583100Y-109708100D01*
X122583100Y-116050000D02*
X122583100Y-118391900D01*
X120600000Y-106375000D02*
X120600000Y-107725000D01*
X120625000Y-120350000D02*
X120600000Y-120375000D01*
X120600000Y-120375000D02*
X120600000Y-121575000D01*
X122583100Y-116050000D02*
X126609200Y-116050000D01*
%TO.N,Net-(D2-A)*%
X120600000Y-111450000D02*
X120600000Y-110265000D01*
X120625000Y-111475000D02*
X120600000Y-111450000D01*
%TO.N,Net-(D3-A)*%
X140185000Y-105500000D02*
X141210000Y-105500000D01*
X141210000Y-105500000D02*
X141685000Y-105975000D01*
%TO.N,Net-(D3-K)*%
X144225000Y-105975000D02*
X145625000Y-105975000D01*
X151388200Y-111738200D02*
X149950000Y-113176400D01*
X158460000Y-105975000D02*
X152696800Y-111738200D01*
X152696800Y-111738200D02*
X151388200Y-111738200D01*
X149950000Y-113176400D02*
X149950000Y-113717100D01*
X159450000Y-105500000D02*
X158935000Y-105500000D01*
X158935000Y-105500000D02*
X158460000Y-105975000D01*
X145625000Y-105675000D02*
X145450000Y-105500000D01*
X145625000Y-105975000D02*
X145625000Y-105675000D01*
X151388200Y-111738200D02*
X145625000Y-105975000D01*
%TO.N,Net-(D4-A)*%
X155445000Y-105500000D02*
X155920000Y-105975000D01*
X154450000Y-105500000D02*
X155445000Y-105500000D01*
%TO.N,Net-(D5-K)*%
X184394800Y-117580200D02*
X184394800Y-112653300D01*
X179700000Y-123475000D02*
X179700000Y-122275000D01*
X179700000Y-109987500D02*
X179687500Y-109987500D01*
X184394800Y-112653300D02*
X181729000Y-109987500D01*
X181729000Y-109987500D02*
X179700000Y-109987500D01*
X179675000Y-123500000D02*
X179700000Y-123475000D01*
X179687500Y-109987500D02*
X179675000Y-110000000D01*
X179700000Y-122275000D02*
X184394800Y-117580200D01*
X179700000Y-109987500D02*
X179700000Y-109275000D01*
%TO.N,Net-(D5-A)*%
X179700000Y-119025000D02*
X179700000Y-119735000D01*
X179675000Y-119000000D02*
X179700000Y-119025000D01*
%TO.N,Net-(D6-A)*%
X179700000Y-105260000D02*
X179700000Y-106735000D01*
X179675000Y-105235000D02*
X179700000Y-105260000D01*
%TO.N,PE13*%
X153880000Y-145500000D02*
X153880000Y-127500500D01*
X153880000Y-127500500D02*
X150000400Y-123620900D01*
%TO.N,PA4*%
X160977700Y-150057700D02*
X167995000Y-150057700D01*
X167995000Y-150057700D02*
X168650000Y-149402700D01*
X158960000Y-148040000D02*
X160977700Y-150057700D01*
X168650000Y-149402700D02*
X168650000Y-128338400D01*
X183000000Y-113210000D02*
X182473000Y-113737000D01*
X168650000Y-128338400D02*
X177536200Y-119452200D01*
X182473000Y-113737000D02*
X174322500Y-113737000D01*
%TO.N,PA3*%
X167633000Y-149356000D02*
X167948300Y-149040700D01*
X167948300Y-144618400D02*
X167018000Y-143688100D01*
X167948300Y-149040700D02*
X167948300Y-144618400D01*
X162816000Y-149356000D02*
X167633000Y-149356000D01*
X161500000Y-148040000D02*
X162816000Y-149356000D01*
%TO.N,BATT*%
X164040000Y-131853300D02*
X174466500Y-121426800D01*
X174466500Y-121426800D02*
X180143300Y-115750000D01*
X180143300Y-115750000D02*
X183000000Y-115750000D01*
X174466500Y-121426800D02*
X173763600Y-120723900D01*
X164040000Y-145500000D02*
X164040000Y-131853300D01*
%TO.N,PA5*%
X140049100Y-102787500D02*
X148660000Y-102787500D01*
X133034300Y-149393100D02*
X131556500Y-147915300D01*
X152526900Y-149393100D02*
X133034300Y-149393100D01*
X129667900Y-113168700D02*
X140049100Y-102787500D01*
X153880000Y-148040000D02*
X152526900Y-149393100D01*
X129667900Y-120782700D02*
X129667900Y-113168700D01*
X131556500Y-147915300D02*
X131556500Y-122671300D01*
X131556500Y-122671300D02*
X129667900Y-120782700D01*
%TO.N,Net-(JP3-A)*%
X131412600Y-118287600D02*
X131412600Y-116248100D01*
X131625000Y-118500000D02*
X131412600Y-118287600D01*
%TO.N,Net-(JP6-A)*%
X147450000Y-118462500D02*
X147617100Y-118462500D01*
X147617100Y-118462500D02*
X149125000Y-119970400D01*
%TO.N,Net-(JP9-A)*%
X168005400Y-112500000D02*
X166931800Y-113573600D01*
X169000000Y-112500000D02*
X168005400Y-112500000D01*
%TD*%
M02*
