M48
; DRILL file {KiCad 8.0.1} date 2024-03-24T19:01:41+0200
; FORMAT={-:-/ absolute / inch / decimal}
; #@! TF.CreationDate,2024-03-24T19:01:41+02:00
; #@! TF.GenerationSoftware,Kicad,Pcbnew,8.0.1
; #@! TF.FileFunction,Plated,1,2,PTH
FMAT,2
INCH
; #@! TA.AperFunction,Plated,PTH,ViaDrill
T1C0.0118
; #@! TA.AperFunction,Plated,PTH,ComponentDrill
T2C0.0354
; #@! TA.AperFunction,Plated,PTH,ComponentDrill
T3C0.0394
%
G90
G05
T1
X4.9846Y-4.5689
X5.1737Y-4.5767
X5.2974Y-4.5139
X5.8711Y-4.7232
X5.9035Y-4.4771
X5.9055Y-4.867
X6.5721Y-4.4714
X6.5755Y-5.657
X6.7352Y-4.599
X6.8411Y-4.7529
X6.8631Y-4.4778
X6.9896Y-4.7028
T2
X4.6191Y-4.5167
X4.6191Y-4.6167
X4.748Y-4.2411
X4.748Y-4.3411
X4.748Y-4.7864
X4.748Y-4.8864
X5.5781Y-4.1722
X5.6781Y-4.1722
X5.8528Y-4.0468
X5.9528Y-4.0468
X6.1386Y-4.1722
X6.2386Y-4.1722
X7.0748Y-4.2022
X7.0748Y-4.3022
X7.0748Y-4.714
X7.0748Y-4.814
X7.2047Y-4.4571
X7.2047Y-4.5571
T3
X5.2583Y-5.7283
X5.2583Y-5.8283
X5.3583Y-5.7283
X5.3583Y-5.8283
X5.4583Y-5.7283
X5.4583Y-5.8283
X5.5583Y-5.7283
X5.5583Y-5.8283
X5.6583Y-5.7283
X5.6583Y-5.8283
X5.7583Y-5.7283
X5.7583Y-5.8283
X5.8583Y-5.7283
X5.8583Y-5.8283
X5.9583Y-5.7283
X5.9583Y-5.8283
X6.0583Y-5.7283
X6.0583Y-5.8283
X6.1583Y-5.7283
X6.1583Y-5.8283
X6.2583Y-5.7283
X6.2583Y-5.8283
X6.3583Y-5.7283
X6.3583Y-5.8283
X6.4583Y-5.7283
X6.4583Y-5.8283
X6.5583Y-5.7283
X6.5583Y-5.8283
M30
