%TF.GenerationSoftware,KiCad,Pcbnew,8.0.1*%
%TF.CreationDate,2024-03-24T19:01:41+02:00*%
%TF.ProjectId,PLLKAS005_EEE3088F,504c4c4b-4153-4303-9035-5f4545453330,V1.0*%
%TF.SameCoordinates,Original*%
%TF.FileFunction,Soldermask,Bot*%
%TF.FilePolarity,Negative*%
%FSLAX46Y46*%
G04 Gerber Fmt 4.6, Leading zero omitted, Abs format (unit mm)*
G04 Created by KiCad (PCBNEW 8.0.1) date 2024-03-24 19:01:41*
%MOMM*%
%LPD*%
G01*
G04 APERTURE LIST*
%ADD10R,1.800000X1.800000*%
%ADD11C,1.800000*%
%ADD12C,3.000000*%
%ADD13R,1.700000X1.700000*%
%ADD14O,1.700000X1.700000*%
G04 APERTURE END LIST*
D10*
%TO.C,D2*%
X120600000Y-107725000D03*
D11*
X120600000Y-110265000D03*
%TD*%
D10*
%TO.C,Q1*%
X117325000Y-114725000D03*
D11*
X117325000Y-117265000D03*
%TD*%
D10*
%TO.C,D3*%
X144225000Y-105975000D03*
D11*
X141685000Y-105975000D03*
%TD*%
D10*
%TO.C,D4*%
X158460000Y-105975000D03*
D11*
X155920000Y-105975000D03*
%TD*%
D10*
%TO.C,Q3*%
X183000000Y-115750000D03*
D11*
X183000000Y-113210000D03*
%TD*%
D10*
%TO.C,Q4*%
X151200000Y-102787500D03*
D11*
X148660000Y-102787500D03*
%TD*%
D10*
%TO.C,D6*%
X179700000Y-109275000D03*
D11*
X179700000Y-106735000D03*
%TD*%
D10*
%TO.C,D1*%
X120600000Y-121575000D03*
D11*
X120600000Y-124115000D03*
%TD*%
D10*
%TO.C,D5*%
X179700000Y-122275000D03*
D11*
X179700000Y-119735000D03*
%TD*%
D12*
%TO.C,TP8*%
X145450000Y-105500000D03*
%TD*%
%TO.C,TP3*%
X120625000Y-120350000D03*
%TD*%
%TO.C,TP1*%
X120625000Y-111475000D03*
%TD*%
%TO.C,TP11*%
X154450000Y-105500000D03*
%TD*%
%TO.C,TP14*%
X179675000Y-123500000D03*
%TD*%
%TO.C,TP16*%
X169000000Y-117000000D03*
%TD*%
%TO.C,TP7*%
X140185000Y-105500000D03*
%TD*%
%TO.C,TP5*%
X131625000Y-114000000D03*
%TD*%
D13*
%TO.C,J1*%
X166580000Y-148040000D03*
D14*
X166580000Y-145500000D03*
X164040000Y-148040000D03*
X164040000Y-145500000D03*
X161500000Y-148040000D03*
X161500000Y-145500000D03*
X158960000Y-148040000D03*
X158960000Y-145500000D03*
X156420000Y-148040000D03*
X156420000Y-145500000D03*
X153880000Y-148040000D03*
X153880000Y-145500000D03*
X151340000Y-148040000D03*
X151340000Y-145500000D03*
X148800000Y-148040000D03*
X148800000Y-145500000D03*
X146260000Y-148040000D03*
X146260000Y-145500000D03*
X143720000Y-148040000D03*
X143720000Y-145500000D03*
X141180000Y-148040000D03*
X141180000Y-145500000D03*
X138640000Y-148040000D03*
X138640000Y-145500000D03*
X136100000Y-148040000D03*
X136100000Y-145500000D03*
X133560000Y-148040000D03*
X133560000Y-145500000D03*
%TD*%
D12*
%TO.C,TP2*%
X120625000Y-125350000D03*
%TD*%
%TO.C,TP13*%
X179675000Y-119000000D03*
%TD*%
%TO.C,TP18*%
X179675000Y-110000000D03*
%TD*%
%TO.C,TP15*%
X169000000Y-112500000D03*
%TD*%
%TO.C,TP9*%
X147450000Y-118462500D03*
%TD*%
%TO.C,TP4*%
X120625000Y-106350000D03*
%TD*%
%TO.C,TP10*%
X152200000Y-118287500D03*
%TD*%
%TO.C,TP17*%
X179675000Y-105235000D03*
%TD*%
%TO.C,TP12*%
X159450000Y-105500000D03*
%TD*%
%TO.C,TP6*%
X131625000Y-118500000D03*
%TD*%
M02*
