%TF.GenerationSoftware,KiCad,Pcbnew,8.0.1*%
%TF.CreationDate,2024-03-24T19:01:41+02:00*%
%TF.ProjectId,PLLKAS005_EEE3088F,504c4c4b-4153-4303-9035-5f4545453330,V1.0*%
%TF.SameCoordinates,Original*%
%TF.FileFunction,Copper,L1,Top*%
%TF.FilePolarity,Positive*%
%FSLAX46Y46*%
G04 Gerber Fmt 4.6, Leading zero omitted, Abs format (unit mm)*
G04 Created by KiCad (PCBNEW 8.0.1) date 2024-03-24 19:01:41*
%MOMM*%
%LPD*%
G01*
G04 APERTURE LIST*
G04 Aperture macros list*
%AMRoundRect*
0 Rectangle with rounded corners*
0 $1 Rounding radius*
0 $2 $3 $4 $5 $6 $7 $8 $9 X,Y pos of 4 corners*
0 Add a 4 corners polygon primitive as box body*
4,1,4,$2,$3,$4,$5,$6,$7,$8,$9,$2,$3,0*
0 Add four circle primitives for the rounded corners*
1,1,$1+$1,$2,$3*
1,1,$1+$1,$4,$5*
1,1,$1+$1,$6,$7*
1,1,$1+$1,$8,$9*
0 Add four rect primitives between the rounded corners*
20,1,$1+$1,$2,$3,$4,$5,0*
20,1,$1+$1,$4,$5,$6,$7,0*
20,1,$1+$1,$6,$7,$8,$9,0*
20,1,$1+$1,$8,$9,$2,$3,0*%
G04 Aperture macros list end*
%TA.AperFunction,ComponentPad*%
%ADD10R,1.800000X1.800000*%
%TD*%
%TA.AperFunction,ComponentPad*%
%ADD11C,1.800000*%
%TD*%
%TA.AperFunction,SMDPad,CuDef*%
%ADD12RoundRect,0.225000X-0.225000X-0.250000X0.225000X-0.250000X0.225000X0.250000X-0.225000X0.250000X0*%
%TD*%
%TA.AperFunction,SMDPad,CuDef*%
%ADD13R,1.000000X1.500000*%
%TD*%
%TA.AperFunction,SMDPad,CuDef*%
%ADD14R,1.500000X1.000000*%
%TD*%
%TA.AperFunction,SMDPad,CuDef*%
%ADD15RoundRect,0.225000X-0.250000X0.225000X-0.250000X-0.225000X0.250000X-0.225000X0.250000X0.225000X0*%
%TD*%
%TA.AperFunction,SMDPad,CuDef*%
%ADD16RoundRect,0.200000X0.275000X-0.200000X0.275000X0.200000X-0.275000X0.200000X-0.275000X-0.200000X0*%
%TD*%
%TA.AperFunction,SMDPad,CuDef*%
%ADD17RoundRect,0.150000X-0.587500X-0.150000X0.587500X-0.150000X0.587500X0.150000X-0.587500X0.150000X0*%
%TD*%
%TA.AperFunction,SMDPad,CuDef*%
%ADD18RoundRect,0.150000X0.587500X0.150000X-0.587500X0.150000X-0.587500X-0.150000X0.587500X-0.150000X0*%
%TD*%
%TA.AperFunction,SMDPad,CuDef*%
%ADD19RoundRect,0.200000X-0.275000X0.200000X-0.275000X-0.200000X0.275000X-0.200000X0.275000X0.200000X0*%
%TD*%
%TA.AperFunction,SMDPad,CuDef*%
%ADD20RoundRect,0.200000X-0.200000X-0.275000X0.200000X-0.275000X0.200000X0.275000X-0.200000X0.275000X0*%
%TD*%
%TA.AperFunction,SMDPad,CuDef*%
%ADD21RoundRect,0.150000X0.150000X-0.587500X0.150000X0.587500X-0.150000X0.587500X-0.150000X-0.587500X0*%
%TD*%
%TA.AperFunction,SMDPad,CuDef*%
%ADD22RoundRect,0.200000X0.200000X0.275000X-0.200000X0.275000X-0.200000X-0.275000X0.200000X-0.275000X0*%
%TD*%
%TA.AperFunction,ComponentPad*%
%ADD23R,1.700000X1.700000*%
%TD*%
%TA.AperFunction,ComponentPad*%
%ADD24O,1.700000X1.700000*%
%TD*%
%TA.AperFunction,ViaPad*%
%ADD25C,0.600000*%
%TD*%
%TA.AperFunction,Conductor*%
%ADD26C,0.500000*%
%TD*%
G04 APERTURE END LIST*
D10*
%TO.P,D2,1,K*%
%TO.N,Net-(D1-K)*%
X120600000Y-107725000D03*
D11*
%TO.P,D2,2,A*%
%TO.N,Net-(D2-A)*%
X120600000Y-110265000D03*
%TD*%
D12*
%TO.P,C2,1*%
%TO.N,Net-(JP11-A)*%
X124350000Y-119350000D03*
%TO.P,C2,2*%
%TO.N,GND*%
X125900000Y-119350000D03*
%TD*%
D13*
%TO.P,JP5,1,A*%
%TO.N,Net-(D4-A)*%
X160450000Y-111962500D03*
%TO.P,JP5,2,B*%
%TO.N,Net-(JP3-4-A)*%
X159150000Y-111962500D03*
%TD*%
D12*
%TO.P,C1,1*%
%TO.N,Net-(JP10-A)*%
X124350000Y-113350000D03*
%TO.P,C1,2*%
%TO.N,GND*%
X125900000Y-113350000D03*
%TD*%
D13*
%TO.P,JP12,1,A*%
%TO.N,Net-(JP12-A)*%
X178500000Y-112500000D03*
%TO.P,JP12,2,B*%
%TO.N,PA4*%
X179800000Y-112500000D03*
%TD*%
D14*
%TO.P,JP2,1,A*%
%TO.N,Net-(D2-A)*%
X127925000Y-106350000D03*
%TO.P,JP2,2,B*%
%TO.N,Net-(JP2-B)*%
X127925000Y-107650000D03*
%TD*%
%TO.P,JP7,1,A*%
%TO.N,Net-(D5-A)*%
X174500000Y-126000000D03*
%TO.P,JP7,2,B*%
%TO.N,Net-(JP3-5-B)*%
X174500000Y-124700000D03*
%TD*%
D15*
%TO.P,C6,1*%
%TO.N,Net-(JP15-A)*%
X147450000Y-110475000D03*
%TO.P,C6,2*%
%TO.N,GND*%
X147450000Y-112025000D03*
%TD*%
D14*
%TO.P,JP15,1,A*%
%TO.N,Net-(JP15-A)*%
X147950000Y-106375000D03*
%TO.P,JP15,2,B*%
%TO.N,PA5*%
X147950000Y-107675000D03*
%TD*%
D13*
%TO.P,JP13,1,A*%
%TO.N,Net-(JP13-A)*%
X178500000Y-116000000D03*
%TO.P,JP13,2,B*%
%TO.N,PA4*%
X179800000Y-116000000D03*
%TD*%
D16*
%TO.P,R6,1*%
%TO.N,PA5*%
X149625000Y-111675000D03*
%TO.P,R6,2*%
%TO.N,GND*%
X149625000Y-110025000D03*
%TD*%
D17*
%TO.P,Q6,1,B*%
%TO.N,Net-(JP9-A)*%
X169562500Y-114050000D03*
%TO.P,Q6,2,E*%
%TO.N,GND*%
X169562500Y-115950000D03*
%TO.P,Q6,3,C*%
%TO.N,Net-(D5-K)*%
X171437500Y-115000000D03*
%TD*%
D16*
%TO.P,R10,1*%
%TO.N,PE13*%
X165675000Y-113325000D03*
%TO.P,R10,2*%
%TO.N,Net-(JP9-A)*%
X165675000Y-111675000D03*
%TD*%
D10*
%TO.P,Q1,1,C*%
%TO.N,BATT*%
X117325000Y-114725000D03*
D11*
%TO.P,Q1,2,E*%
%TO.N,PA3*%
X117325000Y-117265000D03*
%TD*%
D18*
%TO.P,Q2,1,B*%
%TO.N,Net-(JP3-A)*%
X130500000Y-117000000D03*
%TO.P,Q2,2,E*%
%TO.N,GND*%
X130500000Y-115100000D03*
%TO.P,Q2,3,C*%
%TO.N,Net-(D1-K)*%
X128625000Y-116050000D03*
%TD*%
D19*
%TO.P,R4,1*%
%TO.N,Net-(JP3-1-A)*%
X127625000Y-124825000D03*
%TO.P,R4,2*%
%TO.N,Net-(D1-A)*%
X127625000Y-126475000D03*
%TD*%
D14*
%TO.P,JP3,1,A*%
%TO.N,Net-(JP3-A)*%
X133125000Y-117850000D03*
%TO.P,JP3,2,B*%
%TO.N,PE13*%
X133125000Y-119150000D03*
%TD*%
D13*
%TO.P,JP3-5,1,A*%
%TO.N,Net-(JP3-5-A)*%
X172175000Y-122000000D03*
%TO.P,JP3-5,2,C*%
%TO.N,BATT*%
X173475000Y-122000000D03*
%TO.P,JP3-5,3,B*%
%TO.N,Net-(JP3-5-B)*%
X174775000Y-122000000D03*
%TD*%
D10*
%TO.P,D3,1,K*%
%TO.N,Net-(D3-K)*%
X144225000Y-105975000D03*
D11*
%TO.P,D3,2,A*%
%TO.N,Net-(D3-A)*%
X141685000Y-105975000D03*
%TD*%
D14*
%TO.P,JP3-3,1,A*%
%TO.N,Net-(JP3-3-A)*%
X143500000Y-112562500D03*
%TO.P,JP3-3,2,C*%
%TO.N,BATT*%
X143500000Y-111262500D03*
%TO.P,JP3-3,3,B*%
%TO.N,Net-(JP3-3-B)*%
X143500000Y-109962500D03*
%TD*%
D20*
%TO.P,R9,1*%
%TO.N,Net-(JP3-4-B)*%
X158950000Y-109462500D03*
%TO.P,R9,2*%
%TO.N,Net-(D4-A)*%
X160600000Y-109462500D03*
%TD*%
D13*
%TO.P,JP3-6,1,A*%
%TO.N,Net-(JP3-6-A)*%
X172200000Y-107000000D03*
%TO.P,JP3-6,2,C*%
%TO.N,BATT*%
X173500000Y-107000000D03*
%TO.P,JP3-6,3,B*%
%TO.N,Net-(JP3-6-B)*%
X174800000Y-107000000D03*
%TD*%
D10*
%TO.P,D4,1,K*%
%TO.N,Net-(D3-K)*%
X158460000Y-105975000D03*
D11*
%TO.P,D4,2,A*%
%TO.N,Net-(D4-A)*%
X155920000Y-105975000D03*
%TD*%
D10*
%TO.P,Q3,1,C*%
%TO.N,BATT*%
X183000000Y-115750000D03*
D11*
%TO.P,Q3,2,E*%
%TO.N,PA4*%
X183000000Y-113210000D03*
%TD*%
D13*
%TO.P,JP6,1,A*%
%TO.N,Net-(JP6-A)*%
X149150000Y-121962500D03*
%TO.P,JP6,2,B*%
%TO.N,PE13*%
X150450000Y-121962500D03*
%TD*%
D14*
%TO.P,JP3-4,1,A*%
%TO.N,Net-(JP3-4-A)*%
X155950000Y-112262500D03*
%TO.P,JP3-4,2,C*%
%TO.N,BATT*%
X155950000Y-110962500D03*
%TO.P,JP3-4,3,B*%
%TO.N,Net-(JP3-4-B)*%
X155950000Y-109662500D03*
%TD*%
D12*
%TO.P,C4,1*%
%TO.N,Net-(JP13-A)*%
X171900000Y-118000000D03*
%TO.P,C4,2*%
%TO.N,GND*%
X173450000Y-118000000D03*
%TD*%
D13*
%TO.P,JP10,1,A*%
%TO.N,Net-(JP10-A)*%
X120200000Y-114500000D03*
%TO.P,JP10,2,B*%
%TO.N,PA3*%
X121500000Y-114500000D03*
%TD*%
D12*
%TO.P,C3,1*%
%TO.N,Net-(JP12-A)*%
X172125000Y-111000000D03*
%TO.P,C3,2*%
%TO.N,GND*%
X173675000Y-111000000D03*
%TD*%
D21*
%TO.P,Q5,1,B*%
%TO.N,Net-(JP6-A)*%
X149000000Y-116900000D03*
%TO.P,Q5,2,E*%
%TO.N,GND*%
X150900000Y-116900000D03*
%TO.P,Q5,3,C*%
%TO.N,Net-(D3-K)*%
X149950000Y-115025000D03*
%TD*%
D19*
%TO.P,R11,1*%
%TO.N,Net-(JP3-5-A)*%
X172000000Y-124675000D03*
%TO.P,R11,2*%
%TO.N,Net-(D5-A)*%
X172000000Y-126325000D03*
%TD*%
D16*
%TO.P,R12,1*%
%TO.N,Net-(JP3-6-B)*%
X175000000Y-104825000D03*
%TO.P,R12,2*%
%TO.N,Net-(D6-A)*%
X175000000Y-103175000D03*
%TD*%
D13*
%TO.P,JP4,1,A*%
%TO.N,Net-(D3-A)*%
X139000000Y-110262500D03*
%TO.P,JP4,2,B*%
%TO.N,Net-(JP3-3-B)*%
X140300000Y-110262500D03*
%TD*%
D15*
%TO.P,C5,1*%
%TO.N,Net-(JP14-A)*%
X151950000Y-110250000D03*
%TO.P,C5,2*%
%TO.N,GND*%
X151950000Y-111800000D03*
%TD*%
D10*
%TO.P,Q4,1,C*%
%TO.N,BATT*%
X151200000Y-102787500D03*
D11*
%TO.P,Q4,2,E*%
%TO.N,PA5*%
X148660000Y-102787500D03*
%TD*%
D10*
%TO.P,D6,1,K*%
%TO.N,Net-(D5-K)*%
X179700000Y-109275000D03*
D11*
%TO.P,D6,2,A*%
%TO.N,Net-(D6-A)*%
X179700000Y-106735000D03*
%TD*%
D20*
%TO.P,R5,1*%
%TO.N,PA4*%
X173525000Y-114500000D03*
%TO.P,R5,2*%
%TO.N,GND*%
X175175000Y-114500000D03*
%TD*%
D13*
%TO.P,JP11,1,A*%
%TO.N,Net-(JP11-A)*%
X121500000Y-117350000D03*
%TO.P,JP11,2,B*%
%TO.N,PA3*%
X120200000Y-117350000D03*
%TD*%
D10*
%TO.P,D1,1,K*%
%TO.N,Net-(D1-K)*%
X120600000Y-121575000D03*
D11*
%TO.P,D1,2,A*%
%TO.N,Net-(D1-A)*%
X120600000Y-124115000D03*
%TD*%
D10*
%TO.P,D5,1,K*%
%TO.N,Net-(D5-K)*%
X179700000Y-122275000D03*
D11*
%TO.P,D5,2,A*%
%TO.N,Net-(D5-A)*%
X179700000Y-119735000D03*
%TD*%
D13*
%TO.P,JP3-2,1,A*%
%TO.N,Net-(JP2-B)*%
X127825000Y-110350000D03*
%TO.P,JP3-2,2,C*%
%TO.N,BATT*%
X129125000Y-110350000D03*
%TO.P,JP3-2,3,B*%
%TO.N,Net-(JP3-2-B)*%
X130425000Y-110350000D03*
%TD*%
D20*
%TO.P,R1,1*%
%TO.N,PA3*%
X123850000Y-116500000D03*
%TO.P,R1,2*%
%TO.N,GND*%
X125500000Y-116500000D03*
%TD*%
D13*
%TO.P,JP3-1,1,A*%
%TO.N,Net-(JP3-1-A)*%
X127825000Y-122350000D03*
%TO.P,JP3-1,2,C*%
%TO.N,BATT*%
X129125000Y-122350000D03*
%TO.P,JP3-1,3,B*%
%TO.N,Net-(JP1-B)*%
X130425000Y-122350000D03*
%TD*%
D14*
%TO.P,JP9,1,A*%
%TO.N,Net-(JP9-A)*%
X165675000Y-116350000D03*
%TO.P,JP9,2,B*%
%TO.N,PE13*%
X165675000Y-117650000D03*
%TD*%
%TO.P,JP8,1,A*%
%TO.N,Net-(D6-A)*%
X172500000Y-104300000D03*
%TO.P,JP8,2,B*%
%TO.N,Net-(JP3-6-A)*%
X172500000Y-103000000D03*
%TD*%
%TO.P,JP1,1,A*%
%TO.N,Net-(D1-A)*%
X130125000Y-126325000D03*
%TO.P,JP1,2,B*%
%TO.N,Net-(JP1-B)*%
X130125000Y-125025000D03*
%TD*%
D22*
%TO.P,R7,1*%
%TO.N,PE13*%
X150775000Y-118962500D03*
%TO.P,R7,2*%
%TO.N,Net-(JP6-A)*%
X149125000Y-118962500D03*
%TD*%
D14*
%TO.P,JP14,1,A*%
%TO.N,Net-(JP14-A)*%
X151450000Y-106375000D03*
%TO.P,JP14,2,B*%
%TO.N,PA5*%
X151450000Y-107675000D03*
%TD*%
D16*
%TO.P,R3,1*%
%TO.N,Net-(JP3-2-B)*%
X130925000Y-107675000D03*
%TO.P,R3,2*%
%TO.N,Net-(D2-A)*%
X130925000Y-106025000D03*
%TD*%
%TO.P,R2,1*%
%TO.N,PE13*%
X132625000Y-115175000D03*
%TO.P,R2,2*%
%TO.N,Net-(JP3-A)*%
X132625000Y-113525000D03*
%TD*%
D20*
%TO.P,R8,1*%
%TO.N,Net-(JP3-3-A)*%
X138800000Y-113262500D03*
%TO.P,R8,2*%
%TO.N,Net-(D3-A)*%
X140450000Y-113262500D03*
%TD*%
D23*
%TO.P,J1,1,Pin_1*%
%TO.N,RESV3*%
X166580000Y-148040000D03*
D24*
%TO.P,J1,2,Pin_2*%
%TO.N,3V3*%
X166580000Y-145500000D03*
%TO.P,J1,3,Pin_3*%
%TO.N,GND*%
X164040000Y-148040000D03*
%TO.P,J1,4,Pin_4*%
%TO.N,BATT*%
X164040000Y-145500000D03*
%TO.P,J1,5,Pin_5*%
%TO.N,PA3*%
X161500000Y-148040000D03*
%TO.P,J1,6,Pin_6*%
%TO.N,RESV2*%
X161500000Y-145500000D03*
%TO.P,J1,7,Pin_7*%
%TO.N,PA4*%
X158960000Y-148040000D03*
%TO.P,J1,8,Pin_8*%
%TO.N,PE15*%
X158960000Y-145500000D03*
%TO.P,J1,9,Pin_9*%
%TO.N,GND*%
X156420000Y-148040000D03*
%TO.P,J1,10,Pin_10*%
%TO.N,PE14*%
X156420000Y-145500000D03*
%TO.P,J1,11,Pin_11*%
%TO.N,PA5*%
X153880000Y-148040000D03*
%TO.P,J1,12,Pin_12*%
%TO.N,PE13*%
X153880000Y-145500000D03*
%TO.P,J1,13,Pin_13*%
%TO.N,PA6*%
X151340000Y-148040000D03*
%TO.P,J1,14,Pin_14*%
%TO.N,PE12*%
X151340000Y-145500000D03*
%TO.P,J1,15,Pin_15*%
%TO.N,GND*%
X148800000Y-148040000D03*
%TO.P,J1,16,Pin_16*%
%TO.N,PE11*%
X148800000Y-145500000D03*
%TO.P,J1,17,Pin_17*%
%TO.N,PA7*%
X146260000Y-148040000D03*
%TO.P,J1,18,Pin_18*%
%TO.N,PE10*%
X146260000Y-145500000D03*
%TO.P,J1,19,Pin_19*%
%TO.N,PC4*%
X143720000Y-148040000D03*
%TO.P,J1,20,Pin_20*%
%TO.N,PE9*%
X143720000Y-145500000D03*
%TO.P,J1,21,Pin_21*%
%TO.N,GND*%
X141180000Y-148040000D03*
%TO.P,J1,22,Pin_22*%
%TO.N,PE8*%
X141180000Y-145500000D03*
%TO.P,J1,23,Pin_23*%
%TO.N,PC5*%
X138640000Y-148040000D03*
%TO.P,J1,24,Pin_24*%
%TO.N,RESV1*%
X138640000Y-145500000D03*
%TO.P,J1,25,Pin_25*%
%TO.N,AB0*%
X136100000Y-148040000D03*
%TO.P,J1,26,Pin_26*%
%TO.N,BATT*%
X136100000Y-145500000D03*
%TO.P,J1,27,Pin_27*%
%TO.N,GND*%
X133560000Y-148040000D03*
%TO.P,J1,28,Pin_28*%
%TO.N,3V3*%
X133560000Y-145500000D03*
%TD*%
D25*
%TO.N,GND*%
X134554300Y-114654200D03*
X171075000Y-116814600D03*
%TO.N,Net-(D1-K)*%
X126609200Y-116050000D03*
%TO.N,Net-(D3-K)*%
X149950000Y-113717100D03*
%TO.N,PE13*%
X150000400Y-123620900D03*
%TO.N,PA4*%
X177536200Y-119452200D03*
X174322500Y-113737000D03*
%TO.N,PA3*%
X167018000Y-143688100D03*
%TO.N,BATT*%
X173763600Y-120723900D03*
%TO.N,Net-(JP3-A)*%
X131412600Y-116248100D03*
%TO.N,Net-(JP6-A)*%
X149125000Y-119970400D03*
%TO.N,Net-(JP9-A)*%
X166931800Y-113573600D03*
%TD*%
D26*
%TO.N,GND*%
X156420000Y-149365100D02*
X148800000Y-149365100D01*
X162714900Y-149365100D02*
X156420000Y-149365100D01*
X172860400Y-117410400D02*
X173450000Y-118000000D01*
X150900000Y-116900000D02*
X150900000Y-112850000D01*
X147450000Y-112025000D02*
X147625000Y-112025000D01*
X175175000Y-114500000D02*
X172860400Y-116814600D01*
X141180000Y-149365100D02*
X134885100Y-149365100D01*
X135594400Y-115694300D02*
X143780700Y-115694300D01*
X169562500Y-115950000D02*
X170210400Y-115950000D01*
X170210400Y-115950000D02*
X171075000Y-116814600D01*
X130500000Y-115100000D02*
X130500000Y-114154600D01*
X125500000Y-115359200D02*
X126704600Y-114154600D01*
X141180000Y-149365100D02*
X141180000Y-149390000D01*
X130500000Y-114154600D02*
X131998100Y-112656500D01*
X172860400Y-116814600D02*
X171075000Y-116814600D01*
X141204900Y-149365100D02*
X141180000Y-149390000D01*
X149368700Y-112850000D02*
X148084400Y-111565600D01*
X148800000Y-149365100D02*
X141204900Y-149365100D01*
X125900000Y-119350000D02*
X125500000Y-118950000D01*
X134885100Y-149365100D02*
X133560000Y-148040000D01*
X133162500Y-112656500D02*
X134554300Y-114048300D01*
X134554300Y-114654200D02*
X135594400Y-115694300D01*
X148084400Y-111565600D02*
X149625000Y-110025000D01*
X125500000Y-118950000D02*
X125500000Y-116500000D01*
X173675000Y-111000000D02*
X175175000Y-112500000D01*
X131998100Y-112656500D02*
X133162500Y-112656500D01*
X150900000Y-112850000D02*
X149368700Y-112850000D01*
X172860400Y-116814600D02*
X172860400Y-117410400D01*
X125500000Y-116500000D02*
X125500000Y-115359200D01*
X141180000Y-148040000D02*
X141180000Y-149365100D01*
X134554300Y-114048300D02*
X134554300Y-114654200D01*
X147625000Y-112025000D02*
X148084400Y-111565600D01*
X143780700Y-115694300D02*
X147450000Y-112025000D01*
X126704600Y-114154600D02*
X125900000Y-113350000D01*
X148800000Y-148040000D02*
X148800000Y-149365100D01*
X156420000Y-148040000D02*
X156420000Y-149365100D01*
X150900000Y-112850000D02*
X151950000Y-111800000D01*
X130500000Y-114154600D02*
X126704600Y-114154600D01*
X164040000Y-148040000D02*
X162714900Y-149365100D01*
X175175000Y-112500000D02*
X175175000Y-114500000D01*
%TO.N,Net-(JP10-A)*%
X124250000Y-113250000D02*
X124350000Y-113350000D01*
X120200000Y-113250000D02*
X124250000Y-113250000D01*
X120200000Y-114500000D02*
X120200000Y-113250000D01*
%TO.N,Net-(JP11-A)*%
X121500000Y-117350000D02*
X122500000Y-117350000D01*
X122500000Y-117500000D02*
X124350000Y-119350000D01*
X122500000Y-117350000D02*
X122500000Y-117500000D01*
%TO.N,Net-(JP12-A)*%
X178500000Y-112500000D02*
X177500000Y-112500000D01*
X175020400Y-110020400D02*
X177500000Y-112500000D01*
X173104600Y-110020400D02*
X175020400Y-110020400D01*
X172125000Y-111000000D02*
X173104600Y-110020400D01*
%TO.N,Net-(JP13-A)*%
X171900000Y-118000000D02*
X172827600Y-118927600D01*
X172827600Y-118927600D02*
X174572400Y-118927600D01*
X178500000Y-116000000D02*
X177500000Y-116000000D01*
X174572400Y-118927600D02*
X177500000Y-116000000D01*
%TO.N,Net-(JP14-A)*%
X151450000Y-106375000D02*
X152700000Y-106375000D01*
X152700000Y-106375000D02*
X152700000Y-109500000D01*
X152700000Y-109500000D02*
X151950000Y-110250000D01*
%TO.N,Net-(JP15-A)*%
X146700000Y-109725000D02*
X147450000Y-110475000D01*
X147950000Y-106375000D02*
X146700000Y-106375000D01*
X146700000Y-106375000D02*
X146700000Y-109725000D01*
%TO.N,Net-(D1-A)*%
X120600000Y-124115000D02*
X122810000Y-126325000D01*
X127625000Y-126325000D02*
X127625000Y-126475000D01*
X130125000Y-126325000D02*
X128875000Y-126325000D01*
X127625000Y-126325000D02*
X128875000Y-126325000D01*
X122810000Y-126325000D02*
X127625000Y-126325000D01*
%TO.N,Net-(D1-K)*%
X126609200Y-116050000D02*
X128625000Y-116050000D01*
%TO.N,Net-(D2-A)*%
X128550000Y-106350000D02*
X129175000Y-106350000D01*
X130925000Y-106025000D02*
X129500000Y-106025000D01*
X129500000Y-106025000D02*
X129175000Y-106350000D01*
X124515000Y-106350000D02*
X120600000Y-110265000D01*
X127925000Y-106350000D02*
X124515000Y-106350000D01*
X128550000Y-106350000D02*
X127925000Y-106350000D01*
%TO.N,Net-(D3-A)*%
X139000000Y-108660000D02*
X139000000Y-110262500D01*
X139000000Y-111812500D02*
X140450000Y-113262500D01*
X141685000Y-105975000D02*
X139000000Y-108660000D01*
X139000000Y-110262500D02*
X139000000Y-111812500D01*
%TO.N,Net-(D3-K)*%
X149950000Y-115025000D02*
X149950000Y-113717100D01*
%TO.N,Net-(D4-A)*%
X160450000Y-109612500D02*
X160600000Y-109462500D01*
X160600000Y-109462500D02*
X158532000Y-107394500D01*
X157339500Y-107394500D02*
X155920000Y-105975000D01*
X160450000Y-111962500D02*
X160450000Y-109612500D01*
X158532000Y-107394500D02*
X157339500Y-107394500D01*
%TO.N,Net-(D5-K)*%
X171180000Y-110494000D02*
X171180000Y-114742500D01*
X171180000Y-114742500D02*
X171437500Y-115000000D01*
X172399000Y-109275000D02*
X171180000Y-110494000D01*
X179700000Y-109275000D02*
X172399000Y-109275000D01*
%TO.N,Net-(D5-A)*%
X172000000Y-126325000D02*
X172925000Y-126325000D01*
X175750000Y-126000000D02*
X175750000Y-123685000D01*
X173875000Y-126000000D02*
X173250000Y-126000000D01*
X175750000Y-123685000D02*
X179700000Y-119735000D01*
X172925000Y-126325000D02*
X173250000Y-126000000D01*
X173875000Y-126000000D02*
X174500000Y-126000000D01*
X174500000Y-126000000D02*
X175750000Y-126000000D01*
%TO.N,Net-(D6-A)*%
X179700000Y-106735000D02*
X176140000Y-103175000D01*
X172500000Y-104300000D02*
X173875000Y-104300000D01*
X176140000Y-103175000D02*
X175000000Y-103175000D01*
X173875000Y-104300000D02*
X175000000Y-103175000D01*
%TO.N,3V3*%
X164563300Y-143483300D02*
X166580000Y-145500000D01*
X133560000Y-145500000D02*
X135576700Y-143483300D01*
X135576700Y-143483300D02*
X164563300Y-143483300D01*
%TO.N,PE13*%
X165204200Y-118625600D02*
X165675000Y-118625600D01*
X150775000Y-118962500D02*
X163315100Y-118962500D01*
X150450000Y-123171300D02*
X150000400Y-123620900D01*
X163315100Y-118962500D02*
X164428100Y-117849500D01*
X150775000Y-122262500D02*
X150775000Y-118962500D01*
X133125000Y-119150000D02*
X133980500Y-119150000D01*
X165675000Y-113325000D02*
X164428100Y-114571900D01*
X139151000Y-123620900D02*
X134330300Y-118800200D01*
X134330300Y-116880300D02*
X134330300Y-118800200D01*
X150000400Y-123620900D02*
X139151000Y-123620900D01*
X150450000Y-122587500D02*
X150775000Y-122262500D01*
X132625000Y-115175000D02*
X134330300Y-116880300D01*
X150450000Y-122587500D02*
X150450000Y-123171300D01*
X164428100Y-117849500D02*
X165204200Y-118625600D01*
X150450000Y-121962500D02*
X150450000Y-122587500D01*
X133980500Y-119150000D02*
X134330300Y-118800200D01*
X165675000Y-117650000D02*
X165675000Y-118625600D01*
X164428100Y-114571900D02*
X164428100Y-117849500D01*
%TO.N,PA4*%
X179738400Y-117250000D02*
X179800000Y-117250000D01*
X181425000Y-113125000D02*
X180800000Y-112500000D01*
X173525000Y-114500000D02*
X174288000Y-113737000D01*
X179800000Y-114750000D02*
X181425000Y-113125000D01*
X179800000Y-116000000D02*
X179800000Y-114750000D01*
X179800000Y-112500000D02*
X180800000Y-112500000D01*
X174288000Y-113737000D02*
X174322500Y-113737000D01*
X177536200Y-119452200D02*
X179738400Y-117250000D01*
X179800000Y-116000000D02*
X179800000Y-117250000D01*
X183000000Y-113210000D02*
X181510000Y-113210000D01*
X181510000Y-113210000D02*
X181425000Y-113125000D01*
%TO.N,PA3*%
X120200000Y-117350000D02*
X120200000Y-116100000D01*
X141260700Y-129132900D02*
X132465700Y-120337900D01*
X119115000Y-117265000D02*
X119200000Y-117350000D01*
X120200000Y-117350000D02*
X119200000Y-117350000D01*
X121500000Y-114500000D02*
X121500000Y-115425000D01*
X122775000Y-115425000D02*
X121500000Y-115425000D01*
X167018000Y-143688100D02*
X152462800Y-129132900D01*
X117325000Y-117265000D02*
X119115000Y-117265000D01*
X121711000Y-118600000D02*
X120200000Y-118600000D01*
X123448900Y-120337900D02*
X121711000Y-118600000D01*
X120200000Y-117350000D02*
X120200000Y-118600000D01*
X132465700Y-120337900D02*
X123448900Y-120337900D01*
X120825000Y-116100000D02*
X120200000Y-116100000D01*
X121500000Y-115425000D02*
X120825000Y-116100000D01*
X123850000Y-116500000D02*
X122775000Y-115425000D01*
X152462800Y-129132900D02*
X141260700Y-129132900D01*
%TO.N,BATT*%
X173737500Y-120750000D02*
X173763600Y-120723900D01*
X129125000Y-122350000D02*
X129125000Y-121100000D01*
X138588100Y-114931500D02*
X135256600Y-111600000D01*
X115958600Y-117846700D02*
X115958600Y-116091400D01*
X170496000Y-102734000D02*
X170496000Y-104579300D01*
X162725400Y-144185400D02*
X164040000Y-145500000D01*
X184406200Y-114343800D02*
X184406200Y-109526400D01*
X128673700Y-111932200D02*
X128651100Y-111954800D01*
X144750000Y-113361900D02*
X143180400Y-114931500D01*
X125566800Y-111956300D02*
X120443700Y-111956300D01*
X154700000Y-107302800D02*
X153688100Y-106290900D01*
X121945500Y-120170800D02*
X118282700Y-120170800D01*
X145890000Y-103630100D02*
X145890000Y-110122500D01*
X155399700Y-104579300D02*
X153688100Y-106290900D01*
X122874700Y-121100000D02*
X121945500Y-120170800D01*
X117325000Y-114725000D02*
X118725000Y-114725000D01*
X144750000Y-111262500D02*
X144750000Y-113361900D01*
X135256600Y-111600000D02*
X129125000Y-111600000D01*
X173475000Y-120750000D02*
X173737500Y-120750000D01*
X128651100Y-111954800D02*
X125568300Y-111954800D01*
X128792800Y-111932200D02*
X128673700Y-111932200D01*
X115958600Y-116091400D02*
X117325000Y-114725000D01*
X171481800Y-108250000D02*
X173500000Y-108250000D01*
X173475000Y-122000000D02*
X173475000Y-120750000D01*
X183000000Y-115750000D02*
X184406200Y-114343800D01*
X171237300Y-101992700D02*
X170496000Y-102734000D01*
X154700000Y-110962500D02*
X154700000Y-107302800D01*
X120443700Y-111956300D02*
X118725000Y-113675000D01*
X149831100Y-101418600D02*
X148101500Y-101418600D01*
X125568300Y-111954800D02*
X125566800Y-111956300D01*
X129125000Y-110350000D02*
X129125000Y-111600000D01*
X118725000Y-113675000D02*
X118725000Y-114725000D01*
X170496000Y-104579300D02*
X155399700Y-104579300D01*
X151584700Y-104187500D02*
X151200000Y-104187500D01*
X151200000Y-102787500D02*
X149831100Y-101418600D01*
X118282700Y-120170800D02*
X115958600Y-117846700D01*
X136100000Y-145500000D02*
X137414600Y-144185400D01*
X129125000Y-121100000D02*
X122874700Y-121100000D01*
X129125000Y-111600000D02*
X128792800Y-111932200D01*
X173500000Y-107000000D02*
X173500000Y-108250000D01*
X170496000Y-104579300D02*
X170496000Y-107264200D01*
X145890000Y-110122500D02*
X144750000Y-111262500D01*
X155950000Y-110962500D02*
X154700000Y-110962500D01*
X143500000Y-111262500D02*
X144750000Y-111262500D01*
X176872500Y-101992700D02*
X171237300Y-101992700D01*
X143180400Y-114931500D02*
X138588100Y-114931500D01*
X184406200Y-109526400D02*
X176872500Y-101992700D01*
X148101500Y-101418600D02*
X145890000Y-103630100D01*
X153688100Y-106290900D02*
X151584700Y-104187500D01*
X151200000Y-102787500D02*
X151200000Y-104187500D01*
X137414600Y-144185400D02*
X162725400Y-144185400D01*
X170496000Y-107264200D02*
X171481800Y-108250000D01*
%TO.N,PA5*%
X149172000Y-107325000D02*
X148822000Y-107675000D01*
X148660000Y-102787500D02*
X149172000Y-103299500D01*
X150568000Y-110732000D02*
X150568000Y-107675000D01*
X151450000Y-107675000D02*
X150568000Y-107675000D01*
X149172000Y-103299500D02*
X149172000Y-107325000D01*
X148822000Y-107675000D02*
X147950000Y-107675000D01*
X149625000Y-111675000D02*
X150568000Y-110732000D01*
X150568000Y-107675000D02*
X149522000Y-107675000D01*
X149522000Y-107675000D02*
X149172000Y-107325000D01*
%TO.N,Net-(JP1-B)*%
X130425000Y-123725000D02*
X130425000Y-122350000D01*
X130125000Y-124025000D02*
X130425000Y-123725000D01*
X130125000Y-125025000D02*
X130125000Y-124025000D01*
%TO.N,Net-(JP2-B)*%
X127925000Y-107650000D02*
X127925000Y-108650000D01*
X127825000Y-110350000D02*
X127825000Y-108750000D01*
X127825000Y-108750000D02*
X127925000Y-108650000D01*
%TO.N,Net-(JP3-A)*%
X130500000Y-117000000D02*
X131025000Y-117000000D01*
X131412600Y-116248100D02*
X131251900Y-116248100D01*
X131693500Y-114456500D02*
X132625000Y-113525000D01*
X133125000Y-117850000D02*
X131875000Y-117850000D01*
X131693500Y-115967200D02*
X131693500Y-114456500D01*
X131251900Y-116248100D02*
X130500000Y-117000000D01*
X131025000Y-117000000D02*
X131875000Y-117850000D01*
X131412600Y-116248100D02*
X131693500Y-115967200D01*
%TO.N,Net-(JP3-1-A)*%
X127825000Y-123600000D02*
X127625000Y-123800000D01*
X127625000Y-123800000D02*
X127625000Y-124825000D01*
X127825000Y-122350000D02*
X127825000Y-123600000D01*
%TO.N,Net-(JP3-2-B)*%
X130425000Y-108175000D02*
X130425000Y-110350000D01*
X130925000Y-107675000D02*
X130425000Y-108175000D01*
%TO.N,Net-(JP3-3-A)*%
X139747400Y-114209900D02*
X142852600Y-114209900D01*
X138800000Y-113262500D02*
X139747400Y-114209900D01*
X142852600Y-114209900D02*
X143500000Y-113562500D01*
X143500000Y-112562500D02*
X143500000Y-113562500D01*
%TO.N,Net-(JP3-3-B)*%
X143500000Y-109962500D02*
X142250000Y-109962500D01*
X140300000Y-110262500D02*
X141950000Y-110262500D01*
X141950000Y-110262500D02*
X142250000Y-109962500D01*
%TO.N,Net-(JP3-4-B)*%
X155950000Y-109662500D02*
X157200000Y-109662500D01*
X157400000Y-109462500D02*
X157200000Y-109662500D01*
X158950000Y-109462500D02*
X157400000Y-109462500D01*
%TO.N,Net-(JP3-4-A)*%
X157850000Y-112262500D02*
X158150000Y-111962500D01*
X159150000Y-111962500D02*
X158150000Y-111962500D01*
X155950000Y-112262500D02*
X157850000Y-112262500D01*
%TO.N,Net-(JP3-5-A)*%
X172000000Y-124675000D02*
X172175000Y-124500000D01*
X172175000Y-124500000D02*
X172175000Y-122000000D01*
%TO.N,Net-(JP3-5-B)*%
X174500000Y-124700000D02*
X174500000Y-123700000D01*
X174775000Y-123425000D02*
X174500000Y-123700000D01*
X174775000Y-122000000D02*
X174775000Y-123425000D01*
%TO.N,Net-(JP3-6-A)*%
X172200000Y-107000000D02*
X172200000Y-105750000D01*
X171250000Y-103000000D02*
X171250000Y-105037600D01*
X171250000Y-105037600D02*
X171962400Y-105750000D01*
X172500000Y-103000000D02*
X171250000Y-103000000D01*
X171962400Y-105750000D02*
X172200000Y-105750000D01*
%TO.N,Net-(JP3-6-B)*%
X174800000Y-107000000D02*
X174800000Y-105025000D01*
X174800000Y-105025000D02*
X175000000Y-104825000D01*
%TO.N,Net-(JP6-A)*%
X149125000Y-118962500D02*
X149000000Y-118837500D01*
X149125000Y-119970400D02*
X149125000Y-118962500D01*
X149000000Y-118837500D02*
X149000000Y-116900000D01*
X149150000Y-119995400D02*
X149125000Y-119970400D01*
X149150000Y-120712500D02*
X149150000Y-119995400D01*
X149150000Y-121962500D02*
X149150000Y-120712500D01*
%TO.N,Net-(JP9-A)*%
X166975000Y-114050000D02*
X166975000Y-113616800D01*
X166931800Y-112931800D02*
X165675000Y-111675000D01*
X166975000Y-113616800D02*
X166931800Y-113573600D01*
X165675000Y-116350000D02*
X165675000Y-115350000D01*
X166931800Y-113573600D02*
X166931800Y-112931800D01*
X169562500Y-114050000D02*
X166975000Y-114050000D01*
X166975000Y-114050000D02*
X165675000Y-115350000D01*
%TD*%
M02*
