%TF.GenerationSoftware,KiCad,Pcbnew,8.0.1*%
%TF.CreationDate,2024-03-24T19:01:41+02:00*%
%TF.ProjectId,PLLKAS005_EEE3088F,504c4c4b-4153-4303-9035-5f4545453330,V1.0*%
%TF.SameCoordinates,Original*%
%TF.FileFunction,Legend,Bot*%
%TF.FilePolarity,Positive*%
%FSLAX46Y46*%
G04 Gerber Fmt 4.6, Leading zero omitted, Abs format (unit mm)*
G04 Created by KiCad (PCBNEW 8.0.1) date 2024-03-24 19:01:41*
%MOMM*%
%LPD*%
G01*
G04 APERTURE LIST*
%ADD10C,0.100000*%
%ADD11C,0.150000*%
%ADD12C,0.120000*%
%ADD13R,1.800000X1.800000*%
%ADD14C,1.800000*%
%ADD15C,3.000000*%
%ADD16R,1.700000X1.700000*%
%ADD17O,1.700000X1.700000*%
G04 APERTURE END LIST*
D10*
X157600877Y-130750038D02*
X157981830Y-130750038D01*
X157981830Y-130750038D02*
X158172306Y-130845276D01*
X158172306Y-130845276D02*
X158267544Y-130940514D01*
X158267544Y-130940514D02*
X158458020Y-131226228D01*
X158458020Y-131226228D02*
X158553258Y-131607180D01*
X158553258Y-131607180D02*
X158553258Y-132369085D01*
X158553258Y-132369085D02*
X158458020Y-132559561D01*
X158458020Y-132559561D02*
X158362782Y-132654800D01*
X158362782Y-132654800D02*
X158172306Y-132750038D01*
X158172306Y-132750038D02*
X157791353Y-132750038D01*
X157791353Y-132750038D02*
X157600877Y-132654800D01*
X157600877Y-132654800D02*
X157505639Y-132559561D01*
X157505639Y-132559561D02*
X157410401Y-132369085D01*
X157410401Y-132369085D02*
X157410401Y-131892895D01*
X157410401Y-131892895D02*
X157505639Y-131702419D01*
X157505639Y-131702419D02*
X157600877Y-131607180D01*
X157600877Y-131607180D02*
X157791353Y-131511942D01*
X157791353Y-131511942D02*
X158172306Y-131511942D01*
X158172306Y-131511942D02*
X158362782Y-131607180D01*
X158362782Y-131607180D02*
X158458020Y-131702419D01*
X158458020Y-131702419D02*
X158553258Y-131892895D01*
X156648496Y-130940514D02*
X156553258Y-130845276D01*
X156553258Y-130845276D02*
X156362782Y-130750038D01*
X156362782Y-130750038D02*
X155886591Y-130750038D01*
X155886591Y-130750038D02*
X155696115Y-130845276D01*
X155696115Y-130845276D02*
X155600877Y-130940514D01*
X155600877Y-130940514D02*
X155505639Y-131130990D01*
X155505639Y-131130990D02*
X155505639Y-131321466D01*
X155505639Y-131321466D02*
X155600877Y-131607180D01*
X155600877Y-131607180D02*
X156743734Y-132750038D01*
X156743734Y-132750038D02*
X155505639Y-132750038D01*
X154648496Y-131416704D02*
X153124687Y-131988133D01*
X153124687Y-131988133D02*
X154648496Y-132559561D01*
X152172306Y-131416704D02*
X150648497Y-131988133D01*
X150648497Y-131988133D02*
X152172306Y-132559561D01*
X149696116Y-131416704D02*
X148172307Y-131988133D01*
X148172307Y-131988133D02*
X149696116Y-132559561D01*
X146172307Y-132750038D02*
X147315164Y-132750038D01*
X146743736Y-132750038D02*
X146743736Y-130750038D01*
X146743736Y-130750038D02*
X146934212Y-131035752D01*
X146934212Y-131035752D02*
X147124688Y-131226228D01*
X147124688Y-131226228D02*
X147315164Y-131321466D01*
X144362783Y-130750038D02*
X145315164Y-130750038D01*
X145315164Y-130750038D02*
X145410402Y-131702419D01*
X145410402Y-131702419D02*
X145315164Y-131607180D01*
X145315164Y-131607180D02*
X145124688Y-131511942D01*
X145124688Y-131511942D02*
X144648497Y-131511942D01*
X144648497Y-131511942D02*
X144458021Y-131607180D01*
X144458021Y-131607180D02*
X144362783Y-131702419D01*
X144362783Y-131702419D02*
X144267545Y-131892895D01*
X144267545Y-131892895D02*
X144267545Y-132369085D01*
X144267545Y-132369085D02*
X144362783Y-132559561D01*
X144362783Y-132559561D02*
X144458021Y-132654800D01*
X144458021Y-132654800D02*
X144648497Y-132750038D01*
X144648497Y-132750038D02*
X145124688Y-132750038D01*
X145124688Y-132750038D02*
X145315164Y-132654800D01*
X145315164Y-132654800D02*
X145410402Y-132559561D01*
D11*
X146711904Y-102556819D02*
X146140476Y-102556819D01*
X146426190Y-103556819D02*
X146426190Y-102556819D01*
X145807142Y-103556819D02*
X145807142Y-102556819D01*
X145807142Y-102556819D02*
X145426190Y-102556819D01*
X145426190Y-102556819D02*
X145330952Y-102604438D01*
X145330952Y-102604438D02*
X145283333Y-102652057D01*
X145283333Y-102652057D02*
X145235714Y-102747295D01*
X145235714Y-102747295D02*
X145235714Y-102890152D01*
X145235714Y-102890152D02*
X145283333Y-102985390D01*
X145283333Y-102985390D02*
X145330952Y-103033009D01*
X145330952Y-103033009D02*
X145426190Y-103080628D01*
X145426190Y-103080628D02*
X145807142Y-103080628D01*
X144664285Y-102985390D02*
X144759523Y-102937771D01*
X144759523Y-102937771D02*
X144807142Y-102890152D01*
X144807142Y-102890152D02*
X144854761Y-102794914D01*
X144854761Y-102794914D02*
X144854761Y-102747295D01*
X144854761Y-102747295D02*
X144807142Y-102652057D01*
X144807142Y-102652057D02*
X144759523Y-102604438D01*
X144759523Y-102604438D02*
X144664285Y-102556819D01*
X144664285Y-102556819D02*
X144473809Y-102556819D01*
X144473809Y-102556819D02*
X144378571Y-102604438D01*
X144378571Y-102604438D02*
X144330952Y-102652057D01*
X144330952Y-102652057D02*
X144283333Y-102747295D01*
X144283333Y-102747295D02*
X144283333Y-102794914D01*
X144283333Y-102794914D02*
X144330952Y-102890152D01*
X144330952Y-102890152D02*
X144378571Y-102937771D01*
X144378571Y-102937771D02*
X144473809Y-102985390D01*
X144473809Y-102985390D02*
X144664285Y-102985390D01*
X144664285Y-102985390D02*
X144759523Y-103033009D01*
X144759523Y-103033009D02*
X144807142Y-103080628D01*
X144807142Y-103080628D02*
X144854761Y-103175866D01*
X144854761Y-103175866D02*
X144854761Y-103366342D01*
X144854761Y-103366342D02*
X144807142Y-103461580D01*
X144807142Y-103461580D02*
X144759523Y-103509200D01*
X144759523Y-103509200D02*
X144664285Y-103556819D01*
X144664285Y-103556819D02*
X144473809Y-103556819D01*
X144473809Y-103556819D02*
X144378571Y-103509200D01*
X144378571Y-103509200D02*
X144330952Y-103461580D01*
X144330952Y-103461580D02*
X144283333Y-103366342D01*
X144283333Y-103366342D02*
X144283333Y-103175866D01*
X144283333Y-103175866D02*
X144330952Y-103080628D01*
X144330952Y-103080628D02*
X144378571Y-103033009D01*
X144378571Y-103033009D02*
X144473809Y-102985390D01*
X125261904Y-119954819D02*
X124690476Y-119954819D01*
X124976190Y-120954819D02*
X124976190Y-119954819D01*
X124357142Y-120954819D02*
X124357142Y-119954819D01*
X124357142Y-119954819D02*
X123976190Y-119954819D01*
X123976190Y-119954819D02*
X123880952Y-120002438D01*
X123880952Y-120002438D02*
X123833333Y-120050057D01*
X123833333Y-120050057D02*
X123785714Y-120145295D01*
X123785714Y-120145295D02*
X123785714Y-120288152D01*
X123785714Y-120288152D02*
X123833333Y-120383390D01*
X123833333Y-120383390D02*
X123880952Y-120431009D01*
X123880952Y-120431009D02*
X123976190Y-120478628D01*
X123976190Y-120478628D02*
X124357142Y-120478628D01*
X123452380Y-119954819D02*
X122833333Y-119954819D01*
X122833333Y-119954819D02*
X123166666Y-120335771D01*
X123166666Y-120335771D02*
X123023809Y-120335771D01*
X123023809Y-120335771D02*
X122928571Y-120383390D01*
X122928571Y-120383390D02*
X122880952Y-120431009D01*
X122880952Y-120431009D02*
X122833333Y-120526247D01*
X122833333Y-120526247D02*
X122833333Y-120764342D01*
X122833333Y-120764342D02*
X122880952Y-120859580D01*
X122880952Y-120859580D02*
X122928571Y-120907200D01*
X122928571Y-120907200D02*
X123023809Y-120954819D01*
X123023809Y-120954819D02*
X123309523Y-120954819D01*
X123309523Y-120954819D02*
X123404761Y-120907200D01*
X123404761Y-120907200D02*
X123452380Y-120859580D01*
X125261904Y-110954819D02*
X124690476Y-110954819D01*
X124976190Y-111954819D02*
X124976190Y-110954819D01*
X124357142Y-111954819D02*
X124357142Y-110954819D01*
X124357142Y-110954819D02*
X123976190Y-110954819D01*
X123976190Y-110954819D02*
X123880952Y-111002438D01*
X123880952Y-111002438D02*
X123833333Y-111050057D01*
X123833333Y-111050057D02*
X123785714Y-111145295D01*
X123785714Y-111145295D02*
X123785714Y-111288152D01*
X123785714Y-111288152D02*
X123833333Y-111383390D01*
X123833333Y-111383390D02*
X123880952Y-111431009D01*
X123880952Y-111431009D02*
X123976190Y-111478628D01*
X123976190Y-111478628D02*
X124357142Y-111478628D01*
X122833333Y-111954819D02*
X123404761Y-111954819D01*
X123119047Y-111954819D02*
X123119047Y-110954819D01*
X123119047Y-110954819D02*
X123214285Y-111097676D01*
X123214285Y-111097676D02*
X123309523Y-111192914D01*
X123309523Y-111192914D02*
X123404761Y-111240533D01*
X156188094Y-102556819D02*
X155616666Y-102556819D01*
X155902380Y-103556819D02*
X155902380Y-102556819D01*
X155283332Y-103556819D02*
X155283332Y-102556819D01*
X155283332Y-102556819D02*
X154902380Y-102556819D01*
X154902380Y-102556819D02*
X154807142Y-102604438D01*
X154807142Y-102604438D02*
X154759523Y-102652057D01*
X154759523Y-102652057D02*
X154711904Y-102747295D01*
X154711904Y-102747295D02*
X154711904Y-102890152D01*
X154711904Y-102890152D02*
X154759523Y-102985390D01*
X154759523Y-102985390D02*
X154807142Y-103033009D01*
X154807142Y-103033009D02*
X154902380Y-103080628D01*
X154902380Y-103080628D02*
X155283332Y-103080628D01*
X153759523Y-103556819D02*
X154330951Y-103556819D01*
X154045237Y-103556819D02*
X154045237Y-102556819D01*
X154045237Y-102556819D02*
X154140475Y-102699676D01*
X154140475Y-102699676D02*
X154235713Y-102794914D01*
X154235713Y-102794914D02*
X154330951Y-102842533D01*
X152807142Y-103556819D02*
X153378570Y-103556819D01*
X153092856Y-103556819D02*
X153092856Y-102556819D01*
X153092856Y-102556819D02*
X153188094Y-102699676D01*
X153188094Y-102699676D02*
X153283332Y-102794914D01*
X153283332Y-102794914D02*
X153378570Y-102842533D01*
X184238094Y-120556819D02*
X183666666Y-120556819D01*
X183952380Y-121556819D02*
X183952380Y-120556819D01*
X183333332Y-121556819D02*
X183333332Y-120556819D01*
X183333332Y-120556819D02*
X182952380Y-120556819D01*
X182952380Y-120556819D02*
X182857142Y-120604438D01*
X182857142Y-120604438D02*
X182809523Y-120652057D01*
X182809523Y-120652057D02*
X182761904Y-120747295D01*
X182761904Y-120747295D02*
X182761904Y-120890152D01*
X182761904Y-120890152D02*
X182809523Y-120985390D01*
X182809523Y-120985390D02*
X182857142Y-121033009D01*
X182857142Y-121033009D02*
X182952380Y-121080628D01*
X182952380Y-121080628D02*
X183333332Y-121080628D01*
X181809523Y-121556819D02*
X182380951Y-121556819D01*
X182095237Y-121556819D02*
X182095237Y-120556819D01*
X182095237Y-120556819D02*
X182190475Y-120699676D01*
X182190475Y-120699676D02*
X182285713Y-120794914D01*
X182285713Y-120794914D02*
X182380951Y-120842533D01*
X180952380Y-120890152D02*
X180952380Y-121556819D01*
X181190475Y-120509200D02*
X181428570Y-121223485D01*
X181428570Y-121223485D02*
X180809523Y-121223485D01*
X170913094Y-118954819D02*
X170341666Y-118954819D01*
X170627380Y-119954819D02*
X170627380Y-118954819D01*
X170008332Y-119954819D02*
X170008332Y-118954819D01*
X170008332Y-118954819D02*
X169627380Y-118954819D01*
X169627380Y-118954819D02*
X169532142Y-119002438D01*
X169532142Y-119002438D02*
X169484523Y-119050057D01*
X169484523Y-119050057D02*
X169436904Y-119145295D01*
X169436904Y-119145295D02*
X169436904Y-119288152D01*
X169436904Y-119288152D02*
X169484523Y-119383390D01*
X169484523Y-119383390D02*
X169532142Y-119431009D01*
X169532142Y-119431009D02*
X169627380Y-119478628D01*
X169627380Y-119478628D02*
X170008332Y-119478628D01*
X168484523Y-119954819D02*
X169055951Y-119954819D01*
X168770237Y-119954819D02*
X168770237Y-118954819D01*
X168770237Y-118954819D02*
X168865475Y-119097676D01*
X168865475Y-119097676D02*
X168960713Y-119192914D01*
X168960713Y-119192914D02*
X169055951Y-119240533D01*
X167627380Y-118954819D02*
X167817856Y-118954819D01*
X167817856Y-118954819D02*
X167913094Y-119002438D01*
X167913094Y-119002438D02*
X167960713Y-119050057D01*
X167960713Y-119050057D02*
X168055951Y-119192914D01*
X168055951Y-119192914D02*
X168103570Y-119383390D01*
X168103570Y-119383390D02*
X168103570Y-119764342D01*
X168103570Y-119764342D02*
X168055951Y-119859580D01*
X168055951Y-119859580D02*
X168008332Y-119907200D01*
X168008332Y-119907200D02*
X167913094Y-119954819D01*
X167913094Y-119954819D02*
X167722618Y-119954819D01*
X167722618Y-119954819D02*
X167627380Y-119907200D01*
X167627380Y-119907200D02*
X167579761Y-119859580D01*
X167579761Y-119859580D02*
X167532142Y-119764342D01*
X167532142Y-119764342D02*
X167532142Y-119526247D01*
X167532142Y-119526247D02*
X167579761Y-119431009D01*
X167579761Y-119431009D02*
X167627380Y-119383390D01*
X167627380Y-119383390D02*
X167722618Y-119335771D01*
X167722618Y-119335771D02*
X167913094Y-119335771D01*
X167913094Y-119335771D02*
X168008332Y-119383390D01*
X168008332Y-119383390D02*
X168055951Y-119431009D01*
X168055951Y-119431009D02*
X168103570Y-119526247D01*
X141446904Y-102556819D02*
X140875476Y-102556819D01*
X141161190Y-103556819D02*
X141161190Y-102556819D01*
X140542142Y-103556819D02*
X140542142Y-102556819D01*
X140542142Y-102556819D02*
X140161190Y-102556819D01*
X140161190Y-102556819D02*
X140065952Y-102604438D01*
X140065952Y-102604438D02*
X140018333Y-102652057D01*
X140018333Y-102652057D02*
X139970714Y-102747295D01*
X139970714Y-102747295D02*
X139970714Y-102890152D01*
X139970714Y-102890152D02*
X140018333Y-102985390D01*
X140018333Y-102985390D02*
X140065952Y-103033009D01*
X140065952Y-103033009D02*
X140161190Y-103080628D01*
X140161190Y-103080628D02*
X140542142Y-103080628D01*
X139637380Y-102556819D02*
X138970714Y-102556819D01*
X138970714Y-102556819D02*
X139399285Y-103556819D01*
X136761904Y-113954819D02*
X136190476Y-113954819D01*
X136476190Y-114954819D02*
X136476190Y-113954819D01*
X135857142Y-114954819D02*
X135857142Y-113954819D01*
X135857142Y-113954819D02*
X135476190Y-113954819D01*
X135476190Y-113954819D02*
X135380952Y-114002438D01*
X135380952Y-114002438D02*
X135333333Y-114050057D01*
X135333333Y-114050057D02*
X135285714Y-114145295D01*
X135285714Y-114145295D02*
X135285714Y-114288152D01*
X135285714Y-114288152D02*
X135333333Y-114383390D01*
X135333333Y-114383390D02*
X135380952Y-114431009D01*
X135380952Y-114431009D02*
X135476190Y-114478628D01*
X135476190Y-114478628D02*
X135857142Y-114478628D01*
X134380952Y-113954819D02*
X134857142Y-113954819D01*
X134857142Y-113954819D02*
X134904761Y-114431009D01*
X134904761Y-114431009D02*
X134857142Y-114383390D01*
X134857142Y-114383390D02*
X134761904Y-114335771D01*
X134761904Y-114335771D02*
X134523809Y-114335771D01*
X134523809Y-114335771D02*
X134428571Y-114383390D01*
X134428571Y-114383390D02*
X134380952Y-114431009D01*
X134380952Y-114431009D02*
X134333333Y-114526247D01*
X134333333Y-114526247D02*
X134333333Y-114764342D01*
X134333333Y-114764342D02*
X134380952Y-114859580D01*
X134380952Y-114859580D02*
X134428571Y-114907200D01*
X134428571Y-114907200D02*
X134523809Y-114954819D01*
X134523809Y-114954819D02*
X134761904Y-114954819D01*
X134761904Y-114954819D02*
X134857142Y-114907200D01*
X134857142Y-114907200D02*
X134904761Y-114859580D01*
X168364819Y-146436666D02*
X169079104Y-146436666D01*
X169079104Y-146436666D02*
X169221961Y-146389047D01*
X169221961Y-146389047D02*
X169317200Y-146293809D01*
X169317200Y-146293809D02*
X169364819Y-146150952D01*
X169364819Y-146150952D02*
X169364819Y-146055714D01*
X169364819Y-147436666D02*
X169364819Y-146865238D01*
X169364819Y-147150952D02*
X168364819Y-147150952D01*
X168364819Y-147150952D02*
X168507676Y-147055714D01*
X168507676Y-147055714D02*
X168602914Y-146960476D01*
X168602914Y-146960476D02*
X168650533Y-146865238D01*
X125261904Y-124954819D02*
X124690476Y-124954819D01*
X124976190Y-125954819D02*
X124976190Y-124954819D01*
X124357142Y-125954819D02*
X124357142Y-124954819D01*
X124357142Y-124954819D02*
X123976190Y-124954819D01*
X123976190Y-124954819D02*
X123880952Y-125002438D01*
X123880952Y-125002438D02*
X123833333Y-125050057D01*
X123833333Y-125050057D02*
X123785714Y-125145295D01*
X123785714Y-125145295D02*
X123785714Y-125288152D01*
X123785714Y-125288152D02*
X123833333Y-125383390D01*
X123833333Y-125383390D02*
X123880952Y-125431009D01*
X123880952Y-125431009D02*
X123976190Y-125478628D01*
X123976190Y-125478628D02*
X124357142Y-125478628D01*
X123404761Y-125050057D02*
X123357142Y-125002438D01*
X123357142Y-125002438D02*
X123261904Y-124954819D01*
X123261904Y-124954819D02*
X123023809Y-124954819D01*
X123023809Y-124954819D02*
X122928571Y-125002438D01*
X122928571Y-125002438D02*
X122880952Y-125050057D01*
X122880952Y-125050057D02*
X122833333Y-125145295D01*
X122833333Y-125145295D02*
X122833333Y-125240533D01*
X122833333Y-125240533D02*
X122880952Y-125383390D01*
X122880952Y-125383390D02*
X123452380Y-125954819D01*
X123452380Y-125954819D02*
X122833333Y-125954819D01*
X181413094Y-116056819D02*
X180841666Y-116056819D01*
X181127380Y-117056819D02*
X181127380Y-116056819D01*
X180508332Y-117056819D02*
X180508332Y-116056819D01*
X180508332Y-116056819D02*
X180127380Y-116056819D01*
X180127380Y-116056819D02*
X180032142Y-116104438D01*
X180032142Y-116104438D02*
X179984523Y-116152057D01*
X179984523Y-116152057D02*
X179936904Y-116247295D01*
X179936904Y-116247295D02*
X179936904Y-116390152D01*
X179936904Y-116390152D02*
X179984523Y-116485390D01*
X179984523Y-116485390D02*
X180032142Y-116533009D01*
X180032142Y-116533009D02*
X180127380Y-116580628D01*
X180127380Y-116580628D02*
X180508332Y-116580628D01*
X178984523Y-117056819D02*
X179555951Y-117056819D01*
X179270237Y-117056819D02*
X179270237Y-116056819D01*
X179270237Y-116056819D02*
X179365475Y-116199676D01*
X179365475Y-116199676D02*
X179460713Y-116294914D01*
X179460713Y-116294914D02*
X179555951Y-116342533D01*
X178651189Y-116056819D02*
X178032142Y-116056819D01*
X178032142Y-116056819D02*
X178365475Y-116437771D01*
X178365475Y-116437771D02*
X178222618Y-116437771D01*
X178222618Y-116437771D02*
X178127380Y-116485390D01*
X178127380Y-116485390D02*
X178079761Y-116533009D01*
X178079761Y-116533009D02*
X178032142Y-116628247D01*
X178032142Y-116628247D02*
X178032142Y-116866342D01*
X178032142Y-116866342D02*
X178079761Y-116961580D01*
X178079761Y-116961580D02*
X178127380Y-117009200D01*
X178127380Y-117009200D02*
X178222618Y-117056819D01*
X178222618Y-117056819D02*
X178508332Y-117056819D01*
X178508332Y-117056819D02*
X178603570Y-117009200D01*
X178603570Y-117009200D02*
X178651189Y-116961580D01*
X184238094Y-107056819D02*
X183666666Y-107056819D01*
X183952380Y-108056819D02*
X183952380Y-107056819D01*
X183333332Y-108056819D02*
X183333332Y-107056819D01*
X183333332Y-107056819D02*
X182952380Y-107056819D01*
X182952380Y-107056819D02*
X182857142Y-107104438D01*
X182857142Y-107104438D02*
X182809523Y-107152057D01*
X182809523Y-107152057D02*
X182761904Y-107247295D01*
X182761904Y-107247295D02*
X182761904Y-107390152D01*
X182761904Y-107390152D02*
X182809523Y-107485390D01*
X182809523Y-107485390D02*
X182857142Y-107533009D01*
X182857142Y-107533009D02*
X182952380Y-107580628D01*
X182952380Y-107580628D02*
X183333332Y-107580628D01*
X181809523Y-108056819D02*
X182380951Y-108056819D01*
X182095237Y-108056819D02*
X182095237Y-107056819D01*
X182095237Y-107056819D02*
X182190475Y-107199676D01*
X182190475Y-107199676D02*
X182285713Y-107294914D01*
X182285713Y-107294914D02*
X182380951Y-107342533D01*
X181238094Y-107485390D02*
X181333332Y-107437771D01*
X181333332Y-107437771D02*
X181380951Y-107390152D01*
X181380951Y-107390152D02*
X181428570Y-107294914D01*
X181428570Y-107294914D02*
X181428570Y-107247295D01*
X181428570Y-107247295D02*
X181380951Y-107152057D01*
X181380951Y-107152057D02*
X181333332Y-107104438D01*
X181333332Y-107104438D02*
X181238094Y-107056819D01*
X181238094Y-107056819D02*
X181047618Y-107056819D01*
X181047618Y-107056819D02*
X180952380Y-107104438D01*
X180952380Y-107104438D02*
X180904761Y-107152057D01*
X180904761Y-107152057D02*
X180857142Y-107247295D01*
X180857142Y-107247295D02*
X180857142Y-107294914D01*
X180857142Y-107294914D02*
X180904761Y-107390152D01*
X180904761Y-107390152D02*
X180952380Y-107437771D01*
X180952380Y-107437771D02*
X181047618Y-107485390D01*
X181047618Y-107485390D02*
X181238094Y-107485390D01*
X181238094Y-107485390D02*
X181333332Y-107533009D01*
X181333332Y-107533009D02*
X181380951Y-107580628D01*
X181380951Y-107580628D02*
X181428570Y-107675866D01*
X181428570Y-107675866D02*
X181428570Y-107866342D01*
X181428570Y-107866342D02*
X181380951Y-107961580D01*
X181380951Y-107961580D02*
X181333332Y-108009200D01*
X181333332Y-108009200D02*
X181238094Y-108056819D01*
X181238094Y-108056819D02*
X181047618Y-108056819D01*
X181047618Y-108056819D02*
X180952380Y-108009200D01*
X180952380Y-108009200D02*
X180904761Y-107961580D01*
X180904761Y-107961580D02*
X180857142Y-107866342D01*
X180857142Y-107866342D02*
X180857142Y-107675866D01*
X180857142Y-107675866D02*
X180904761Y-107580628D01*
X180904761Y-107580628D02*
X180952380Y-107533009D01*
X180952380Y-107533009D02*
X181047618Y-107485390D01*
X170738094Y-109556819D02*
X170166666Y-109556819D01*
X170452380Y-110556819D02*
X170452380Y-109556819D01*
X169833332Y-110556819D02*
X169833332Y-109556819D01*
X169833332Y-109556819D02*
X169452380Y-109556819D01*
X169452380Y-109556819D02*
X169357142Y-109604438D01*
X169357142Y-109604438D02*
X169309523Y-109652057D01*
X169309523Y-109652057D02*
X169261904Y-109747295D01*
X169261904Y-109747295D02*
X169261904Y-109890152D01*
X169261904Y-109890152D02*
X169309523Y-109985390D01*
X169309523Y-109985390D02*
X169357142Y-110033009D01*
X169357142Y-110033009D02*
X169452380Y-110080628D01*
X169452380Y-110080628D02*
X169833332Y-110080628D01*
X168309523Y-110556819D02*
X168880951Y-110556819D01*
X168595237Y-110556819D02*
X168595237Y-109556819D01*
X168595237Y-109556819D02*
X168690475Y-109699676D01*
X168690475Y-109699676D02*
X168785713Y-109794914D01*
X168785713Y-109794914D02*
X168880951Y-109842533D01*
X167404761Y-109556819D02*
X167880951Y-109556819D01*
X167880951Y-109556819D02*
X167928570Y-110033009D01*
X167928570Y-110033009D02*
X167880951Y-109985390D01*
X167880951Y-109985390D02*
X167785713Y-109937771D01*
X167785713Y-109937771D02*
X167547618Y-109937771D01*
X167547618Y-109937771D02*
X167452380Y-109985390D01*
X167452380Y-109985390D02*
X167404761Y-110033009D01*
X167404761Y-110033009D02*
X167357142Y-110128247D01*
X167357142Y-110128247D02*
X167357142Y-110366342D01*
X167357142Y-110366342D02*
X167404761Y-110461580D01*
X167404761Y-110461580D02*
X167452380Y-110509200D01*
X167452380Y-110509200D02*
X167547618Y-110556819D01*
X167547618Y-110556819D02*
X167785713Y-110556819D01*
X167785713Y-110556819D02*
X167880951Y-110509200D01*
X167880951Y-110509200D02*
X167928570Y-110461580D01*
X148711904Y-115519319D02*
X148140476Y-115519319D01*
X148426190Y-116519319D02*
X148426190Y-115519319D01*
X147807142Y-116519319D02*
X147807142Y-115519319D01*
X147807142Y-115519319D02*
X147426190Y-115519319D01*
X147426190Y-115519319D02*
X147330952Y-115566938D01*
X147330952Y-115566938D02*
X147283333Y-115614557D01*
X147283333Y-115614557D02*
X147235714Y-115709795D01*
X147235714Y-115709795D02*
X147235714Y-115852652D01*
X147235714Y-115852652D02*
X147283333Y-115947890D01*
X147283333Y-115947890D02*
X147330952Y-115995509D01*
X147330952Y-115995509D02*
X147426190Y-116043128D01*
X147426190Y-116043128D02*
X147807142Y-116043128D01*
X146759523Y-116519319D02*
X146569047Y-116519319D01*
X146569047Y-116519319D02*
X146473809Y-116471700D01*
X146473809Y-116471700D02*
X146426190Y-116424080D01*
X146426190Y-116424080D02*
X146330952Y-116281223D01*
X146330952Y-116281223D02*
X146283333Y-116090747D01*
X146283333Y-116090747D02*
X146283333Y-115709795D01*
X146283333Y-115709795D02*
X146330952Y-115614557D01*
X146330952Y-115614557D02*
X146378571Y-115566938D01*
X146378571Y-115566938D02*
X146473809Y-115519319D01*
X146473809Y-115519319D02*
X146664285Y-115519319D01*
X146664285Y-115519319D02*
X146759523Y-115566938D01*
X146759523Y-115566938D02*
X146807142Y-115614557D01*
X146807142Y-115614557D02*
X146854761Y-115709795D01*
X146854761Y-115709795D02*
X146854761Y-115947890D01*
X146854761Y-115947890D02*
X146807142Y-116043128D01*
X146807142Y-116043128D02*
X146759523Y-116090747D01*
X146759523Y-116090747D02*
X146664285Y-116138366D01*
X146664285Y-116138366D02*
X146473809Y-116138366D01*
X146473809Y-116138366D02*
X146378571Y-116090747D01*
X146378571Y-116090747D02*
X146330952Y-116043128D01*
X146330952Y-116043128D02*
X146283333Y-115947890D01*
X125261904Y-105954819D02*
X124690476Y-105954819D01*
X124976190Y-106954819D02*
X124976190Y-105954819D01*
X124357142Y-106954819D02*
X124357142Y-105954819D01*
X124357142Y-105954819D02*
X123976190Y-105954819D01*
X123976190Y-105954819D02*
X123880952Y-106002438D01*
X123880952Y-106002438D02*
X123833333Y-106050057D01*
X123833333Y-106050057D02*
X123785714Y-106145295D01*
X123785714Y-106145295D02*
X123785714Y-106288152D01*
X123785714Y-106288152D02*
X123833333Y-106383390D01*
X123833333Y-106383390D02*
X123880952Y-106431009D01*
X123880952Y-106431009D02*
X123976190Y-106478628D01*
X123976190Y-106478628D02*
X124357142Y-106478628D01*
X122928571Y-106288152D02*
X122928571Y-106954819D01*
X123166666Y-105907200D02*
X123404761Y-106621485D01*
X123404761Y-106621485D02*
X122785714Y-106621485D01*
X153938094Y-115344319D02*
X153366666Y-115344319D01*
X153652380Y-116344319D02*
X153652380Y-115344319D01*
X153033332Y-116344319D02*
X153033332Y-115344319D01*
X153033332Y-115344319D02*
X152652380Y-115344319D01*
X152652380Y-115344319D02*
X152557142Y-115391938D01*
X152557142Y-115391938D02*
X152509523Y-115439557D01*
X152509523Y-115439557D02*
X152461904Y-115534795D01*
X152461904Y-115534795D02*
X152461904Y-115677652D01*
X152461904Y-115677652D02*
X152509523Y-115772890D01*
X152509523Y-115772890D02*
X152557142Y-115820509D01*
X152557142Y-115820509D02*
X152652380Y-115868128D01*
X152652380Y-115868128D02*
X153033332Y-115868128D01*
X151509523Y-116344319D02*
X152080951Y-116344319D01*
X151795237Y-116344319D02*
X151795237Y-115344319D01*
X151795237Y-115344319D02*
X151890475Y-115487176D01*
X151890475Y-115487176D02*
X151985713Y-115582414D01*
X151985713Y-115582414D02*
X152080951Y-115630033D01*
X150890475Y-115344319D02*
X150795237Y-115344319D01*
X150795237Y-115344319D02*
X150699999Y-115391938D01*
X150699999Y-115391938D02*
X150652380Y-115439557D01*
X150652380Y-115439557D02*
X150604761Y-115534795D01*
X150604761Y-115534795D02*
X150557142Y-115725271D01*
X150557142Y-115725271D02*
X150557142Y-115963366D01*
X150557142Y-115963366D02*
X150604761Y-116153842D01*
X150604761Y-116153842D02*
X150652380Y-116249080D01*
X150652380Y-116249080D02*
X150699999Y-116296700D01*
X150699999Y-116296700D02*
X150795237Y-116344319D01*
X150795237Y-116344319D02*
X150890475Y-116344319D01*
X150890475Y-116344319D02*
X150985713Y-116296700D01*
X150985713Y-116296700D02*
X151033332Y-116249080D01*
X151033332Y-116249080D02*
X151080951Y-116153842D01*
X151080951Y-116153842D02*
X151128570Y-115963366D01*
X151128570Y-115963366D02*
X151128570Y-115725271D01*
X151128570Y-115725271D02*
X151080951Y-115534795D01*
X151080951Y-115534795D02*
X151033332Y-115439557D01*
X151033332Y-115439557D02*
X150985713Y-115391938D01*
X150985713Y-115391938D02*
X150890475Y-115344319D01*
X181413094Y-102291819D02*
X180841666Y-102291819D01*
X181127380Y-103291819D02*
X181127380Y-102291819D01*
X180508332Y-103291819D02*
X180508332Y-102291819D01*
X180508332Y-102291819D02*
X180127380Y-102291819D01*
X180127380Y-102291819D02*
X180032142Y-102339438D01*
X180032142Y-102339438D02*
X179984523Y-102387057D01*
X179984523Y-102387057D02*
X179936904Y-102482295D01*
X179936904Y-102482295D02*
X179936904Y-102625152D01*
X179936904Y-102625152D02*
X179984523Y-102720390D01*
X179984523Y-102720390D02*
X180032142Y-102768009D01*
X180032142Y-102768009D02*
X180127380Y-102815628D01*
X180127380Y-102815628D02*
X180508332Y-102815628D01*
X178984523Y-103291819D02*
X179555951Y-103291819D01*
X179270237Y-103291819D02*
X179270237Y-102291819D01*
X179270237Y-102291819D02*
X179365475Y-102434676D01*
X179365475Y-102434676D02*
X179460713Y-102529914D01*
X179460713Y-102529914D02*
X179555951Y-102577533D01*
X178651189Y-102291819D02*
X177984523Y-102291819D01*
X177984523Y-102291819D02*
X178413094Y-103291819D01*
X161188094Y-102556819D02*
X160616666Y-102556819D01*
X160902380Y-103556819D02*
X160902380Y-102556819D01*
X160283332Y-103556819D02*
X160283332Y-102556819D01*
X160283332Y-102556819D02*
X159902380Y-102556819D01*
X159902380Y-102556819D02*
X159807142Y-102604438D01*
X159807142Y-102604438D02*
X159759523Y-102652057D01*
X159759523Y-102652057D02*
X159711904Y-102747295D01*
X159711904Y-102747295D02*
X159711904Y-102890152D01*
X159711904Y-102890152D02*
X159759523Y-102985390D01*
X159759523Y-102985390D02*
X159807142Y-103033009D01*
X159807142Y-103033009D02*
X159902380Y-103080628D01*
X159902380Y-103080628D02*
X160283332Y-103080628D01*
X158759523Y-103556819D02*
X159330951Y-103556819D01*
X159045237Y-103556819D02*
X159045237Y-102556819D01*
X159045237Y-102556819D02*
X159140475Y-102699676D01*
X159140475Y-102699676D02*
X159235713Y-102794914D01*
X159235713Y-102794914D02*
X159330951Y-102842533D01*
X158378570Y-102652057D02*
X158330951Y-102604438D01*
X158330951Y-102604438D02*
X158235713Y-102556819D01*
X158235713Y-102556819D02*
X157997618Y-102556819D01*
X157997618Y-102556819D02*
X157902380Y-102604438D01*
X157902380Y-102604438D02*
X157854761Y-102652057D01*
X157854761Y-102652057D02*
X157807142Y-102747295D01*
X157807142Y-102747295D02*
X157807142Y-102842533D01*
X157807142Y-102842533D02*
X157854761Y-102985390D01*
X157854761Y-102985390D02*
X158426189Y-103556819D01*
X158426189Y-103556819D02*
X157807142Y-103556819D01*
X136761904Y-117954819D02*
X136190476Y-117954819D01*
X136476190Y-118954819D02*
X136476190Y-117954819D01*
X135857142Y-118954819D02*
X135857142Y-117954819D01*
X135857142Y-117954819D02*
X135476190Y-117954819D01*
X135476190Y-117954819D02*
X135380952Y-118002438D01*
X135380952Y-118002438D02*
X135333333Y-118050057D01*
X135333333Y-118050057D02*
X135285714Y-118145295D01*
X135285714Y-118145295D02*
X135285714Y-118288152D01*
X135285714Y-118288152D02*
X135333333Y-118383390D01*
X135333333Y-118383390D02*
X135380952Y-118431009D01*
X135380952Y-118431009D02*
X135476190Y-118478628D01*
X135476190Y-118478628D02*
X135857142Y-118478628D01*
X134428571Y-117954819D02*
X134619047Y-117954819D01*
X134619047Y-117954819D02*
X134714285Y-118002438D01*
X134714285Y-118002438D02*
X134761904Y-118050057D01*
X134761904Y-118050057D02*
X134857142Y-118192914D01*
X134857142Y-118192914D02*
X134904761Y-118383390D01*
X134904761Y-118383390D02*
X134904761Y-118764342D01*
X134904761Y-118764342D02*
X134857142Y-118859580D01*
X134857142Y-118859580D02*
X134809523Y-118907200D01*
X134809523Y-118907200D02*
X134714285Y-118954819D01*
X134714285Y-118954819D02*
X134523809Y-118954819D01*
X134523809Y-118954819D02*
X134428571Y-118907200D01*
X134428571Y-118907200D02*
X134380952Y-118859580D01*
X134380952Y-118859580D02*
X134333333Y-118764342D01*
X134333333Y-118764342D02*
X134333333Y-118526247D01*
X134333333Y-118526247D02*
X134380952Y-118431009D01*
X134380952Y-118431009D02*
X134428571Y-118383390D01*
X134428571Y-118383390D02*
X134523809Y-118335771D01*
X134523809Y-118335771D02*
X134714285Y-118335771D01*
X134714285Y-118335771D02*
X134809523Y-118383390D01*
X134809523Y-118383390D02*
X134857142Y-118431009D01*
X134857142Y-118431009D02*
X134904761Y-118526247D01*
D12*
%TO.C,TP8*%
X147200000Y-105500000D02*
G75*
G02*
X143700000Y-105500000I-1750000J0D01*
G01*
X143700000Y-105500000D02*
G75*
G02*
X147200000Y-105500000I1750000J0D01*
G01*
%TO.C,TP3*%
X122375000Y-120350000D02*
G75*
G02*
X118875000Y-120350000I-1750000J0D01*
G01*
X118875000Y-120350000D02*
G75*
G02*
X122375000Y-120350000I1750000J0D01*
G01*
%TO.C,TP1*%
X122375000Y-111475000D02*
G75*
G02*
X118875000Y-111475000I-1750000J0D01*
G01*
X118875000Y-111475000D02*
G75*
G02*
X122375000Y-111475000I1750000J0D01*
G01*
%TO.C,TP11*%
X156200000Y-105500000D02*
G75*
G02*
X152700000Y-105500000I-1750000J0D01*
G01*
X152700000Y-105500000D02*
G75*
G02*
X156200000Y-105500000I1750000J0D01*
G01*
%TO.C,TP14*%
X181425000Y-123500000D02*
G75*
G02*
X177925000Y-123500000I-1750000J0D01*
G01*
X177925000Y-123500000D02*
G75*
G02*
X181425000Y-123500000I1750000J0D01*
G01*
%TO.C,TP16*%
X170750000Y-117000000D02*
G75*
G02*
X167250000Y-117000000I-1750000J0D01*
G01*
X167250000Y-117000000D02*
G75*
G02*
X170750000Y-117000000I1750000J0D01*
G01*
%TO.C,TP7*%
X141935000Y-105500000D02*
G75*
G02*
X138435000Y-105500000I-1750000J0D01*
G01*
X138435000Y-105500000D02*
G75*
G02*
X141935000Y-105500000I1750000J0D01*
G01*
%TO.C,TP5*%
X133375000Y-114000000D02*
G75*
G02*
X129875000Y-114000000I-1750000J0D01*
G01*
X129875000Y-114000000D02*
G75*
G02*
X133375000Y-114000000I1750000J0D01*
G01*
%TO.C,J1*%
X132230000Y-144170000D02*
X132230000Y-149370000D01*
X132230000Y-144170000D02*
X167910000Y-144170000D01*
X132230000Y-149370000D02*
X165310000Y-149370000D01*
X165310000Y-146770000D02*
X165310000Y-149370000D01*
X167910000Y-144170000D02*
X167910000Y-146770000D01*
X167910000Y-146770000D02*
X165310000Y-146770000D01*
X167910000Y-148040000D02*
X167910000Y-149370000D01*
X167910000Y-149370000D02*
X166580000Y-149370000D01*
%TO.C,TP2*%
X122375000Y-125350000D02*
G75*
G02*
X118875000Y-125350000I-1750000J0D01*
G01*
X118875000Y-125350000D02*
G75*
G02*
X122375000Y-125350000I1750000J0D01*
G01*
%TO.C,TP13*%
X181425000Y-119000000D02*
G75*
G02*
X177925000Y-119000000I-1750000J0D01*
G01*
X177925000Y-119000000D02*
G75*
G02*
X181425000Y-119000000I1750000J0D01*
G01*
%TO.C,TP18*%
X181425000Y-110000000D02*
G75*
G02*
X177925000Y-110000000I-1750000J0D01*
G01*
X177925000Y-110000000D02*
G75*
G02*
X181425000Y-110000000I1750000J0D01*
G01*
%TO.C,TP15*%
X170750000Y-112500000D02*
G75*
G02*
X167250000Y-112500000I-1750000J0D01*
G01*
X167250000Y-112500000D02*
G75*
G02*
X170750000Y-112500000I1750000J0D01*
G01*
%TO.C,TP9*%
X149200000Y-118462500D02*
G75*
G02*
X145700000Y-118462500I-1750000J0D01*
G01*
X145700000Y-118462500D02*
G75*
G02*
X149200000Y-118462500I1750000J0D01*
G01*
%TO.C,TP4*%
X122375000Y-106350000D02*
G75*
G02*
X118875000Y-106350000I-1750000J0D01*
G01*
X118875000Y-106350000D02*
G75*
G02*
X122375000Y-106350000I1750000J0D01*
G01*
%TO.C,TP10*%
X153950000Y-118287500D02*
G75*
G02*
X150450000Y-118287500I-1750000J0D01*
G01*
X150450000Y-118287500D02*
G75*
G02*
X153950000Y-118287500I1750000J0D01*
G01*
%TO.C,TP17*%
X181425000Y-105235000D02*
G75*
G02*
X177925000Y-105235000I-1750000J0D01*
G01*
X177925000Y-105235000D02*
G75*
G02*
X181425000Y-105235000I1750000J0D01*
G01*
%TO.C,TP12*%
X161200000Y-105500000D02*
G75*
G02*
X157700000Y-105500000I-1750000J0D01*
G01*
X157700000Y-105500000D02*
G75*
G02*
X161200000Y-105500000I1750000J0D01*
G01*
%TO.C,TP6*%
X133375000Y-118500000D02*
G75*
G02*
X129875000Y-118500000I-1750000J0D01*
G01*
X129875000Y-118500000D02*
G75*
G02*
X133375000Y-118500000I1750000J0D01*
G01*
%TD*%
%LPC*%
D13*
%TO.C,D2*%
X120600000Y-107725000D03*
D14*
X120600000Y-110265000D03*
%TD*%
D13*
%TO.C,Q1*%
X117325000Y-114725000D03*
D14*
X117325000Y-117265000D03*
%TD*%
D13*
%TO.C,D3*%
X144225000Y-105975000D03*
D14*
X141685000Y-105975000D03*
%TD*%
D13*
%TO.C,D4*%
X158460000Y-105975000D03*
D14*
X155920000Y-105975000D03*
%TD*%
D13*
%TO.C,Q3*%
X183000000Y-115750000D03*
D14*
X183000000Y-113210000D03*
%TD*%
D13*
%TO.C,Q4*%
X151200000Y-102787500D03*
D14*
X148660000Y-102787500D03*
%TD*%
D13*
%TO.C,D6*%
X179700000Y-109275000D03*
D14*
X179700000Y-106735000D03*
%TD*%
D13*
%TO.C,D1*%
X120600000Y-121575000D03*
D14*
X120600000Y-124115000D03*
%TD*%
D13*
%TO.C,D5*%
X179700000Y-122275000D03*
D14*
X179700000Y-119735000D03*
%TD*%
D15*
%TO.C,TP8*%
X145450000Y-105500000D03*
%TD*%
%TO.C,TP3*%
X120625000Y-120350000D03*
%TD*%
%TO.C,TP1*%
X120625000Y-111475000D03*
%TD*%
%TO.C,TP11*%
X154450000Y-105500000D03*
%TD*%
%TO.C,TP14*%
X179675000Y-123500000D03*
%TD*%
%TO.C,TP16*%
X169000000Y-117000000D03*
%TD*%
%TO.C,TP7*%
X140185000Y-105500000D03*
%TD*%
%TO.C,TP5*%
X131625000Y-114000000D03*
%TD*%
D16*
%TO.C,J1*%
X166580000Y-148040000D03*
D17*
X166580000Y-145500000D03*
X164040000Y-148040000D03*
X164040000Y-145500000D03*
X161500000Y-148040000D03*
X161500000Y-145500000D03*
X158960000Y-148040000D03*
X158960000Y-145500000D03*
X156420000Y-148040000D03*
X156420000Y-145500000D03*
X153880000Y-148040000D03*
X153880000Y-145500000D03*
X151340000Y-148040000D03*
X151340000Y-145500000D03*
X148800000Y-148040000D03*
X148800000Y-145500000D03*
X146260000Y-148040000D03*
X146260000Y-145500000D03*
X143720000Y-148040000D03*
X143720000Y-145500000D03*
X141180000Y-148040000D03*
X141180000Y-145500000D03*
X138640000Y-148040000D03*
X138640000Y-145500000D03*
X136100000Y-148040000D03*
X136100000Y-145500000D03*
X133560000Y-148040000D03*
X133560000Y-145500000D03*
%TD*%
D15*
%TO.C,TP2*%
X120625000Y-125350000D03*
%TD*%
%TO.C,TP13*%
X179675000Y-119000000D03*
%TD*%
%TO.C,TP18*%
X179675000Y-110000000D03*
%TD*%
%TO.C,TP15*%
X169000000Y-112500000D03*
%TD*%
%TO.C,TP9*%
X147450000Y-118462500D03*
%TD*%
%TO.C,TP4*%
X120625000Y-106350000D03*
%TD*%
%TO.C,TP10*%
X152200000Y-118287500D03*
%TD*%
%TO.C,TP17*%
X179675000Y-105235000D03*
%TD*%
%TO.C,TP12*%
X159450000Y-105500000D03*
%TD*%
%TO.C,TP6*%
X131625000Y-118500000D03*
%TD*%
%LPD*%
M02*
